<svg width="1431" height="1346" viewBox="0 0 1431 1346" fill="none" xmlns="http://www.w3.org/2000/svg">
<path d="M615.326 943.969C443.943 900.773 117.499 939.961 28.4689 950.352C27.0409 950.484 25.6063 950.181 24.3531 949.484C23.0998 948.786 22.0862 947.727 21.4448 946.443C20.8035 945.16 20.5643 943.713 20.7585 942.292C20.9528 940.87 21.5715 939.541 22.5336 938.477C64.8229 893.945 141.24 813.788 172.104 553.872C200.445 323.347 21.0498 62.837 21.0498 41.7587C21.0498 24.9852 271.818 143.736 376.28 162.143C556.417 194.205 611.764 124.439 727.355 139.431C895.919 161.252 984.652 237.846 1053.8 262.932C1200.7 316.222 1430.69 230.276 1430.69 238.143C1430.69 305.386 1344.93 311.027 1318.81 334.628C1318.01 335.356 1317.38 336.261 1316.99 337.273C1316.59 338.285 1316.44 339.374 1316.54 340.455C1316.64 341.536 1316.99 342.579 1317.57 343.5C1318.14 344.421 1318.92 345.195 1319.85 345.761C1330.65 352.286 1342.58 356.717 1355.02 358.824C1356.58 359.012 1358.03 359.723 1359.14 360.842C1360.25 361.962 1360.95 363.423 1361.12 364.989C1361.29 366.554 1360.93 368.132 1360.09 369.465C1359.25 370.799 1357.99 371.809 1356.5 372.332C1323.86 385.543 1270.88 407.66 1274.15 425.473C1274.15 428.887 1276.08 437.793 1297.74 443.285C1299.27 443.678 1300.63 444.569 1301.6 445.819C1302.57 447.069 1303.1 448.606 1303.1 450.188C1303.1 451.77 1302.57 453.307 1301.6 454.557C1300.63 455.806 1299.27 456.698 1297.74 457.09C1271.77 462.582 1241.06 469.262 1238.39 473.567C1235.72 477.872 1307.98 490.34 1307.09 501.919C1307.09 505.778 1291.06 519.88 1292.25 522.7C1295.96 528.489 1320.44 537.544 1336.77 542.591C1337.96 542.966 1339.04 543.656 1339.87 544.59C1340.71 545.524 1341.28 546.666 1341.52 547.897C1341.77 549.128 1341.67 550.401 1341.25 551.583C1340.84 552.765 1340.1 553.813 1339.14 554.614C1337.04 556.188 1335.6 558.492 1335.1 561.073C1334.61 563.655 1335.1 566.327 1336.47 568.568C1338.08 574.749 1337.72 581.28 1335.43 587.243C1333.14 593.207 1329.04 598.303 1323.71 601.818C1311.39 606.271 1179.03 635.513 1178.74 659.561C1178.74 662.826 1274.74 675.889 1341.96 662.678C1343.42 662.395 1344.93 662.578 1346.29 663.2C1347.64 663.822 1348.76 664.853 1349.5 666.147C1350.24 667.441 1350.55 668.933 1350.4 670.414C1350.24 671.895 1349.63 673.291 1348.64 674.404C1328.46 696.67 1281.57 722.647 1262.87 737.491C1261.79 738.348 1260.98 739.501 1260.54 740.809C1260.1 742.118 1260.05 743.526 1260.4 744.863C1260.74 746.199 1261.47 747.407 1262.49 748.338C1263.51 749.269 1264.77 749.884 1266.14 750.108C1280.97 752.483 1274 741.647 1303.68 753.225C1328.75 763.022 1385.73 818.687 1331.87 795.53C1273.26 770.296 1121.61 832.492 1122.5 838.132C1123.39 843.773 1226.37 825.367 1281.12 867.82C1286.91 872.273 1252.63 870.64 1245.21 871.383C1207.52 874.648 1205.6 884.445 1210.79 893.351C1212.42 896.023 1273.55 951.836 1322.52 943.969C1383.06 934.172 1430.69 999.93 1430.69 1015.81C1430.69 1022.79 1428.91 1030.66 1420.9 1026.35C1379.35 1000.38 1273.55 1017.45 988.659 1048.17C887.164 1058.71 761.78 980.485 615.326 943.969ZM678.389 402.465C684.621 399.348 654.944 378.121 627.345 368.324C638.151 365.299 649.376 364.046 660.583 364.613C688.854 367.575 716.17 376.532 740.71 390.887C723.605 373.097 704.367 357.491 683.434 344.425C651.999 327.638 616.429 320.171 580.901 322.902C537.139 332.59 494.258 345.896 452.697 362.683C452.697 365.8 495.729 361.793 523.179 365.652C524.683 365.904 526.066 366.633 527.125 367.73C528.184 368.827 528.863 370.235 529.062 371.747C529.262 373.259 528.971 374.796 528.232 376.13C527.494 377.464 526.347 378.526 524.96 379.16C509.231 385.988 491.574 394.746 514.722 394.004C532.676 394.004 567.695 388.363 578.675 388.957C607.165 390.59 674.827 404.246 678.389 402.465ZM379.989 769.108C355.526 776.522 331.904 786.472 309.507 798.796C308.122 799.625 307.059 800.9 306.492 802.412C305.926 803.924 305.89 805.584 306.39 807.119C306.89 808.654 307.897 809.974 309.245 810.862C310.593 811.75 312.203 812.154 313.81 812.007C322.51 810.644 331.278 809.752 340.074 809.335C391.712 806.515 438.304 813.343 508.489 824.179C520.36 826.109 513.98 812.452 525.405 804.882C526.583 804.168 527.528 803.128 528.127 801.888C528.726 800.648 528.953 799.261 528.78 797.895C528.607 796.529 528.042 795.242 527.154 794.19C526.265 793.138 525.091 792.366 523.773 791.968C485.935 782.022 416.492 764.655 379.989 769.108ZM931.382 366.394C916.544 352.738 890.577 359.714 870.397 360.605C849.692 361.299 828.964 360.505 808.373 358.23C806.779 358.123 805.195 358.555 803.877 359.456C802.558 360.358 801.58 361.677 801.101 363.201C800.622 364.725 800.668 366.366 801.234 367.861C801.799 369.355 802.85 370.616 804.218 371.441C821.437 380.749 839.591 388.212 858.378 393.707C877.371 398.16 902.893 393.707 939.84 400.535C941.305 400.777 942.81 400.554 944.142 399.898C945.475 399.243 946.569 398.187 947.272 396.878C947.975 395.57 948.252 394.074 948.063 392.6C947.875 391.127 947.231 389.749 946.221 388.66C935.537 377.082 935.982 370.105 931.382 366.394ZM802.437 663.271C792.496 660.006 755.251 678.115 747.535 678.115C735.224 682.273 722.22 683.988 709.252 683.162C707.65 683.173 706.098 683.724 704.848 684.727C703.598 685.729 702.721 687.123 702.361 688.685C702.001 690.247 702.177 691.884 702.862 693.333C703.548 694.782 704.701 695.958 706.136 696.67C727.626 707.006 750.448 714.3 773.948 718.342C775.346 718.48 776.754 718.202 777.995 717.541C779.235 716.88 780.252 715.867 780.919 714.63C781.585 713.392 781.87 711.985 781.739 710.585C781.607 709.185 781.065 707.856 780.18 706.764C765.341 690.584 771.128 675.147 809.856 686.873C826.515 691.507 843.633 694.295 860.9 695.186C862.575 695.196 864.199 694.616 865.489 693.547C866.778 692.479 867.65 690.99 867.951 689.342C868.252 687.694 867.963 685.993 867.135 684.537C866.307 683.081 864.993 681.964 863.423 681.381C838.791 672.326 807.334 663.271 802.437 662.381V663.271ZM910.312 644.717C904.08 642.935 900.519 645.904 891.764 648.131C890.35 648.606 889.121 649.514 888.25 650.726C887.379 651.937 886.91 653.392 886.91 654.885C886.91 656.377 887.379 657.832 888.25 659.044C889.121 660.256 890.35 661.163 891.764 661.639C912.389 668.318 936.279 675.592 947.705 678.264C975.304 684.647 973.672 664.904 966.846 658.373C962.246 654.068 952.008 656.146 943.55 655.404C935.092 654.662 940.434 661.045 935.24 659.115C930.047 657.186 914.318 644.865 910.312 643.826V644.717Z" fill="black"/>
<rect x="0.692871" y="0.140747" width="30" height="1345" rx="15" fill="black"/>
</svg>
