<svg width="60" height="60" viewBox="0 0 60 60" fill="none" xmlns="http://www.w3.org/2000/svg">
<path d="M30 60C46.5685 60 60 46.5685 60 30C60 13.4315 46.5685 0 30 0C13.4315 0 0 13.4315 0 30C0 46.5685 13.4315 60 30 60Z" fill="white"/>
<path d="M45.0852 25.735H43.9117C42.776 19.0726 36.9464 14 29.9811 14C23.0158 14 17.224 19.0726 16.0505 25.735H14.9148C13.3249 25.735 12 27.0599 12 28.6498V33.5331C12 34.3281 12.3028 35.0473 12.8707 35.6151C13.4385 36.1451 14.1577 36.4479 14.9148 36.4479H17.5268C18.2839 36.4479 18.8896 35.8423 18.8896 35.0852V28.1199C18.8896 22.0252 23.8486 17.0662 29.9432 17.0662C36.0379 17.0662 40.9968 22.0252 40.9968 28.1199V37.6215C40.9968 40.1199 38.9527 42.164 36.4543 42.164H33.9558C33.7666 41.3691 33.0852 40.8013 32.2145 40.8013H27.7098C26.6877 40.8013 25.8927 41.6341 25.8927 42.6183V43.8675C25.8927 44.8896 26.7256 45.6845 27.7098 45.6845H32.2902C33.123 45.6845 33.8044 45.0789 34.0315 44.3218H36.53C40.2019 44.3218 43.2303 41.3312 43.2303 37.6215V36.4101H45.0852C45.8423 36.4101 46.5994 36.1073 47.1293 35.5773C47.6972 35.0095 48 34.2902 48 33.4953V28.6498C48 27.0599 46.7129 25.7729 45.0852 25.735Z" fill="#0045A0"/>
</svg>
