<svg width="20" height="37" viewBox="0 0 20 37" fill="none" xmlns="http://www.w3.org/2000/svg">
<path d="M0.484379 36.546C0.770271 36.8344 1.15876 36.9976 1.56473 36.9999C1.76621 37.0018 1.96595 36.9625 2.15172 36.8845C2.33749 36.8064 2.50537 36.6912 2.64508 36.546L19.5483 19.5988C19.6914 19.4575 19.805 19.2893 19.8825 19.1037C19.9601 18.9182 20 18.7191 20 18.518C20 18.3169 19.9601 18.1178 19.8825 17.9323C19.805 17.7467 19.6914 17.5784 19.5483 17.4372L2.64508 0.484588C2.50501 0.334786 2.33625 0.214704 2.14883 0.131491C1.96142 0.0482773 1.75919 0.00363206 1.55418 0.000212529C1.34917 -0.003207 1.14556 0.0346691 0.955482 0.111586C0.765402 0.188503 0.592729 0.30289 0.447744 0.447938C0.302758 0.592986 0.188421 0.765731 0.111537 0.955894C0.0346532 1.14606 -0.00320562 1.34975 0.000212442 1.55485C0.0036305 1.75995 0.0482558 1.96227 0.131434 2.14976C0.214611 2.33725 0.334641 2.50609 0.484379 2.64622L16.3073 18.518L0.484379 34.3844C0.341961 34.526 0.22894 34.6944 0.151816 34.8799C0.0746922 35.0654 0.0349876 35.2643 0.0349876 35.4652C0.0349876 35.6661 0.0746922 35.865 0.151816 36.0505C0.22894 36.236 0.341961 36.4044 0.484379 36.546Z" fill="white"/>
</svg>
