<svg width="7" height="13" viewBox="0 0 7 13" fill="none" xmlns="http://www.w3.org/2000/svg">
<path opacity="0.5" d="M0.169533 12.8405C0.269595 12.9418 0.405566 12.9992 0.547656 13C0.618174 13.0006 0.688084 12.9868 0.753103 12.9594C0.818122 12.932 0.876881 12.8915 0.925779 12.8405L6.84192 6.88607C6.89199 6.83644 6.93175 6.77731 6.95889 6.71212C6.98603 6.64693 7 6.57698 7 6.50632C7 6.43567 6.98603 6.36571 6.95889 6.30052C6.93175 6.23533 6.89199 6.17621 6.84192 6.12658L0.925779 0.170261C0.876754 0.117627 0.817686 0.0754367 0.752092 0.0461995C0.686498 0.0169623 0.615717 0.00127613 0.543963 7.46723e-05C0.472209 -0.00112678 0.400947 0.012181 0.334419 0.039206C0.267891 0.0662309 0.207456 0.106421 0.15671 0.157384C0.105965 0.208346 0.0659476 0.269041 0.0390381 0.335855C0.0121287 0.402668 -0.00112197 0.474236 7.43542e-05 0.546299C0.00127067 0.618361 0.0168897 0.689445 0.0460019 0.755321C0.0751141 0.821197 0.117124 0.880518 0.169533 0.929753L5.70755 6.50632L0.169533 12.081C0.119687 12.1308 0.0801292 12.1899 0.0531358 12.2551C0.0261425 12.3203 0.0122459 12.3902 0.0122459 12.4607C0.0122459 12.5313 0.0261425 12.6012 0.0531358 12.6664C0.0801292 12.7316 0.119687 12.7907 0.169533 12.8405Z" fill="#333B45"/>
</svg>
