<svg width="60" height="60" viewBox="0 0 60 60" fill="none" xmlns="http://www.w3.org/2000/svg">
<path d="M30 60C46.5685 60 60 46.5685 60 30C60 13.4315 46.5685 0 30 0C13.4315 0 0 13.4315 0 30C0 46.5685 13.4315 60 30 60Z" fill="white"/>
<path d="M36.5974 18C33.2947 18 31.2099 19.6074 30 21.0608C28.7901 19.6074 26.7056 18 23.4016 18C17.7776 18 14 23.2099 14 28.0755C14 35.1587 27.6058 44.6518 29.1571 45.7107C29.4112 45.8838 29.7056 45.9706 30 45.9706C30.2944 45.9706 30.5888 45.8838 30.8429 45.7107C32.3942 44.6518 46 35.1587 46 28.0755C46 23.2099 42.2218 18 36.5974 18Z" fill="#0045A0"/>
</svg>
