<svg width="66" height="85" viewBox="0 0 66 85" fill="none" xmlns="http://www.w3.org/2000/svg">
<path d="M63.75 0H1.77083C1.30118 0 0.850759 0.186568 0.518664 0.518664C0.186568 0.850759 0 1.30118 0 1.77083V83.2292C0 83.6988 0.186568 84.1492 0.518664 84.4813C0.850759 84.8134 1.30118 85 1.77083 85H37.1875C44.702 85 51.9087 82.0149 57.2222 76.7014C62.5357 71.3878 65.5208 64.1811 65.5208 56.6667V1.77083C65.5208 1.30118 65.3343 0.850759 65.0022 0.518664C64.6701 0.186568 64.2197 0 63.75 0ZM3.54167 3.54167H61.9792V56.6667C61.969 57.9002 61.8684 59.1312 61.6781 60.35H39.2417C38.8488 60.3332 38.4615 60.4477 38.1409 60.6753C37.8203 60.903 37.5845 61.2309 37.4708 61.6073L36.851 63.6083H11.5104C11.0408 63.6083 10.5903 63.7949 10.2582 64.127C9.92615 64.4591 9.73958 64.9095 9.73958 65.3792C9.73958 65.8488 9.92615 66.2992 10.2582 66.6313C10.5903 66.9634 11.0408 67.15 11.5104 67.15H35.8948L31.3969 81.4583H3.54167V3.54167ZM37.1875 81.4583H35.0979L40.5344 63.8917H60.899C59.3506 68.974 56.2106 73.4244 51.9415 76.5871C47.6725 79.7498 42.5004 81.4575 37.1875 81.4583ZM11.5104 48.8396H54.0104C54.4801 48.8396 54.9305 48.653 55.2626 48.3209C55.5947 47.9888 55.7813 47.5384 55.7813 47.0688C55.7813 46.5991 55.5947 46.1487 55.2626 45.8166C54.9305 45.4845 54.4801 45.2979 54.0104 45.2979H11.5104C11.0408 45.2979 10.5903 45.4845 10.2582 45.8166C9.92615 46.1487 9.73958 46.5991 9.73958 47.0688C9.73958 47.5384 9.92615 47.9888 10.2582 48.3209C10.5903 48.653 11.0408 48.8396 11.5104 48.8396ZM11.5104 21.3917H54.0104C54.4801 21.3917 54.9305 21.2051 55.2626 20.873C55.5947 20.5409 55.7813 20.0905 55.7813 19.6208C55.7813 19.1512 55.5947 18.7008 55.2626 18.3687C54.9305 18.0366 54.4801 17.85 54.0104 17.85H11.5104C11.0408 17.85 10.5903 18.0366 10.2582 18.3687C9.92615 18.7008 9.73958 19.1512 9.73958 19.6208C9.73958 20.0905 9.92615 20.5409 10.2582 20.873C10.5903 21.2051 11.0408 21.3917 11.5104 21.3917ZM11.5104 30.5469H54.0104C54.4801 30.5469 54.9305 30.3603 55.2626 30.0282C55.5947 29.6961 55.7813 29.2457 55.7813 28.776C55.7813 28.3064 55.5947 27.856 55.2626 27.5239C54.9305 27.1918 54.4801 27.0052 54.0104 27.0052H11.5104C11.0408 27.0052 10.5903 27.1918 10.2582 27.5239C9.92615 27.856 9.73958 28.3064 9.73958 28.776C9.73958 29.2457 9.92615 29.6961 10.2582 30.0282C10.5903 30.3603 11.0408 30.5469 11.5104 30.5469ZM11.5104 39.7021H54.0104C54.4801 39.7021 54.9305 39.5155 55.2626 39.1834C55.5947 38.8513 55.7813 38.4009 55.7813 37.9312C55.7813 37.4616 55.5947 37.0112 55.2626 36.6791C54.9305 36.347 54.4801 36.1604 54.0104 36.1604H11.5104C11.0408 36.1604 10.5903 36.347 10.2582 36.6791C9.92615 37.0112 9.73958 37.4616 9.73958 37.9312C9.73958 38.4009 9.92615 38.8513 10.2582 39.1834C10.5903 39.5155 11.0408 39.7021 11.5104 39.7021ZM11.5104 57.9948H54.0104C54.4801 57.9948 54.9305 57.8082 55.2626 57.4761C55.5947 57.144 55.7813 56.6936 55.7813 56.224C55.7813 55.7543 55.5947 55.3039 55.2626 54.9718C54.9305 54.6397 54.4801 54.4531 54.0104 54.4531H11.5104C11.0408 54.4531 10.5903 54.6397 10.2582 54.9718C9.92615 55.3039 9.73958 55.7543 9.73958 56.224C9.73958 56.6936 9.92615 57.144 10.2582 57.4761C10.5903 57.8082 11.0408 57.9948 11.5104 57.9948Z" fill="#0045A0"/>
<path d="M63.75 0H1.77083C1.30118 0 0.850759 0.186568 0.518664 0.518664C0.186568 0.850759 0 1.30118 0 1.77083V83.2292C0 83.6988 0.186568 84.1492 0.518664 84.4813C0.850759 84.8134 1.30118 85 1.77083 85H37.1875C44.702 85 51.9087 82.0149 57.2222 76.7014C62.5357 71.3878 65.5208 64.1811 65.5208 56.6667V1.77083C65.5208 1.30118 65.3343 0.850759 65.0022 0.518664C64.6701 0.186568 64.2197 0 63.75 0ZM3.54167 3.54167H61.9792V56.6667C61.969 57.9002 61.8684 59.1312 61.6781 60.35H39.2417C38.8488 60.3332 38.4615 60.4477 38.1409 60.6753C37.8203 60.903 37.5845 61.2309 37.4708 61.6073L36.851 63.6083H11.5104C11.0408 63.6083 10.5903 63.7949 10.2582 64.127C9.92615 64.4591 9.73958 64.9095 9.73958 65.3792C9.73958 65.8488 9.92615 66.2992 10.2582 66.6313C10.5903 66.9634 11.0408 67.15 11.5104 67.15H35.8948L31.3969 81.4583H3.54167V3.54167ZM37.1875 81.4583H35.0979L40.5344 63.8917H60.899C59.3506 68.974 56.2106 73.4244 51.9415 76.5871C47.6725 79.7498 42.5004 81.4575 37.1875 81.4583ZM11.5104 48.8396H54.0104C54.4801 48.8396 54.9305 48.653 55.2626 48.3209C55.5947 47.9888 55.7813 47.5384 55.7813 47.0688C55.7813 46.5991 55.5947 46.1487 55.2626 45.8166C54.9305 45.4845 54.4801 45.2979 54.0104 45.2979H11.5104C11.0408 45.2979 10.5903 45.4845 10.2582 45.8166C9.92615 46.1487 9.73958 46.5991 9.73958 47.0688C9.73958 47.5384 9.92615 47.9888 10.2582 48.3209C10.5903 48.653 11.0408 48.8396 11.5104 48.8396ZM11.5104 21.3917H54.0104C54.4801 21.3917 54.9305 21.2051 55.2626 20.873C55.5947 20.5409 55.7813 20.0905 55.7813 19.6208C55.7813 19.1512 55.5947 18.7008 55.2626 18.3687C54.9305 18.0366 54.4801 17.85 54.0104 17.85H11.5104C11.0408 17.85 10.5903 18.0366 10.2582 18.3687C9.92615 18.7008 9.73958 19.1512 9.73958 19.6208C9.73958 20.0905 9.92615 20.5409 10.2582 20.873C10.5903 21.2051 11.0408 21.3917 11.5104 21.3917ZM11.5104 30.5469H54.0104C54.4801 30.5469 54.9305 30.3603 55.2626 30.0282C55.5947 29.6961 55.7813 29.2457 55.7813 28.776C55.7813 28.3064 55.5947 27.856 55.2626 27.5239C54.9305 27.1918 54.4801 27.0052 54.0104 27.0052H11.5104C11.0408 27.0052 10.5903 27.1918 10.2582 27.5239C9.92615 27.856 9.73958 28.3064 9.73958 28.776C9.73958 29.2457 9.92615 29.6961 10.2582 30.0282C10.5903 30.3603 11.0408 30.5469 11.5104 30.5469ZM11.5104 39.7021H54.0104C54.4801 39.7021 54.9305 39.5155 55.2626 39.1834C55.5947 38.8513 55.7813 38.4009 55.7813 37.9312C55.7813 37.4616 55.5947 37.0112 55.2626 36.6791C54.9305 36.347 54.4801 36.1604 54.0104 36.1604H11.5104C11.0408 36.1604 10.5903 36.347 10.2582 36.6791C9.92615 37.0112 9.73958 37.4616 9.73958 37.9312C9.73958 38.4009 9.92615 38.8513 10.2582 39.1834C10.5903 39.5155 11.0408 39.7021 11.5104 39.7021ZM11.5104 57.9948H54.0104C54.4801 57.9948 54.9305 57.8082 55.2626 57.4761C55.5947 57.144 55.7813 56.6936 55.7813 56.224C55.7813 55.7543 55.5947 55.3039 55.2626 54.9718C54.9305 54.6397 54.4801 54.4531 54.0104 54.4531H11.5104C11.0408 54.4531 10.5903 54.6397 10.2582 54.9718C9.92615 55.3039 9.73958 55.7543 9.73958 56.224C9.73958 56.6936 9.92615 57.144 10.2582 57.4761C10.5903 57.8082 11.0408 57.9948 11.5104 57.9948Z" fill="url(#paint0_linear)"/>
<defs>
<linearGradient id="paint0_linear" x1="0" y1="0" x2="85.7698" y2="33.1102" gradientUnits="userSpaceOnUse">
<stop stop-color="#FF6262"/>
<stop offset="1" stop-color="#FF6262" stop-opacity="0"/>
</linearGradient>
</defs>
</svg>
