<svg width="60" height="60" viewBox="0 0 60 60" fill="none" xmlns="http://www.w3.org/2000/svg">
<path d="M30 60C46.5685 60 60 46.5685 60 30C60 13.4315 46.5685 0 30 0C13.4315 0 0 13.4315 0 30C0 46.5685 13.4315 60 30 60Z" fill="white"/>
<path d="M17 13V47H36.697V41.4651C36.7009 41.0798 37.0579 40.6788 37.4848 40.6744H43V13H17ZM34.2595 16.9535C34.5759 16.9191 34.904 17.0884 35.0473 17.3735C35.1907 17.6587 35.1399 18.0405 34.9242 18.2755L29.4091 24.601C29.1508 24.8937 28.6635 24.9449 28.3504 24.7122L25.1989 22.3401C24.8615 22.0964 24.7797 21.5638 25.0265 21.2282C25.2733 20.8925 25.8029 20.816 26.1345 21.0676L28.7074 23.0073L33.7424 17.2253C33.8722 17.0734 34.0612 16.9741 34.2595 16.9535ZM21.7273 28.8263H38.2727C38.7079 28.8263 39.0606 29.1803 39.0606 29.617C39.0606 30.0537 38.7079 30.4077 38.2727 30.4077H21.7273C21.2921 30.4077 20.9394 30.0537 20.9394 29.617C20.9394 29.1803 21.2921 28.8263 21.7273 28.8263ZM21.7273 35.1519H38.2727C38.7079 35.1519 39.0606 35.5059 39.0606 35.9426C39.0606 36.3793 38.7079 36.7333 38.2727 36.7333H21.7273C21.2921 36.7333 20.9394 36.3793 20.9394 35.9426C20.9394 35.5059 21.2921 35.1519 21.7273 35.1519ZM21.7273 41.4775H34.3333C34.7685 41.4775 35.1212 41.8315 35.1212 42.2682C35.1212 42.7049 34.7685 43.0589 34.3333 43.0589H21.7273C21.2921 43.0589 20.9394 42.7049 20.9394 42.2682C20.9394 41.8315 21.2921 41.4775 21.7273 41.4775ZM38.2727 42.2558V46.2093L42.2121 42.2558H38.2727Z" fill="#0045A0"/>
</svg>
