<svg width="60" height="60" viewBox="0 0 60 60" fill="none" xmlns="http://www.w3.org/2000/svg">
<circle opacity="0.15" cx="30" cy="30" r="30" fill="white"/>
<path d="M43 22.7065V21.6532C43 20.2162 41.8355 19.0474 40.4042 19.0474H40.2482V17.7514C40.2482 16.7854 39.4659 16 38.504 16H38.374C37.4124 16 36.6298 16.7854 36.6298 17.7511V19.0471H31.8093V17.7511C31.8093 16.7854 31.0267 16 30.0648 16H29.9352C28.9733 16 28.1907 16.7854 28.1907 17.7511V19.0471H23.3702V17.7511C23.3702 16.7854 22.5879 16 21.626 16H21.4963C20.5344 16 19.7518 16.7854 19.7518 17.7511V19.0471H19.5958C18.1645 19.0471 17 20.2162 17 21.6529V22.7062L43 22.7065Z" fill="white"/>
<path d="M17 23.935V40.3942C17 41.8309 18.1645 43 19.5958 43H40.4042C41.8355 43 43 41.8309 43 40.3942V23.935H17ZM20.9755 29.7865V26.5447H25.9723V29.7865H20.9755ZM20.9755 34.5643V31.3222H25.9723V34.564L20.9755 34.5643ZM20.9755 39.3418V36.0997H25.9723V39.3415L20.9755 39.3418ZM27.5019 29.7865V26.5447H32.4984V29.7865H27.5019ZM27.5019 34.5643V31.3222H32.4984V34.564L27.5019 34.5643ZM27.5019 39.3418V36.0997H32.4984V39.3415L27.5019 39.3418ZM34.028 29.7865V26.5447H39.0245V29.7865H34.028ZM34.028 34.5643V31.3222H39.0245V34.564L34.028 34.5643Z" fill="white"/>
</svg>
