<svg width="60" height="60" viewBox="0 0 60 60" fill="none" xmlns="http://www.w3.org/2000/svg">
<circle cx="30" cy="30" r="30" fill="white"/>
<path d="M43 22.76V21.6983C43 20.2499 41.8355 19.0717 40.4042 19.0717H40.2482V17.7654C40.2482 16.7917 39.4659 16 38.504 16H38.374C37.4124 16 36.6298 16.7917 36.6298 17.7651V19.0714H31.8093V17.7651C31.8093 16.7917 31.0267 16 30.0648 16H29.9352C28.9733 16 28.1907 16.7917 28.1907 17.7651V19.0714H23.3702V17.7651C23.3702 16.7917 22.5879 16 21.626 16H21.4963C20.5344 16 19.7518 16.7917 19.7518 17.7651V19.0714H19.5958C18.1645 19.0714 17 20.2499 17 21.698V22.7597L43 22.76Z" fill="#0045A0"/>
<path d="M17 23.9983V40.5889C17 42.0371 18.1645 43.2155 19.5958 43.2155H40.4042C41.8355 43.2155 43 42.0371 43 40.5889V23.9983H17ZM20.9755 29.8965V26.6289H25.9723V29.8965H20.9755ZM20.9755 34.7125V31.4445H25.9723V34.7122L20.9755 34.7125ZM20.9755 39.5281V36.2601H25.9723V39.5278L20.9755 39.5281ZM27.5019 29.8965V26.6289H32.4984V29.8965H27.5019ZM27.5019 34.7125V31.4445H32.4984V34.7122L27.5019 34.7125ZM27.5019 39.5281V36.2601H32.4984V39.5278L27.5019 39.5281ZM34.028 29.8965V26.6289H39.0245V29.8965H34.028ZM34.028 34.7125V31.4445H39.0245V34.7122L34.028 34.7125Z" fill="#0045A0"/>
</svg>
