<svg width="91" height="70" viewBox="0 0 91 70" fill="none" xmlns="http://www.w3.org/2000/svg">
<path d="M66.1971 69.599C64.9957 69.5971 63.8439 69.119 62.9944 68.2695C62.1449 67.42 61.6669 66.2684 61.6651 65.067V60.146H28.7481V65.067C28.7462 66.2684 28.268 67.42 27.4185 68.2695C26.569 69.119 25.4175 69.5971 24.2161 69.599H14.7071C13.5059 69.5966 12.3546 69.1183 11.5054 68.2689C10.6562 67.4195 10.1782 66.2682 10.1761 65.067V59.9139C8.8174 59.5521 7.61571 58.753 6.75662 57.64C5.89754 56.527 5.4287 55.162 5.42288 53.756L3.84402 34.707C3.84469 33.4665 4.20026 32.252 4.86893 31.207C2.27593 30.214 0.632997 27.691 0.240997 23.931C0.165483 23.543 0.173831 23.1431 0.265411 22.7585C0.356991 22.3739 0.529694 22.0133 0.772003 21.7009C1.06791 21.4201 1.41969 21.2048 1.80447 21.0692C2.18926 20.9336 2.59829 20.8807 3.00491 20.9139H11.9119L12.0491 20.7C18.7591 7.08895 22.523 0 28.313 0H62.1011C67.8901 0 71.6551 7.09303 78.3531 20.686L78.4671 20.918H87.409C87.8156 20.8847 88.2246 20.9376 88.6094 21.0732C88.9942 21.2089 89.346 21.4241 89.6419 21.705C89.8832 22.0152 90.0559 22.3733 90.148 22.7554C90.2401 23.1375 90.2496 23.5349 90.1761 23.921C89.7841 27.687 88.138 30.215 85.553 31.208C86.2118 32.2168 86.5674 33.3933 86.5779 34.598L84.99 53.8729C84.9715 55.2645 84.4963 56.6114 83.6375 57.7065C82.7787 58.8016 81.5841 59.5842 80.2371 59.934V65.073C80.235 66.2741 79.7567 67.4255 78.9075 68.2749C78.0583 69.1243 76.9072 69.6026 75.7061 69.605L66.1971 69.599ZM64.397 65.067C64.397 65.5444 64.5865 66.0022 64.9241 66.3397C65.2617 66.6773 65.7197 66.8669 66.1971 66.8669H75.7061C76.1836 66.8659 76.6411 66.6761 76.9793 66.3389C77.3174 66.0017 77.5086 65.5445 77.511 65.067V60.146H64.3941L64.397 65.067ZM12.908 65.067C12.908 65.5444 13.0975 66.0022 13.4351 66.3397C13.7727 66.6773 14.2306 66.8669 14.708 66.8669H24.219C24.6964 66.8669 25.1542 66.6773 25.4917 66.3397C25.8293 66.0022 26.0191 65.5444 26.0191 65.067V60.146H12.9009L12.908 65.067ZM8.7449 31.052C8.63668 31.2222 8.492 31.366 8.32108 31.473C7.78813 31.8004 7.34783 32.2588 7.04251 32.8047C6.73719 33.3505 6.57691 33.9655 6.57693 34.5909L8.15311 53.64C8.13606 54.5962 8.48721 55.5223 9.13406 56.2267C9.78092 56.9311 10.6738 57.3597 11.628 57.424L78.8279 57.418C79.7577 57.3541 80.6289 56.9409 81.2666 56.2612C81.9043 55.5816 82.2613 54.686 82.2659 53.754L83.857 34.48C83.8393 33.8723 83.6695 33.2788 83.3631 32.7538C83.0566 32.2288 82.6235 31.7891 82.1031 31.475C81.9327 31.3672 81.788 31.2235 81.679 31.054L78.5 26.002H12.012L8.7449 31.052ZM83.5281 28.895C85.7951 28.622 87.1279 26.8719 87.4649 23.6439C87.4649 23.6209 87.4359 23.6379 87.4129 23.6379H80.1131L83.5281 28.895ZM2.95608 23.655C3.29309 26.866 4.61899 28.617 6.88699 28.895L10.1961 23.637H2.95608V23.655ZM14.5081 21.887L13.9881 22.947L13.7769 23.275H76.7891L75.9099 21.875C70.0569 10.006 66.2589 2.72498 62.1099 2.72498H28.3189C24.1599 2.71898 20.3619 9.99999 14.5039 21.886L14.5081 21.887ZM32.5369 53.0649C32.1743 53.0649 31.8267 52.9209 31.5703 52.6646C31.314 52.4082 31.17 52.0606 31.17 51.698V44.178C31.1701 43.9987 31.2056 43.8213 31.2744 43.6558C31.3433 43.4902 31.4441 43.3399 31.5711 43.2134C31.6981 43.0869 31.8487 42.9867 32.0144 42.9185C32.1802 42.8503 32.3577 42.8155 32.5369 42.816H57.8789C58.0583 42.8154 58.236 42.8501 58.4019 42.9182C58.5678 42.9864 58.7187 43.0865 58.8457 43.213C58.9728 43.3395 59.0735 43.4899 59.1424 43.6555C59.2112 43.8211 59.247 43.9986 59.2471 44.178V51.698C59.2468 52.0606 59.1025 52.4083 58.846 52.6647C58.5895 52.921 58.2416 53.0649 57.8789 53.0649H32.5369ZM33.9009 50.3359H56.521V45.536H33.9009V50.3359ZM66.9959 47.422C65.7941 47.4204 64.6421 46.9425 63.792 46.093C62.942 45.2435 62.4633 44.0918 62.461 42.89V41.104C62.4623 39.9019 62.9405 38.7495 63.7908 37.8998C64.6411 37.0501 65.7938 36.5726 66.9959 36.572H74.1231C75.3245 36.5739 76.476 37.0519 77.3255 37.9014C78.175 38.7509 78.6532 39.9026 78.6551 41.104V42.89C78.6527 44.0912 78.1744 45.2425 77.325 46.0919C76.4756 46.9413 75.3243 47.4196 74.1231 47.422H66.9959ZM65.19 41.104V42.89C65.1918 43.3679 65.383 43.8255 65.7215 44.1628C66.0599 44.5002 66.518 44.6897 66.9959 44.6899H74.1231C74.6005 44.6899 75.0582 44.5003 75.3958 44.1627C75.7333 43.8252 75.9229 43.3674 75.9229 42.89V41.104C75.9229 40.6266 75.7333 40.1687 75.3958 39.8312C75.0582 39.4936 74.6005 39.304 74.1231 39.304H66.9959C66.7587 39.3026 66.5237 39.3482 66.3042 39.438C66.0848 39.5278 65.8853 39.6601 65.7171 39.8273C65.5489 39.9944 65.4154 40.1932 65.3242 40.4121C65.2331 40.631 65.1862 40.8659 65.1861 41.103L65.19 41.104ZM16.2969 47.422C15.0956 47.4199 13.9442 46.9417 13.0948 46.0923C12.2453 45.2428 11.767 44.0913 11.7649 42.89V41.104C11.766 39.9024 12.2439 38.7502 13.0935 37.9005C13.9432 37.0508 15.0953 36.5731 16.2969 36.572H23.427C24.6286 36.5733 25.7805 37.0513 26.6302 37.9009C27.4798 38.7505 27.9577 39.9025 27.959 41.104V42.89C27.9572 44.0914 27.4792 45.243 26.6297 46.0925C25.7802 46.942 24.6284 47.4201 23.427 47.422H16.2969ZM14.4971 41.104V42.89C14.4971 43.3674 14.6866 43.8252 15.0242 44.1627C15.3618 44.5003 15.8195 44.6899 16.2969 44.6899H23.427C23.6634 44.6899 23.8974 44.6434 24.1158 44.553C24.3341 44.4625 24.5326 44.3299 24.6997 44.1627C24.8669 43.9956 24.9994 43.7972 25.0899 43.5789C25.1803 43.3605 25.2271 43.1264 25.2271 42.89V41.104C25.2271 40.8676 25.1803 40.6335 25.0899 40.4152C24.9994 40.1968 24.8669 39.9983 24.6997 39.8312C24.5326 39.664 24.3341 39.5315 24.1158 39.441C23.8974 39.3506 23.6634 39.304 23.427 39.304H16.2969C16.0599 39.3029 15.8252 39.3487 15.606 39.4386C15.3867 39.5285 15.1873 39.6609 15.0193 39.828C14.8513 39.9951 14.718 40.1938 14.627 40.4126C14.536 40.6314 14.4892 40.8661 14.489 41.103L14.4971 41.104Z" fill="url(#paint0_linear)"/>
<defs>
<linearGradient id="paint0_linear" x1="0.189941" y1="0" x2="95.5831" y2="61.7953" gradientUnits="userSpaceOnUse">
<stop stop-color="#FF6262"/>
<stop offset="1" stop-color="#0045A0"/>
</linearGradient>
</defs>
</svg>
