<svg width="100" height="71" viewBox="0 0 100 71" fill="none" xmlns="http://www.w3.org/2000/svg">
<path d="M48.3731 64.2755C48.2188 63.5432 48.1697 62.7926 48.2271 62.0465C48.3212 60.9088 48.6645 59.8057 49.2327 58.8156C49.8009 57.8255 50.5801 56.9726 51.5149 56.3175C51.0463 55.8907 50.6297 55.4101 50.274 54.8855C49.0798 53.1227 48.6347 50.9579 49.0364 48.867C49.4381 46.7761 50.6538 44.9304 52.4161 43.7356C51.0894 42.2622 50.3535 40.3509 50.3494 38.3683C50.3453 36.3856 51.0735 34.4713 52.3941 32.9925C50.8019 31.8626 49.5995 30.2665 48.9529 28.4243C48.3063 26.5821 48.2472 24.5846 48.784 22.7075C49.018 21.8978 49.3562 21.122 49.7901 20.3995C49.9621 20.1145 50.1069 19.8994 50.2549 19.6884C50.945 18.73 51.8195 17.9188 52.8269 17.3025C54.101 16.5016 55.5485 16.0178 57.0481 15.8914C58.5477 15.7651 60.056 16 61.4461 16.5765C61.8906 14.8208 62.8425 13.235 64.1829 12.0171C65.5233 10.7992 67.1928 10.0032 68.9829 9.72848C70.1241 9.54204 71.2911 9.58593 72.4151 9.85751C74.2247 10.276 75.8655 11.2311 77.1231 12.5979C78.3807 13.9647 79.1963 15.6795 79.4629 17.5175C80.1214 16.9868 80.85 16.5493 81.628 16.2175C82.433 15.1095 86.2519 9.48953 85.0359 4.05453C84.478 4.11566 83.9173 4.14672 83.356 4.14755C81.3336 4.13854 79.3297 3.76201 77.4419 3.03646C77.2799 2.97526 77.1321 2.88169 77.0076 2.76132C76.8831 2.64094 76.7847 2.49636 76.7181 2.33651C76.6519 2.17581 76.619 2.00333 76.6214 1.82955C76.6238 1.65578 76.6614 1.48434 76.732 1.32553C76.8511 1.05879 77.068 0.847796 77.3379 0.736171C77.6079 0.624546 77.9102 0.620811 78.1829 0.725551C80.0169 1.46992 81.9912 1.80481 83.9681 1.70687C85.9449 1.60894 87.8766 1.08053 89.628 0.158534C89.9097 0.00722359 90.2365 -0.0377011 90.5486 0.0320696C90.8608 0.10184 91.1374 0.281652 91.3279 0.538539C91.4208 0.666902 91.4859 0.813316 91.5186 0.968349C91.5513 1.12338 91.5509 1.28348 91.5179 1.43844C91.4851 1.59183 91.4201 1.73651 91.3272 1.86288C91.2343 1.98925 91.1157 2.09446 90.979 2.17147C89.853 2.79683 88.6534 3.27956 87.408 3.60849C87.9776 6.74434 87.5755 9.97933 86.2559 12.8805C85.8826 13.7685 85.4559 14.633 84.9781 15.4694C85.0671 15.4694 85.153 15.4694 85.241 15.4694C87.4142 15.4794 89.5167 16.242 91.191 17.6275C91.8113 18.1347 92.3544 18.7296 92.803 19.3935C93.604 20.5517 94.1302 21.8773 94.3416 23.2695C94.553 24.6617 94.4441 26.0837 94.023 27.4275C94.5897 27.5475 95.1403 27.7336 95.6639 27.9815C96.687 28.4632 97.5891 29.1684 98.3033 30.0453C99.0174 30.9221 99.5255 31.948 99.7901 33.0475C100.257 34.9936 99.9317 37.0456 98.886 38.752C97.8404 40.4585 96.1599 41.6799 94.2139 42.1475C94.4313 43.5028 94.3507 44.8891 93.9778 46.21C93.605 47.531 92.9489 48.7549 92.055 49.7965C91.5401 50.4126 90.9393 50.9514 90.271 51.3965C88.6951 52.4731 86.8325 53.0531 84.9239 53.0615C84.7599 53.0615 84.5959 53.0616 84.4329 53.0485C84.4739 54.3242 84.2148 55.5915 83.6761 56.7485C83.0118 58.1829 81.9513 59.3974 80.6197 60.2491C79.288 61.1008 77.7407 61.5541 76.16 61.5555C75.1492 61.5555 74.1472 61.368 73.2049 61.0025C72.2488 62.4904 70.8321 63.6245 69.1709 64.2315C67.4028 64.8867 65.4629 64.9125 63.678 64.3045C63.4513 65.3702 63.0088 66.3781 62.378 67.2664C61.7773 68.1183 61.0072 68.837 60.116 69.3775C58.8797 70.1282 57.4623 70.5281 56.0159 70.5345C54.2153 70.5338 52.4705 69.91 51.0774 68.7691C49.6843 67.6283 48.7288 66.0406 48.3731 64.2755ZM50.8509 61.1395C50.8009 61.2985 50.7611 61.4595 50.7271 61.6235C50.5822 62.3371 50.5827 63.0726 50.7286 63.786C50.8744 64.4994 51.1626 65.176 51.576 65.7755C51.9795 66.3605 52.4944 66.8603 53.0911 67.2464C53.6878 67.6325 54.3547 67.8973 55.0537 68.0256C55.7528 68.1539 56.4701 68.1433 57.1651 67.9943C57.86 67.8454 58.519 67.5611 59.104 67.1576C59.6166 66.8135 60.0598 66.3762 60.4109 65.8685L60.43 65.8455C60.9958 65.0393 61.3343 64.0956 61.41 63.1135C59.9225 61.9957 58.8563 60.4082 58.3841 58.6085L58.367 58.5365C58.344 58.4565 58.324 58.3755 58.305 58.2945C57.8485 58.3771 57.3857 58.4199 56.9219 58.4225C55.8551 58.4154 54.8 58.1996 53.816 57.7874C53.1083 58.098 52.4765 58.5587 51.9644 59.1374C51.4523 59.7162 51.072 60.3993 50.8499 61.1395H50.8509ZM61.0511 54.1006C60.4842 55.339 60.3712 56.7373 60.732 58.0506C61.0927 59.3639 61.9041 60.5084 63.024 61.2835C64.2888 62.1583 65.8492 62.4949 67.3621 62.2194C68.875 61.944 70.2168 61.0789 71.0921 59.8145C69.8411 58.838 68.8975 57.5221 68.3741 56.0239C67.8506 54.5257 67.7693 52.9085 68.1399 51.3654C67.2693 51.291 66.4139 51.0921 65.5999 50.7745C64.6251 50.9057 63.6988 51.2786 62.9048 51.8591C62.1109 52.4396 61.4746 53.2094 61.054 54.0985L61.0511 54.1006ZM70.7281 51.2105C70.6931 51.3025 70.66 51.3945 70.628 51.4875C70.3885 52.2145 70.2948 52.9816 70.3518 53.7448C70.4089 54.5081 70.6158 55.2526 70.9607 55.9359C71.3056 56.6192 71.7817 57.2279 72.3619 57.7271C72.942 58.2264 73.615 58.6064 74.3421 58.8455C75.1579 59.1135 76.0225 59.1992 76.875 59.0965C77.6367 59.0046 78.3728 58.7636 79.0413 58.3872C79.7098 58.0108 80.2977 57.5064 80.7713 56.9028C81.2449 56.2992 81.5948 55.6082 81.8013 54.8694C82.0079 54.1305 82.0668 53.3582 81.9749 52.5965C81.6285 52.4827 81.2891 52.3491 80.958 52.1965C78.9298 51.2611 77.2995 49.6359 76.3579 47.6106C74.9896 49.463 72.9855 50.7449 70.73 51.2105H70.7281ZM78.5279 58.6875L78.6099 58.6495L78.5279 58.6875ZM81.003 56.6695C81.038 56.6195 81.0681 56.5695 81.1031 56.5135C81.0671 56.5655 81.037 56.6195 81.003 56.6705V56.6695ZM51.8269 48.0385C51.3672 49.0382 51.2114 50.151 51.3789 51.2385C51.6056 52.7094 52.4071 54.0301 53.6072 54.9101C54.8074 55.7902 56.3079 56.1575 57.7788 55.9315C57.9048 55.9095 58.0251 55.8885 58.1341 55.8635C58.1491 55.6825 58.171 55.4955 58.199 55.3075C58.501 53.2774 59.5558 51.4354 61.1538 50.1475C61.6712 49.7295 62.2366 49.3747 62.8379 49.0905C62.5453 48.8218 62.2689 48.5359 62.01 48.2345C61.4483 47.5921 60.9771 46.8759 60.6099 46.1056C58.7633 46.6323 56.7891 46.48 55.045 45.6765C54.837 45.5765 54.6349 45.4764 54.4449 45.3654C53.2884 45.9264 52.3628 46.8717 51.826 48.0395L51.8269 48.0385ZM77.9051 44.1745V44.1934C78.0058 45.4328 78.4344 46.6232 79.1468 47.6424C79.8592 48.6616 80.8297 49.473 81.959 49.9935C83.6476 50.7712 85.5759 50.8464 87.3199 50.2026C89.0639 49.5588 90.4808 48.2488 91.2591 46.5605C92.037 44.872 92.1124 42.9436 91.4685 41.1996C90.8247 39.4555 89.5144 38.0385 87.826 37.2605C87.5449 37.1306 87.2553 37.0204 86.959 36.9305C86.0186 38.4018 84.6894 39.5842 83.1187 40.347C81.5479 41.1098 79.7967 41.4232 78.0589 41.2525C78.1649 42.2289 78.1123 43.216 77.9029 44.1755L77.9051 44.1745ZM64.1289 37.4295C63.6305 37.9218 63.2138 38.4902 62.8941 39.1135C62.379 40.1125 62.1217 41.2243 62.1458 42.348C62.1699 43.4717 62.4746 44.5715 63.032 45.5475L63.104 45.6635C63.5285 46.3858 64.0872 47.0203 64.75 47.5326C65.0516 47.7662 65.3711 47.9755 65.7058 48.1585C66.5859 48.6347 67.5607 48.9095 68.5599 48.9635C68.6729 48.9685 68.7878 48.9715 68.9038 48.9715C70.1544 48.9674 71.3801 48.621 72.4478 47.9701C73.5155 47.3191 74.3846 46.3883 74.961 45.2785C75.4758 44.2779 75.7319 43.1642 75.7061 42.0392C75.6802 40.9141 75.3733 39.8134 74.813 38.8375C74.1894 37.7301 73.26 36.8257 72.136 36.2325C71.257 35.7588 70.284 35.4856 69.2869 35.4325C69.1869 35.4325 69.0869 35.4275 68.9869 35.4275H68.97C68.0709 35.4267 67.1805 35.6033 66.3496 35.947C65.5188 36.2907 64.7638 36.7948 64.128 37.4305L64.1289 37.4295ZM53.2889 35.9935C52.7381 37.191 52.6244 38.5437 52.9671 39.8165C53.1597 40.5308 53.4911 41.2001 53.9424 41.7863C54.3937 42.3725 54.9559 42.864 55.5972 43.2329C56.2385 43.6017 56.9463 43.8407 57.68 43.936C58.4136 44.0313 59.1588 43.9812 59.8731 43.7885C59.545 41.9486 59.7892 40.0523 60.573 38.3556C61.1092 37.1984 61.8797 36.1652 62.836 35.3215C62.5372 35.2199 62.2439 35.1031 61.9571 34.9715C61.5281 34.7725 61.114 34.5429 60.7181 34.2845C58.7356 34.9281 56.5942 34.8855 54.639 34.1635C54.0708 34.679 53.6113 35.3029 53.2879 35.9985L53.2889 35.9935ZM88.337 33.3215C88.2627 33.7958 88.1527 34.2638 88.0079 34.7215C88.3129 34.8275 88.5949 34.9425 88.8479 35.0595C90.9399 36.0215 92.6065 37.7172 93.532 39.8255C94.4813 39.6145 95.3521 39.1407 96.045 38.4583C96.7378 37.776 97.2246 36.9125 97.45 35.9665C97.7138 34.7958 97.5615 33.5698 97.0193 32.4992C96.4771 31.4287 95.5789 30.5805 94.479 30.1006C93.9914 29.8902 93.4736 29.7575 92.9449 29.7075C91.843 31.3821 90.2249 32.6514 88.336 33.3225L88.337 33.3215ZM79.6609 38.8845C79.8189 38.8705 79.9729 38.8425 80.1299 38.8165C79.9719 38.8425 79.8179 38.8705 79.66 38.8855L79.6609 38.8845ZM76.5821 25.2845C74.9509 25.8861 73.602 27.0731 72.7979 28.6146C71.9938 30.156 71.792 31.9415 72.232 33.6235C72.426 33.6975 72.6039 33.7715 72.7679 33.8465C74.8727 34.8141 76.5335 36.5426 77.4161 38.6845C78.757 39.0003 80.1612 38.9133 81.4529 38.4345C83.1945 37.789 84.6086 36.4785 85.3843 34.7909C86.1601 33.1032 86.234 31.1767 85.5899 29.4345C85.0929 28.0899 84.1961 26.9298 83.0198 26.1104C81.8436 25.2911 80.4445 24.8517 79.011 24.8515C78.1818 24.8505 77.3589 24.9967 76.5808 25.2835L76.5821 25.2845ZM81.8079 38.3315C81.9529 38.2695 82.0971 38.2095 82.2381 38.1375C82.0971 38.2075 81.952 38.2676 81.803 38.3296L81.8079 38.3315ZM63.471 19.8235C61.945 20.3809 60.6628 21.4561 59.8479 22.8615C59.492 23.4804 59.2271 24.1472 59.0611 24.8415C58.9962 25.1052 58.9457 25.3722 58.91 25.6414C58.8667 25.9649 58.8539 26.2917 58.8719 26.6175C58.9175 27.9231 59.3251 29.1902 60.0491 30.2776C60.7731 31.3649 61.7851 32.2298 62.972 32.7755C63.181 32.8695 63.3979 32.9495 63.5999 33.0185C64.3077 33.2648 65.0508 33.3951 65.8001 33.4045H65.9461C66.0601 33.4045 66.168 33.4045 66.284 33.4045C66.9059 33.2117 67.5472 33.0877 68.1961 33.0345C68.6858 32.8629 69.1552 32.6382 69.596 32.3645C69.5154 30.835 69.8078 29.3088 70.448 27.9174C70.9885 26.7385 71.7691 25.6854 72.74 24.8255C72.4961 23.7831 72.0182 22.8099 71.3426 21.9795C70.6669 21.1491 69.8109 20.4833 68.8399 20.0326C67.9223 19.6064 66.9227 19.3858 65.9109 19.3864C65.0779 19.3864 64.2515 19.534 63.47 19.8225L63.471 19.8235ZM52.585 20.6685C52.0514 21.2803 51.6268 21.979 51.3299 22.7345C51.1016 23.315 50.9445 23.9212 50.8619 24.5395C50.8197 24.8634 50.8066 25.1902 50.8221 25.5164C50.8271 25.6534 50.8359 25.7905 50.8489 25.9255C51.0237 27.7857 51.9305 29.5003 53.3694 30.6921C54.8084 31.8839 56.6618 32.4552 58.522 32.2805C57.3276 30.7694 56.6141 28.9346 56.4739 27.0135C56.4144 26.2607 56.4558 25.5033 56.597 24.7614C56.6677 24.398 56.7585 24.0389 56.8689 23.6855C57.0849 22.985 57.38 22.3113 57.7481 21.6775C58.4059 20.5268 59.3018 19.5299 60.376 18.7535C59.5715 18.4428 58.7165 18.2835 57.854 18.2835C56.8566 18.2831 55.8705 18.4955 54.9617 18.9066C54.0529 19.3177 53.2423 19.918 52.584 20.6674L52.585 20.6685ZM82.959 23.2924C84.0854 23.8084 85.0982 24.5424 85.9392 25.4521C86.7803 26.3618 87.4328 27.4292 87.8589 28.5925C88.1071 29.2657 88.2785 29.9648 88.3699 30.6765C88.7477 30.4802 89.1064 30.2489 89.441 29.9856C90.1418 29.4341 90.7271 28.7499 91.1636 27.9723C91.6001 27.1946 91.8791 26.3385 91.9847 25.453C92.0902 24.5674 92.0205 23.6699 91.7791 22.8114C91.5377 21.9529 91.1295 21.1503 90.5779 20.4496C90.3643 20.1661 90.1225 19.905 89.856 19.6705C88.9331 18.8278 87.7963 18.2549 86.5699 18.0147C85.3434 17.7745 84.0745 17.8762 82.9019 18.3086C82.0675 18.616 81.3024 19.0853 80.6502 19.6898C79.998 20.2942 79.4719 21.0219 79.1021 21.8305C79.0181 22.0145 78.9389 22.2115 78.8619 22.4305H79.0179C80.3777 22.4322 81.7215 22.7258 82.958 23.2915L82.959 23.2924ZM74.846 23.4045C75.1104 23.273 75.3814 23.1551 75.658 23.0515C75.9985 22.6233 76.287 22.1564 76.5179 21.6605C77.0039 20.5981 77.2092 19.4287 77.1136 18.2642C77.018 17.0998 76.6248 15.9794 75.972 15.0105C75.6144 14.4658 75.1717 13.982 74.6609 13.5775C73.7429 12.8351 72.6483 12.343 71.4837 12.1491C70.319 11.9553 69.1239 12.0664 68.0149 12.4715C67.1815 12.7782 66.417 13.2464 65.7649 13.8492C65.1128 14.452 64.586 15.1777 64.2149 15.9845L64.209 15.9965C64.0318 16.3861 63.8919 16.7915 63.7911 17.2075C64.4851 17.0477 65.1949 16.9669 65.907 16.9665C67.8827 16.9677 69.8083 17.5891 71.4119 18.7431C73.0155 19.8971 74.2163 21.5255 74.845 23.3985L74.846 23.4045ZM57.825 15.9665H57.909C57.89 15.9665 57.873 15.9665 57.855 15.9665H57.825ZM37.303 62.8985C35.0591 63.9869 32.6027 64.5673 30.1089 64.5985C25.3089 64.5985 19.668 61.3185 15.75 56.2454C13.135 52.8624 11.3379 47.8615 10.6849 42.1635C10.0772 37.2542 10.4336 32.2733 11.7339 27.5005L11.534 27.4315C11.434 27.3975 11.3339 27.3615 11.2339 27.3205C8.58654 26.2064 6.21511 24.5265 4.28568 22.3988C2.35626 20.271 0.915623 17.7469 0.0649798 15.0035C0.0231149 14.8742 0.00125506 14.7393 3.84053e-05 14.6035C-0.00262563 14.254 0.133401 13.9177 0.378456 13.6685C0.623512 13.4194 0.957447 13.2777 1.30692 13.2745C4.44163 13.1217 7.55171 12.6403 10.586 11.8385H10.6031C13.9472 10.9528 17.379 10.44 20.836 10.3095H21.0279C24.1266 10.3551 27.1691 11.1437 29.8997 12.6092C32.6303 14.0747 34.9693 16.1744 36.72 18.7315C38.298 13.9775 42.526 10.5055 48.054 9.43148C48.2226 9.39771 48.3963 9.39799 48.5647 9.43234C48.7332 9.46669 48.893 9.53448 49.035 9.63156C49.1809 9.72857 49.3059 9.8538 49.4026 9.99996C49.4993 10.1461 49.5657 10.3102 49.5979 10.4825C49.6626 10.8244 49.5888 11.1779 49.3929 11.4654C49.1969 11.7529 48.8949 11.9507 48.553 12.0155C46.453 12.4235 39.5529 14.3415 38.7029 21.9395C41.6806 21.0947 44.7327 20.5382 47.8169 20.2776L48.262 20.2535L48.033 20.6355C47.6187 21.3216 47.2957 22.0588 47.0721 22.8285L47.0288 22.9835L46.8689 22.9995C44.1598 23.3368 41.4802 23.8791 38.8531 24.6215L38.3289 24.7555C37.6325 24.9349 36.9007 24.9239 36.21 24.7235L35.701 24.5755C31.3895 27.6584 26.212 29.2957 20.9119 29.2525C18.652 29.2493 16.4028 28.9419 14.2249 28.3385C13.0753 32.7581 12.7848 37.3573 13.3689 41.8864C13.9789 47.1734 15.5629 51.7005 17.8269 54.6305C20.4389 58.0125 25.221 61.9605 30.105 61.9605C32.409 61.9191 34.6704 61.3336 36.7049 60.2516C36.8897 60.1614 37.0927 60.1145 37.2984 60.1145C37.504 60.1145 37.707 60.1614 37.8919 60.2516C39.9266 61.3327 42.1882 61.9175 44.492 61.9585C45.0856 61.9583 45.6783 61.9125 46.2649 61.8215L46.565 61.7785L46.5401 62.0785C46.4848 62.7814 46.5309 63.4887 46.677 64.1786L46.73 64.4265L46.4771 64.4605C45.8205 64.5501 45.1585 64.5962 44.4959 64.5985C42.0024 64.5676 39.5465 63.9872 37.303 62.8985ZM11.222 14.3985C8.58137 15.06 5.89786 15.5365 3.19096 15.8245C4.3011 18.384 6.00488 20.6423 8.16117 22.4126C10.3175 24.1828 12.8642 25.4141 15.5909 26.0045C18.9176 26.8063 22.3819 26.8508 25.7281 26.1346C29.0742 25.4184 32.2168 23.9598 34.9239 21.8665C34.6299 21.6985 34.3009 21.5225 33.9239 21.3315L33.906 21.3235C30.481 19.5995 30.4809 19.5965 26.4869 19.8465L25.826 19.8875C24.6863 19.9551 23.5513 20.0856 22.4261 20.2785C22.2542 20.3081 22.0782 20.3032 21.9082 20.2642C21.7383 20.2253 21.5778 20.153 21.4361 20.0515C21.1529 19.8475 20.962 19.5395 20.9058 19.195C20.8496 18.8506 20.9324 18.4979 21.136 18.2144C21.2353 18.0743 21.3613 17.9552 21.5069 17.8641C21.6524 17.773 21.8145 17.7117 21.9839 17.6836C22.5359 17.5896 23.0459 17.4995 23.5249 17.4145C26.8499 16.8235 28.715 16.4904 32.574 17.8864C31.0726 16.3349 29.2767 15.0984 27.2915 14.2494C25.3064 13.4003 23.172 12.9556 21.013 12.9415H20.836C17.5879 13.077 14.3643 13.5656 11.222 14.3985Z" fill="url(#paint0_linear)"/>
<defs>
<linearGradient id="paint0_linear" x1="0" y1="0" x2="100" y2="71" gradientUnits="userSpaceOnUse">
<stop stop-color="#FF6262"/>
<stop offset="1" stop-color="#0045A0"/>
</linearGradient>
</defs>
</svg>
