<svg width="85" height="79" viewBox="0 0 85 79" fill="none" xmlns="http://www.w3.org/2000/svg">
<path d="M54.0172 41.5466V49.7724C54.0172 50.1401 54.1624 50.4913 54.4223 50.7498L58.8214 55.1489C59.0909 55.4184 59.4449 55.5539 59.7988 55.5539C60.1527 55.5539 60.5066 55.4184 60.7762 55.1489L78.3738 37.5527C78.6337 37.2927 78.7788 36.943 78.7788 36.5752C78.7788 36.2075 78.6337 35.8564 78.3738 35.5978L73.9747 31.1974C73.7148 30.9375 73.3637 30.7923 72.9973 30.7923H64.7702L47.9869 14.0076V5.78188C47.9869 5.41414 47.8417 5.06299 47.5818 4.80446L43.18 0.405412C42.6394 -0.135137 41.7657 -0.135137 41.2252 0.405412L23.6303 18.0016C23.0898 18.5422 23.0898 19.4159 23.6303 19.9564L28.0294 24.3555C28.2893 24.6154 28.6404 24.7606 29.0068 24.7606H37.2312L40.2477 27.7771L0.405067 67.6185C0.145161 67.8784 0 68.2295 0 68.5959C0 68.9622 0.145161 69.3147 0.405067 69.5733L9.20455 78.3714C9.47413 78.641 9.82805 78.7764 10.182 78.7764C10.5359 78.7764 10.8898 78.641 11.1594 78.3714L51.002 38.5301L54.0172 41.5466ZM75.4415 36.5752L59.7988 52.2166L57.3545 49.7724L72.9959 34.131L75.4415 36.5752ZM26.5626 18.9804L42.2026 3.33765L44.6496 5.78188L29.0068 21.4233L26.5626 18.9804ZM38.7809 22.4007C38.521 22.1408 38.1713 21.9956 37.8035 21.9956H32.3441L45.2205 9.11919V14.58C45.2205 14.9477 45.3657 15.2989 45.6256 15.5574L63.219 33.1522C63.4789 33.4121 63.8301 33.5573 64.1964 33.5573H69.6586L56.7822 46.4337V40.9729C56.7822 40.6052 56.637 40.254 56.3771 39.9955L38.7809 22.4007ZM10.182 75.4405L3.33731 68.5972L10.182 61.754L17.0252 68.5986L10.182 75.4405ZM18.9801 66.6424L12.1368 59.7978L42.2012 29.732L49.0458 36.5752L18.9801 66.6424Z" fill="#0045A0"/>
<path d="M54.0172 41.5466V49.7724C54.0172 50.1401 54.1624 50.4913 54.4223 50.7498L58.8214 55.1489C59.0909 55.4184 59.4449 55.5539 59.7988 55.5539C60.1527 55.5539 60.5066 55.4184 60.7762 55.1489L78.3738 37.5527C78.6337 37.2927 78.7788 36.943 78.7788 36.5752C78.7788 36.2075 78.6337 35.8564 78.3738 35.5978L73.9747 31.1974C73.7148 30.9375 73.3637 30.7923 72.9973 30.7923H64.7702L47.9869 14.0076V5.78188C47.9869 5.41414 47.8417 5.06299 47.5818 4.80446L43.18 0.405412C42.6394 -0.135137 41.7657 -0.135137 41.2252 0.405412L23.6303 18.0016C23.0898 18.5422 23.0898 19.4159 23.6303 19.9564L28.0294 24.3555C28.2893 24.6154 28.6404 24.7606 29.0068 24.7606H37.2312L40.2477 27.7771L0.405067 67.6185C0.145161 67.8784 0 68.2295 0 68.5959C0 68.9622 0.145161 69.3147 0.405067 69.5733L9.20455 78.3714C9.47413 78.641 9.82805 78.7764 10.182 78.7764C10.5359 78.7764 10.8898 78.641 11.1594 78.3714L51.002 38.5301L54.0172 41.5466ZM75.4415 36.5752L59.7988 52.2166L57.3545 49.7724L72.9959 34.131L75.4415 36.5752ZM26.5626 18.9804L42.2026 3.33765L44.6496 5.78188L29.0068 21.4233L26.5626 18.9804ZM38.7809 22.4007C38.521 22.1408 38.1713 21.9956 37.8035 21.9956H32.3441L45.2205 9.11919V14.58C45.2205 14.9477 45.3657 15.2989 45.6256 15.5574L63.219 33.1522C63.4789 33.4121 63.8301 33.5573 64.1964 33.5573H69.6586L56.7822 46.4337V40.9729C56.7822 40.6052 56.637 40.254 56.3771 39.9955L38.7809 22.4007ZM10.182 75.4405L3.33731 68.5972L10.182 61.754L17.0252 68.5986L10.182 75.4405ZM18.9801 66.6424L12.1368 59.7978L42.2012 29.732L49.0458 36.5752L18.9801 66.6424Z" fill="url(#paint0_linear)"/>
<path d="M84.5949 70.0005L78.3738 63.7793C78.1139 63.5194 77.7641 63.3742 77.3964 63.3742H52.5117C52.1454 63.3742 51.7928 63.5194 51.5343 63.7793L45.3159 69.9991L45.3131 70.0005C45.1846 70.129 45.085 70.2811 45.0159 70.4456C44.9482 70.6087 44.9081 70.7885 44.9081 70.9779V77.199C44.9081 77.9635 45.5274 78.5815 46.2906 78.5815H83.6175C84.382 78.5815 85 77.9635 85 77.199V70.9779C85 70.7926 84.9627 70.6115 84.8935 70.4456C84.8244 70.2811 84.7235 70.129 84.5949 70.0005ZM53.0841 66.1392H76.824L80.2802 69.5954H49.6279L53.0841 66.1392ZM82.235 75.8166H47.673V72.3604H82.235V75.8166Z" fill="#0045A0"/>
<path d="M84.5949 70.0005L78.3738 63.7793C78.1139 63.5194 77.7641 63.3742 77.3964 63.3742H52.5117C52.1454 63.3742 51.7928 63.5194 51.5343 63.7793L45.3159 69.9991L45.3131 70.0005C45.1846 70.129 45.085 70.2811 45.0159 70.4456C44.9482 70.6087 44.9081 70.7885 44.9081 70.9779V77.199C44.9081 77.9635 45.5274 78.5815 46.2906 78.5815H83.6175C84.382 78.5815 85 77.9635 85 77.199V70.9779C85 70.7926 84.9627 70.6115 84.8935 70.4456C84.8244 70.2811 84.7235 70.129 84.5949 70.0005ZM53.0841 66.1392H76.824L80.2802 69.5954H49.6279L53.0841 66.1392ZM82.235 75.8166H47.673V72.3604H82.235V75.8166Z" fill="url(#paint1_linear)"/>
<defs>
<linearGradient id="paint0_linear" x1="0" y1="0" x2="98.9558" y2="53.4725" gradientUnits="userSpaceOnUse">
<stop stop-color="#FF6262"/>
<stop offset="1" stop-color="#FF6262" stop-opacity="0"/>
</linearGradient>
<linearGradient id="paint1_linear" x1="0" y1="0" x2="98.9558" y2="53.4725" gradientUnits="userSpaceOnUse">
<stop stop-color="#FF6262"/>
<stop offset="1" stop-color="#FF6262" stop-opacity="0"/>
</linearGradient>
</defs>
</svg>
