<svg width="60" height="60" viewBox="0 0 60 60" fill="none" xmlns="http://www.w3.org/2000/svg">
<path d="M30 60C46.5685 60 60 46.5685 60 30C60 13.4315 46.5685 0 30 0C13.4315 0 0 13.4315 0 30C0 46.5685 13.4315 60 30 60Z" fill="white"/>
<path d="M42.4963 33.2338C41.9741 32.9758 41.2327 32.4058 39.7359 31.2412C38.329 30.1464 36.4029 28.6474 35.4776 28.2087C33.7779 27.4022 31.2154 26.0002 30.3238 25.508C28.9531 25.5336 27.5197 25.5644 26.7274 25.5863C26.6984 25.6434 26.6697 25.7005 26.6435 25.7521C26.0687 26.8984 25.1994 28.6305 23.7638 29.2171C23.2722 29.4172 22.6752 29.5281 22.0824 29.5281C21.1411 29.5281 20.4322 29.2408 20.0334 28.6979C19.7582 28.3232 19.6539 27.8589 19.7377 27.4011C19.8646 26.1326 20.2036 23.6186 20.9769 21.9571C20.2889 21.6344 19.1984 21.072 18.3452 20.6256C17.6317 20.2517 17.1487 20.6227 17.1487 20.6227C16.8 20.8228 16.6334 21.2827 16.6334 21.2827L14.1783 28.4432C14.1783 28.4432 13.9543 29.1739 14.0084 29.5493C14.0511 29.8453 14.1167 30.1519 14.6746 30.5679C15.3462 31.067 16.2037 31.7688 16.7233 32.4329C17.1186 32.9371 17.2153 33.5894 17.406 34.3048C17.9137 33.6974 18.6147 33.2649 19.4314 33.2649C19.6012 33.2649 19.7711 33.2839 19.9352 33.3223C20.7985 33.5232 21.4127 34.1683 21.7474 34.9516C22.0412 34.8437 22.3448 34.7804 22.6479 34.7804C23.0779 34.7804 23.499 34.8979 23.8652 35.1189C24.3791 35.4295 24.7195 35.8971 24.8966 36.4543C25.0671 36.4181 25.2399 36.3936 25.4173 36.3936C25.8935 36.3936 26.3697 36.5326 26.7962 36.7946C27.6057 37.2966 27.9694 38.2099 27.8802 39.3515C28.2751 39.3709 28.6438 39.4755 28.952 39.6665C30.0084 40.3247 30.2654 42.01 29.9715 43.2625L29.9547 43.336L29.9318 43.4015C30.1059 43.5566 30.2837 43.7081 30.4102 43.7531C32.5513 44.6817 33.7288 42.759 33.4418 41.815C34.1911 42.3616 35.7145 42.0909 36.4387 41.3225C37.1633 40.5552 36.811 39.2069 36.811 39.2069C36.811 39.2069 38.8063 40.3719 40.2519 38.9197C41.1911 37.9775 40.4454 36.8067 40.4454 36.8067C40.4454 36.8067 42.3368 37.5828 43.2241 36.2967C44.0648 35.0801 43.5337 34.1324 42.4963 33.2338Z" fill="#0045A0"/>
<path d="M27.767 43.9481C27.5272 43.9302 27.29 43.8526 27.0739 43.7099C26.3927 43.2581 26.2379 42.4517 26.6797 41.7554L26.8048 41.5175C27.2477 40.8216 28.2948 40.5366 28.789 40.8428C29.1997 41.0986 29.3968 42.1026 29.1997 42.9419L29.1491 43.0857C28.6983 43.9214 28.2852 43.9869 27.767 43.9481Z" fill="#0045A0"/>
<path d="M21.0718 27.6177C21.0718 27.6177 21.5384 22.8198 22.6919 21.7756C23.8444 20.7313 24.7485 20.4277 26.3163 20.1565C27.8834 19.885 31.2788 18.7157 32.4502 19.0643C33.6209 19.4134 35.565 19.9527 36.7253 20.1858C37.8867 20.4203 39.2632 21.2948 39.9516 21.3427C40.3414 21.3695 41.2993 20.9015 42.0723 20.5268C42.4658 20.3362 42.8159 20.4646 43.0617 20.6318C43.4451 20.8927 43.5569 21.3596 43.5569 21.3596L45.9113 28.8395C45.9113 28.8395 46.0339 29.2566 45.9909 29.5782C45.9582 29.8248 45.8833 30.104 45.4196 30.4146C44.5893 30.9715 43.4097 31.7893 43.2857 32.0264C43.0922 32.393 38.0731 27.9203 36.0463 26.9591C34.0194 25.998 30.6538 24.1235 30.6538 24.1235C30.6538 24.1235 26.3371 24.2033 25.9988 24.2369C25.6602 24.2699 24.7353 27.3367 23.2632 27.9372C22.3952 28.2917 20.9009 28.216 21.0718 27.6177Z" fill="#0045A0"/>
<path d="M19.1651 38.4433C19.0909 38.4382 19.0181 38.4272 18.9443 38.41C18.152 38.226 17.655 37.4214 17.8341 36.6113L17.9198 36.2286C18.099 35.4185 18.8429 34.48 19.6356 34.6655C20.4282 34.8499 20.83 35.9798 20.6501 36.7899L20.5687 37.3277C20.4057 38.0617 19.8792 38.4971 19.1651 38.4433Z" fill="#0045A0"/>
<path d="M21.6244 40.4568C21.4055 40.4403 21.2517 40.452 21.0485 40.3295C20.3494 39.9069 20.0516 38.9061 20.4662 38.1916L21.1528 37.1532C21.5681 36.4379 22.4784 35.8813 23.1789 36.3043C23.8788 36.7269 23.7523 37.7225 23.4391 38.4642L22.8872 39.6577C22.5934 40.1648 22.1637 40.4967 21.6244 40.4568Z" fill="#0045A0"/>
<path d="M24.9862 42.1469C24.7608 42.1297 24.5368 42.0601 24.3304 41.9328C23.6355 41.5022 23.4137 40.5783 23.8355 39.8681L24.7468 38.5388C25.1689 37.8297 25.9404 37.5436 26.6356 37.9732C27.3301 38.4031 27.0976 39.6284 26.8023 40.4177L26.3522 41.4268C26.0566 41.9266 25.5197 42.186 24.9862 42.1469Z" fill="#0045A0"/>
</svg>
