<svg width="85" height="76" viewBox="0 0 85 76" fill="none" xmlns="http://www.w3.org/2000/svg">
<path d="M78.289 34.5623C77.4992 15.3713 61.649 0 42.27 0C22.8532 0 6.97883 15.428 6.24472 34.6684C2.6634 35.5663 0 38.8032 0 42.6575V51.301C0 55.4242 3.04359 58.8396 6.99984 59.4424C8.54369 64.7714 13.3821 73.2247 22.8217 73.2247H33.6433C34.2546 74.6215 35.6451 75.6004 37.2646 75.6004C39.4438 75.6004 41.2156 73.8276 41.2156 71.6494C41.2156 69.4691 39.4428 67.6963 37.2646 67.6963C35.6451 67.6963 34.2546 68.6772 33.6433 70.074H22.8217C14.8493 70.074 11.4224 62.6835 10.2671 59.287C13.8379 58.3828 16.4919 55.1501 16.4919 51.301V42.6575C16.4919 38.5028 13.401 35.0664 9.39858 34.5024C10.2157 17.0779 24.6449 3.15072 42.27 3.15072C59.9161 3.15072 74.359 17.1147 75.1383 34.5728C71.3616 35.3248 68.507 38.6635 68.507 42.6575V51.301C68.507 55.8485 72.2049 59.5475 76.7514 59.5475C81.299 59.5475 85 55.8496 85 51.301V42.6575C84.9989 38.6383 82.1024 35.2859 78.289 34.5623ZM37.2646 70.8491C37.7057 70.8491 38.0659 71.2083 38.0659 71.6515C38.0659 72.0926 37.7067 72.4517 37.2646 72.4517C36.8224 72.4517 36.4622 72.0926 36.4622 71.6515C36.4622 71.2083 36.8224 70.8491 37.2646 70.8491ZM13.3412 42.6586V51.302C13.3412 54.1125 11.0548 56.3978 8.24437 56.3978C5.43498 56.3978 3.14966 54.1125 3.14966 51.302V42.6586C3.14966 39.8492 5.43498 37.5639 8.24437 37.5639C11.0559 37.5639 13.3412 39.8492 13.3412 42.6586ZM81.8482 51.302C81.8482 54.1125 79.5608 56.3978 76.7504 56.3978C73.942 56.3978 71.6567 54.1125 71.6567 51.302V42.6586C71.6567 39.8492 73.942 37.5639 76.7504 37.5639C79.5608 37.5639 81.8482 39.8492 81.8482 42.6586V51.302Z" fill="#0045A0"/>
<path d="M78.289 34.5623C77.4992 15.3713 61.649 0 42.27 0C22.8532 0 6.97883 15.428 6.24472 34.6684C2.6634 35.5663 0 38.8032 0 42.6575V51.301C0 55.4242 3.04359 58.8396 6.99984 59.4424C8.54369 64.7714 13.3821 73.2247 22.8217 73.2247H33.6433C34.2546 74.6215 35.6451 75.6004 37.2646 75.6004C39.4438 75.6004 41.2156 73.8276 41.2156 71.6494C41.2156 69.4691 39.4428 67.6963 37.2646 67.6963C35.6451 67.6963 34.2546 68.6772 33.6433 70.074H22.8217C14.8493 70.074 11.4224 62.6835 10.2671 59.287C13.8379 58.3828 16.4919 55.1501 16.4919 51.301V42.6575C16.4919 38.5028 13.401 35.0664 9.39858 34.5024C10.2157 17.0779 24.6449 3.15072 42.27 3.15072C59.9161 3.15072 74.359 17.1147 75.1383 34.5728C71.3616 35.3248 68.507 38.6635 68.507 42.6575V51.301C68.507 55.8485 72.2049 59.5475 76.7514 59.5475C81.299 59.5475 85 55.8496 85 51.301V42.6575C84.9989 38.6383 82.1024 35.2859 78.289 34.5623ZM37.2646 70.8491C37.7057 70.8491 38.0659 71.2083 38.0659 71.6515C38.0659 72.0926 37.7067 72.4517 37.2646 72.4517C36.8224 72.4517 36.4622 72.0926 36.4622 71.6515C36.4622 71.2083 36.8224 70.8491 37.2646 70.8491ZM13.3412 42.6586V51.302C13.3412 54.1125 11.0548 56.3978 8.24437 56.3978C5.43498 56.3978 3.14966 54.1125 3.14966 51.302V42.6586C3.14966 39.8492 5.43498 37.5639 8.24437 37.5639C11.0559 37.5639 13.3412 39.8492 13.3412 42.6586ZM81.8482 51.302C81.8482 54.1125 79.5608 56.3978 76.7504 56.3978C73.942 56.3978 71.6567 54.1125 71.6567 51.302V42.6586C71.6567 39.8492 73.942 37.5639 76.7504 37.5639C79.5608 37.5639 81.8482 39.8492 81.8482 42.6586V51.302Z" fill="url(#paint0_linear)"/>
<defs>
<linearGradient id="paint0_linear" x1="0" y1="0" x2="97.0736" y2="54.6592" gradientUnits="userSpaceOnUse">
<stop stop-color="#FF6262"/>
<stop offset="1" stop-color="#FF6262" stop-opacity="0"/>
</linearGradient>
</defs>
</svg>
