<svg width="68" height="80" viewBox="0 0 68 80" fill="none" xmlns="http://www.w3.org/2000/svg">
<path d="M67.8337 46.6667V80H44.4337V74H23.2337V80H0.166992V46.6667H67.8337ZM53.5003 40.8C52.5357 36.635 50.1851 32.921 46.8337 30.2667C43.6458 27.5393 39.681 25.8834 35.5003 25.5333V14.4667H36.5003L38.2337 13.3333L40.167 12.9333C40.6537 12.8675 41.147 12.8675 41.6337 12.9333C42.3876 12.8626 43.1464 12.8626 43.9003 12.9333L46.8337 13.7333L49.7003 14.5333C50.4317 14.6082 51.1689 14.6082 51.9003 14.5333C52.939 14.5182 53.9708 14.3612 54.967 14.0667V2.26667C53.9979 2.67881 52.9532 2.8832 51.9003 2.86667C51.1695 2.95278 50.4311 2.95278 49.7003 2.86667L46.8337 1.86667L44.1003 1.06667C43.3692 0.986294 42.6315 0.986294 41.9003 1.06667C39.6041 1.11921 37.3399 1.61732 35.2337 2.53333V0H32.4337V25.5333C28.2529 25.8834 24.2881 27.5393 21.1003 30.2667C17.923 32.9874 15.7029 36.6563 14.767 40.7333C14.3589 40.6542 13.9379 40.6741 13.5391 40.7914C13.1403 40.9086 12.7755 41.1197 12.4751 41.407C12.1747 41.6943 11.9476 42.0494 11.8128 42.4426C11.678 42.8357 11.6394 43.2555 11.7003 43.6667H56.6337C56.6337 40.6 53.2337 40.7333 53.2337 40.7333" fill="white"/>
</svg>
