<svg width="33" height="69" viewBox="0 0 33 69" fill="none" xmlns="http://www.w3.org/2000/svg">
<path d="M32.8127 39.9166C33.0885 40.6647 33.0588 41.4912 32.7302 42.2176C32.4016 42.944 31.8003 43.5119 31.0564 43.7986C30.687 43.9376 30.2938 44.0021 29.8995 43.9883C29.5051 43.9746 29.1173 43.8829 28.7586 43.7186C28.3998 43.5543 28.0771 43.3206 27.8091 43.0309C27.5411 42.7413 27.3331 42.4014 27.1971 42.031L25.634 37.825C25.634 37.825 25.4635 37.2111 25.4635 39.1607V64.8911C25.4839 65.4334 25.3947 65.9743 25.2012 66.4813C25.0077 66.9884 24.7139 67.4511 24.3375 67.842C23.961 68.2329 23.5095 68.5438 23.0101 68.7562C22.5107 68.9686 21.9736 69.078 21.4309 69.078C20.8882 69.078 20.3511 68.9686 19.8517 68.7562C19.3523 68.5438 18.9008 68.2329 18.5243 67.842C18.1479 67.4511 17.8541 66.9884 17.6606 66.4813C17.4671 65.9743 17.3779 65.4334 17.3983 64.8911V48.0842C17.3999 48.0649 17.3974 48.0454 17.3909 48.0271C17.3844 48.0088 17.3741 47.9921 17.3607 47.9782C17.3472 47.9642 17.3309 47.9532 17.3129 47.946C17.2949 47.9388 17.2755 47.9356 17.2562 47.9364H15.7386C15.7191 47.9343 15.6995 47.9368 15.6812 47.9436C15.6628 47.9505 15.6464 47.9615 15.6331 47.9759C15.6198 47.9903 15.6101 48.0076 15.6048 48.0264C15.5994 48.0452 15.5985 48.065 15.6022 48.0842V64.8968C15.6225 65.4391 15.5333 65.98 15.3398 66.487C15.1463 66.994 14.8526 67.4568 14.4761 67.8477C14.0996 68.2386 13.6482 68.5495 13.1488 68.7619C12.6494 68.9743 12.1122 69.0837 11.5695 69.0837C11.0268 69.0837 10.4897 68.9743 9.99032 68.7619C9.4909 68.5495 9.03946 68.2386 8.66298 67.8477C8.28651 67.4568 7.99274 66.994 7.79925 66.487C7.60577 65.98 7.51654 65.4391 7.5369 64.8968V39.1607C7.5369 37.2396 7.42323 37.6772 7.42323 37.6772L5.80335 42.0424C5.66621 42.4118 5.4574 42.7504 5.18891 43.0389C4.92043 43.3273 4.59758 43.5598 4.23892 43.723C3.88026 43.8862 3.49288 43.9769 3.09904 43.9899C2.70521 44.0029 2.31269 43.9379 1.94407 43.7986C1.20116 43.5108 0.601205 42.9424 0.273688 42.2162C-0.0538282 41.4899 -0.082643 40.664 0.193463 39.9166L6.28647 21.3761C6.53122 20.7072 6.98675 20.1359 7.58443 19.7484C8.1821 19.3609 8.88953 19.1781 9.60011 19.2277H22.2124C22.633 19.2277 22.6955 19.2277 23.4003 19.2277C24.1053 19.2076 24.7998 19.4024 25.3916 19.7861C25.9834 20.1698 26.4446 20.7243 26.714 21.3761L32.8127 39.9166ZM16.5798 0.0335679C14.2955 0.0229886 12.1005 0.9199 10.4773 2.52714C8.85402 4.13439 7.93543 6.32042 7.9234 8.6047C7.98126 10.8629 8.91896 13.0091 10.5366 14.5858C12.1542 16.1625 14.3237 17.0449 16.5826 17.0449C18.8415 17.0449 21.0111 16.1625 22.6287 14.5858C24.2463 13.0091 25.184 10.8629 25.2419 8.6047C25.2359 7.47315 25.0071 6.35385 24.5686 5.31071C24.1301 4.26758 23.4904 3.32103 22.686 2.52512C21.8817 1.72922 20.9284 1.09954 19.8807 0.672035C18.833 0.244532 17.7113 0.0275809 16.5798 0.0335679V0.0335679Z" fill="#0045A0"/>
</svg>
