<svg width="60" height="60" viewBox="0 0 60 60" fill="none" xmlns="http://www.w3.org/2000/svg">
<path d="M30 60C46.5685 60 60 46.5685 60 30C60 13.4315 46.5685 0 30 0C13.4315 0 0 13.4315 0 30C0 46.5685 13.4315 60 30 60Z" fill="white"/>
<path d="M30 17C22.8203 17 17 22.8202 17 30C17 37.1797 22.8203 43 30 43C37.1797 43 43 37.1797 43 30C43 22.8202 37.1797 17 30 17ZM30 41.7C28.971 41.7 27.644 39.7825 26.8332 36.5H33.1668C32.356 39.7825 31.029 41.7 30 41.7ZM26.5544 35.2C26.3064 33.8545 26.1469 32.3292 26.1131 30.65H33.8869C33.8531 32.3292 33.6936 33.8545 33.4456 35.2H26.5544ZM18.3329 30.65H24.8131C24.8451 32.2609 24.99 33.7957 25.2356 35.2H19.5345C18.8436 33.8153 18.423 32.2777 18.3329 30.65ZM30 18.3C31.029 18.3 32.356 20.2175 33.1668 23.5H26.8332C27.644 20.2175 28.971 18.3 30 18.3ZM33.4456 24.8C33.6936 26.1455 33.8531 27.6708 33.8869 29.35H26.1131C26.1469 27.6708 26.3064 26.1455 26.5544 24.8H33.4456ZM24.8131 29.35H18.3329C18.423 27.7223 18.8436 26.1847 19.5345 24.8H25.2356C24.99 26.2043 24.8451 27.7391 24.8131 29.35ZM35.1869 30.65H41.6671C41.577 32.2777 41.1564 33.8153 40.4655 35.2H34.7644C35.01 33.7957 35.1549 32.2609 35.1869 30.65ZM35.1869 29.35C35.1549 27.7391 35.01 26.2043 34.7644 24.8H40.4655C41.1564 26.1847 41.577 27.7223 41.6671 29.35H35.1869ZM39.7217 23.5H34.4987C34.019 21.4298 33.3216 19.7143 32.4795 18.5702C35.4837 19.2215 38.0621 21.026 39.7217 23.5ZM27.5205 18.5702C26.6784 19.7143 25.981 21.4298 25.5013 23.5H20.2783C21.9379 21.026 24.5163 19.2215 27.5205 18.5702ZM20.2783 36.5H25.5013C25.981 38.5701 26.6785 40.2857 27.5206 41.4298C24.5163 40.7785 21.9379 38.9741 20.2783 36.5ZM32.4794 41.4298C33.3215 40.2857 34.019 38.5701 34.4987 36.5H39.7217C38.0621 38.9741 35.4837 40.7785 32.4794 41.4298Z" fill="#0045A0"/>
</svg>
