<svg width="60" height="60" viewBox="0 0 60 60" fill="none" xmlns="http://www.w3.org/2000/svg">
<path d="M30 60C46.5685 60 60 46.5685 60 30C60 13.4315 46.5685 0 30 0C13.4315 0 0 13.4315 0 30C0 46.5685 13.4315 60 30 60Z" fill="white"/>
<path d="M47.4502 25.4383C46.3313 21.2174 43.716 17.5471 40.0918 15.1113C36.4675 12.6754 32.0812 11.6401 27.7502 12.1982C23.4192 12.7563 19.4388 14.8697 16.5504 18.1448C13.662 21.4199 12.0628 25.6332 12.0505 29.9999C12.0382 34.3666 13.6138 38.5889 16.4837 41.8802C19.3536 45.1714 23.3221 47.3072 27.6499 47.8896C31.9777 48.4721 36.3697 47.4614 40.0076 45.046C43.6455 42.6305 46.2813 38.975 47.424 34.7604C48.2503 31.7091 48.2593 28.4942 47.4502 25.4383ZM39.2936 28.4093L46.1163 26.6008C46.6108 28.9052 46.6041 31.2889 46.0966 33.5904L39.2842 31.7437C39.4908 30.6421 39.494 29.512 39.2936 28.4093ZM33.5849 13.9991L31.7381 20.8114C30.6365 20.6048 29.5064 20.6016 28.4037 20.802L26.5951 13.9795C28.8995 13.485 31.2833 13.4917 33.5849 13.9991ZM13.9931 26.5106L20.8056 28.3574C20.7023 28.907 20.6496 29.4649 20.6482 30.0241C20.6484 30.5832 20.6979 31.1413 20.7962 31.6917L13.9735 33.5002C13.479 31.1958 13.4857 28.8121 13.9931 26.5106ZM26.5049 46.1019L28.3517 39.2896C29.4536 39.4923 30.583 39.4955 31.6861 39.299L33.4946 46.1215C31.1902 46.616 28.8064 46.6093 26.5049 46.1019ZM32.0509 37.6172C30.8901 37.9233 29.6745 37.9587 28.4978 37.7206C27.3211 37.4826 26.2149 36.9774 25.2643 36.2442C24.3138 35.5109 23.5444 34.5691 23.0155 33.4914C22.4866 32.4137 22.2122 31.229 22.2137 30.0285C22.215 29.3437 22.3077 28.6622 22.4894 28.002C22.849 26.6759 23.5513 25.4678 24.5257 24.499C25.5001 23.5303 26.7124 22.8351 28.0406 22.4834C29.3689 22.1316 30.7663 22.1356 32.0925 22.495C33.4187 22.8544 34.627 23.5565 35.5958 24.5308C36.5647 25.5051 37.26 26.7172 37.612 28.0454C37.9639 29.3736 37.9601 30.771 37.6008 32.0972C37.2416 33.4234 36.5396 34.6317 35.5654 35.6007C34.5911 36.5696 33.3791 37.2651 32.0509 37.6172Z" fill="#0045A0"/>
</svg>
