<svg width="140" height="140" viewBox="0 0 140 140" fill="none" xmlns="http://www.w3.org/2000/svg">
<g clip-path="url(#clip0)">
<path d="M69.9998 0C56.1551 0 42.6213 4.10543 31.1099 11.7971C19.5984 19.4888 10.6264 30.4213 5.32822 43.2122C0.030086 56.003 -1.35615 70.0776 1.34482 83.6563C4.04578 97.235 10.7126 109.708 20.5023 119.497C30.292 129.287 42.7648 135.954 56.3434 138.655C69.9221 141.356 83.9968 139.97 96.7876 134.672C109.578 129.373 120.511 120.401 128.203 108.89C135.894 97.3784 140 83.8447 140 70C139.956 51.4483 132.567 33.6691 119.449 20.551C106.331 7.43299 88.5514 0.0439094 69.9998 0ZM130.356 51.0451H100.427C97.5223 46.4451 93.5965 42.5763 88.9546 39.7387V9.6437C98.684 12.6921 107.531 18.0498 114.74 25.2593C121.95 32.4687 127.308 41.3158 130.356 51.0451ZM133.349 70C133.307 74.0717 132.918 78.1323 132.185 82.1377H103.753C105.235 78.2651 105.969 74.1462 105.914 70C105.885 65.8068 105.155 61.648 103.753 57.6959H132.185C132.909 61.7585 133.299 65.8737 133.349 70ZM69.9998 98.9311C64.2924 98.8655 58.7319 97.1131 54.0181 93.8945C49.3044 90.6759 45.648 86.1349 43.5092 80.843C41.3704 75.551 40.8447 69.7447 41.9982 64.1547C43.1518 58.5647 45.9332 53.4408 49.9922 49.428C54.0512 45.4151 59.2065 42.6925 64.8093 41.6029C70.4121 40.5132 76.2121 41.1052 81.4792 43.3044C86.7463 45.5036 91.2453 49.2116 94.4098 53.9618C97.5743 58.712 99.263 64.2922 99.2634 70C99.2416 73.8211 98.4674 77.6006 96.985 81.1225C95.5026 84.6444 93.341 87.8399 90.6236 90.5264C87.9062 93.2129 84.6862 95.3379 81.1476 96.7799C77.6089 98.222 73.8209 98.953 69.9998 98.9311ZM6.65062 70C6.70087 65.8737 7.09015 61.7585 7.81451 57.6959H36.2468C34.8448 61.648 34.1142 65.8068 34.0853 70C34.031 74.1462 34.7645 78.2651 36.2468 82.1377H7.81451C7.08162 78.1323 6.69224 74.0717 6.65062 70ZM82.3038 7.81473V36.4133C74.3171 33.751 65.6824 33.751 57.6957 36.4133V7.81473C61.7583 7.09036 65.8735 6.70109 69.9998 6.65083C74.1261 6.70109 78.2413 7.09036 82.3038 7.81473ZM51.0449 9.6437V39.7387C46.403 42.5763 42.4773 46.4451 39.5722 51.0451H9.64349C12.6919 41.3158 18.0496 32.4687 25.2591 25.2593C32.4685 18.0498 41.3156 12.6921 51.0449 9.6437ZM9.47722 88.7886H39.5722C42.4276 93.4724 46.3611 97.4059 51.0449 100.261V130.356C41.2863 127.277 32.4134 121.892 25.1777 114.656C17.9419 107.42 12.5564 98.5472 9.47722 88.7886ZM57.6957 132.185V103.587C65.6824 106.249 74.3171 106.249 82.3038 103.587V132.185C78.2413 132.91 74.1261 133.299 69.9998 133.349C65.8735 133.299 61.7583 132.91 57.6957 132.185ZM88.9546 130.356V100.261C93.6385 97.4059 97.572 93.4724 100.427 88.7886H130.522C127.443 98.5472 122.058 107.42 114.822 114.656C107.586 121.892 98.7133 127.277 88.9546 130.356Z" fill="#0062CC" fill-opacity="0.03"/>
</g>
<defs>
<clipPath id="clip0">
<rect width="140" height="140" fill="white"/>
</clipPath>
</defs>
</svg>
