<svg width="620" height="620" viewBox="0 0 620 620" fill="none" xmlns="http://www.w3.org/2000/svg">
<path opacity="0.03" d="M310 0C248.688 0 188.753 18.1812 137.773 52.2444C86.7941 86.3076 47.0606 134.723 23.5975 191.368C0.134317 248.013 -6.00471 310.344 5.9567 370.478C17.9181 430.612 47.4428 485.849 90.797 529.203C134.151 572.557 189.388 602.082 249.522 614.043C309.656 626.005 371.987 619.866 428.632 596.402C485.277 572.939 533.692 533.206 567.756 482.227C601.819 431.247 620 371.312 620 310C619.806 227.843 587.082 149.106 528.988 91.0117C470.894 32.9175 392.157 0.194456 310 0V0ZM577.292 226.057H444.751C431.886 205.686 414.5 188.552 393.943 175.986V42.7078C437.03 56.2081 476.21 79.9349 508.138 111.862C540.065 143.79 563.792 182.97 577.292 226.057V226.057ZM590.546 310C590.362 328.032 588.638 346.015 585.392 363.753H459.477C466.042 346.603 469.29 328.362 469.05 310C468.922 291.43 465.686 273.012 459.477 255.511H585.392C588.6 273.502 590.324 291.726 590.546 310ZM310 438.123C284.724 437.833 260.099 430.072 239.224 415.818C218.349 401.565 202.157 381.454 192.685 358.019C183.213 334.583 180.885 308.869 185.993 284.114C191.102 259.358 203.419 236.667 221.395 218.895C239.371 201.124 262.201 189.067 287.014 184.241C311.826 179.416 337.512 182.038 360.838 191.777C384.163 201.516 404.087 217.937 418.102 238.974C432.116 260.01 439.595 284.723 439.596 310C439.5 326.922 436.071 343.66 429.506 359.257C422.941 374.854 413.368 389.005 401.334 400.903C389.3 412.8 375.04 422.211 359.369 428.597C343.698 434.983 326.922 438.22 310 438.123V438.123ZM29.4538 310C29.6764 291.726 31.4003 273.502 34.6082 255.511H160.523C154.314 273.012 151.078 291.43 150.95 310C150.71 328.362 153.958 346.603 160.523 363.753H34.6082C31.3625 346.015 29.6381 328.032 29.4538 310V310ZM364.489 34.6081V161.259C329.12 149.469 290.88 149.469 255.511 161.259V34.6081C273.502 31.4002 291.726 29.6762 310 29.4537C328.274 29.6762 346.498 31.4002 364.489 34.6081V34.6081ZM226.057 42.7078V175.986C205.5 188.552 188.115 205.686 175.25 226.057H42.708C56.2082 182.97 79.935 143.79 111.863 111.862C143.79 79.9349 182.97 56.2081 226.057 42.7078V42.7078ZM41.9716 393.207H175.25C187.895 413.949 205.314 431.369 226.057 444.014V577.292C182.84 563.656 143.546 539.806 111.502 507.762C79.4581 475.717 55.608 436.423 41.9716 393.207V393.207ZM255.511 585.392V458.741C290.88 470.531 329.12 470.531 364.489 458.741V585.392C346.498 588.6 328.274 590.324 310 590.546C291.726 590.324 273.502 588.6 255.511 585.392V585.392ZM393.943 577.292V444.014C414.686 431.369 432.106 413.949 444.751 393.207H578.029C564.392 436.423 540.542 475.717 508.498 507.762C476.454 539.806 437.16 563.656 393.943 577.292V577.292Z" fill="white"/>
</svg>
