<svg width="76" height="76" viewBox="0 0 76 76" fill="none" xmlns="http://www.w3.org/2000/svg">
<path d="M38 0C30.4843 0 23.1374 2.22866 16.8883 6.40415C10.6393 10.5796 5.76872 16.5144 2.89259 23.458C0.0164647 30.4016 -0.736062 38.0421 0.730176 45.4134C2.19641 52.7847 5.81556 59.5556 11.13 64.87C16.4444 70.1844 23.2153 73.8036 30.5866 75.2698C37.9579 76.7361 45.5984 75.9835 52.542 73.1074C59.4856 70.2313 65.4204 65.3607 69.5958 59.1117C73.7713 52.8626 76 45.5157 76 38C75.9762 27.9291 71.965 18.2775 64.8437 11.1563C57.7225 4.03505 48.0709 0.0238365 38 0ZM70.7649 27.7102H54.5178C52.9408 25.2131 50.8097 23.1128 48.2898 21.5724V5.23515C53.5714 6.89002 58.3741 9.79847 62.2878 13.7122C66.2015 17.6259 69.11 22.4286 70.7649 27.7102ZM72.3895 38C72.367 40.2103 72.1556 42.4147 71.7577 44.5891H56.323C57.1277 42.4868 57.5259 40.2508 57.4964 38C57.4807 35.7237 57.0841 33.466 56.323 31.3207H71.7577C72.1509 33.526 72.3623 35.76 72.3895 38ZM38 53.7055C34.9017 53.6698 31.8831 52.7185 29.3243 50.9713C26.7654 49.224 24.7805 46.7589 23.6194 43.8862C22.4583 41.0134 22.1729 37.8614 22.7992 34.8268C23.4254 31.7923 24.9353 29.0107 27.1387 26.8323C29.3422 24.6539 32.1408 23.1759 35.1823 22.5844C38.2239 21.9929 41.3724 22.3143 44.2317 23.5081C47.091 24.7019 49.5333 26.7149 51.2512 29.2936C52.969 31.8722 53.8858 34.9015 53.886 38C53.8742 40.0743 53.4539 42.126 52.6491 44.0379C51.8444 45.9498 50.6709 47.6845 49.1958 49.1429C47.7206 50.6013 45.9727 51.7548 44.0517 52.5377C42.1307 53.3205 40.0743 53.7173 38 53.7055ZM3.61047 38C3.63775 35.76 3.84907 33.526 4.2423 31.3207H19.677C18.9159 33.466 18.5193 35.7237 18.5036 38C18.4741 40.2508 18.8723 42.4868 19.677 44.5891H4.2423C3.84444 42.4147 3.63306 40.2103 3.61047 38ZM44.6793 4.24228V19.7672C40.3437 18.322 35.6563 18.322 31.3207 19.7672V4.24228C33.5261 3.84905 35.76 3.63773 38 3.61045C40.24 3.63773 42.474 3.84905 44.6793 4.24228ZM27.7102 5.23515V21.5724C25.1903 23.1128 23.0592 25.2131 21.4822 27.7102H5.23517C6.89004 22.4286 9.79849 17.6259 13.7122 13.7122C17.6259 9.79847 22.4286 6.89002 27.7102 5.23515ZM5.14491 48.1995H21.4822C23.0322 50.7422 25.1676 52.8775 27.7102 54.4275V70.7648C22.4127 69.0933 17.596 66.1697 13.668 62.2417C9.74003 58.3138 6.81647 53.497 5.14491 48.1995ZM31.3207 71.7577V56.2328C35.6563 57.678 40.3437 57.678 44.6793 56.2328V71.7577C42.474 72.1509 40.24 72.3622 38 72.3895C35.76 72.3622 33.5261 72.1509 31.3207 71.7577ZM48.2898 70.7648V54.4275C50.8325 52.8775 52.9678 50.7422 54.5178 48.1995H70.8551C69.1836 53.497 66.26 58.3138 62.332 62.2417C58.404 66.1697 53.5873 69.0933 48.2898 70.7648Z" fill="url(#paint0_linear)"/>
<defs>
<linearGradient id="paint0_linear" x1="0" y1="0" x2="91.392" y2="45.7694" gradientUnits="userSpaceOnUse">
<stop stop-color="#FF6262"/>
<stop offset="1" stop-color="#0045A0"/>
</linearGradient>
</defs>
</svg>
