<svg width="186" height="61" viewBox="0 0 186 61" fill="none" xmlns="http://www.w3.org/2000/svg">
<path fill-rule="evenodd" clip-rule="evenodd" d="M70.3832 34.9161C69.7725 34.3079 68.7665 33.8787 67.4731 33.6282C68.2994 33.4136 69.018 33.0916 69.4491 32.6623C70.1317 32.0542 70.4551 31.3029 70.4551 30.4443C70.4551 29.4069 69.988 28.5483 69.0539 27.8686C68.0838 27.1889 66.7186 26.8312 64.9581 26.8312H54.2515V41.3912H64.1317C64.5629 41.3912 65.3892 41.3196 66.6826 41.1766C67.6527 41.105 68.3713 40.9619 68.8742 40.7115C69.6287 40.3537 70.2395 39.8887 70.6707 39.2805C71.1377 38.7081 71.3533 38.0284 71.3533 37.2772C71.3533 36.3113 71.0299 35.5243 70.3832 34.9161ZM60 29.7646H62.515C63.3413 29.7646 63.9521 29.872 64.3114 30.1582C64.6707 30.3728 64.8503 30.6948 64.8503 31.1598C64.8503 31.5891 64.6707 31.9469 64.3114 32.1973C63.9521 32.4119 63.3413 32.5908 62.479 32.5908H60V29.7646ZM64.994 37.8496C64.5988 38.1 63.9162 38.2431 62.9102 38.2431H60V35.3096H62.9102C63.9162 35.3096 64.5988 35.4527 64.994 35.7031C65.4251 35.9535 65.6048 36.3113 65.6048 36.7763C65.6048 37.2056 65.4251 37.5634 64.994 37.8496Z" fill="white"/>
<path fill-rule="evenodd" clip-rule="evenodd" d="M85.1856 26.8312H78.9701L72.0359 41.3912H77.8563L78.7904 38.9586H85.3293L86.2635 41.3912H92.2275L85.1856 26.8312ZM80.012 35.8104L82.0239 30.5874L84.1078 35.8104H80.012Z" fill="white"/>
<path d="M94.0239 26.8312H99.6647V37.778H108.647V41.3912H94.0239V26.8312Z" fill="white"/>
<path d="M108.611 26.8312H125.964V30.4086H120.144V41.3912H114.467V30.4086H108.611V26.8312Z" fill="white"/>
<path d="M128.802 26.8312H134.551V41.3912H128.802V26.8312Z" fill="white"/>
<path d="M150.97 35.4527L156 36.6333C155.641 37.7422 155.102 38.6366 154.383 39.3878C153.665 40.1391 152.766 40.7115 151.689 41.0692C150.611 41.4627 149.245 41.6416 147.593 41.6416C145.581 41.6416 143.928 41.427 142.671 40.9619C141.413 40.4968 140.299 39.7098 139.365 38.565C138.431 37.3845 137.964 35.882 137.964 34.0933C137.964 31.6964 138.79 29.8362 140.407 28.5125C142.06 27.2247 144.359 26.5808 147.341 26.5808C149.677 26.5808 151.509 26.9743 152.838 27.6897C154.132 28.441 155.138 29.5858 155.784 31.1241L150.719 32.0184C150.575 31.5891 150.359 31.2671 150.18 31.0525C149.82 30.6948 149.461 30.4443 148.994 30.2655C148.527 30.0866 147.988 30.0151 147.413 30.0151C146.156 30.0151 145.15 30.4086 144.467 31.2314C143.928 31.8395 143.677 32.8054 143.677 34.0933C143.677 35.7031 144 36.8121 144.647 37.4203C145.257 38.0284 146.156 38.3504 147.234 38.3504C148.347 38.3504 149.138 38.1 149.713 37.6349C150.323 37.0268 150.719 36.3471 150.97 35.4527Z" fill="white"/>
<path d="M55.0419 54.9138L60.2156 54.6634C60.3234 55.3431 60.5748 55.8797 60.8982 56.2732C61.4371 56.8456 62.2275 57.1675 63.2695 57.1675C64.0239 57.1675 64.6347 57.0244 65.0659 56.7025C65.497 56.3805 65.6766 56.0585 65.6766 55.6292C65.6766 55.2715 65.497 54.9495 65.1018 54.6276C64.6707 54.3056 63.7724 54.0552 62.2994 53.8048C59.9281 53.3397 58.2395 52.7673 57.2335 52.0161C56.1916 51.3006 55.6886 50.3705 55.6886 49.2257C55.6886 48.4744 55.9042 47.7947 56.4431 47.0793C56.982 46.4353 57.7365 45.8987 58.8144 45.5052C59.8563 45.1117 61.2575 44.9328 63.0898 44.9328C65.3533 44.9328 67.0419 45.2906 68.2275 45.9703C69.4132 46.65 70.0958 47.759 70.3473 49.2972L65.2096 49.5119C65.1018 48.868 64.7784 48.4029 64.3832 48.1167C63.9521 47.7947 63.3413 47.6516 62.5868 47.6516C61.976 47.6516 61.4731 47.759 61.1856 48.0094C60.8623 48.224 60.6826 48.5102 60.6826 48.7964C60.6826 49.0111 60.8263 49.2615 61.1138 49.4046C61.3293 49.5834 61.9401 49.7981 62.9102 49.9412C65.2814 50.4062 66.9701 50.8355 68.012 51.229C69.0539 51.6941 69.7725 52.2307 70.2395 52.8747C70.7425 53.4828 70.9581 54.1983 70.9581 55.0211C70.9581 55.987 70.6347 56.8098 69.988 57.5968C69.3772 58.3481 68.479 58.9562 67.4012 59.3855C66.2874 59.779 64.8862 59.9937 63.1976 59.9937C60.2156 59.9937 58.1317 59.4928 56.982 58.5627C55.8323 57.5968 55.1856 56.4163 55.0419 54.9138Z" fill="white"/>
<path d="M73.6886 45.1475H79.1138V50.2631H85.006V45.1475H90.503V59.7075H85.006V53.8405H79.1138V59.7075H73.6886V45.1475Z" fill="white"/>
<path d="M94.2754 45.1475H99.6647V59.7075H94.2754V45.1475Z" fill="white"/>
<path fill-rule="evenodd" clip-rule="evenodd" d="M116.946 46.328C115.94 45.5768 114.503 45.1475 112.527 45.1475H103.509V59.7075H108.934V54.3414H111.916C114.108 54.3414 115.76 53.9121 116.766 53.0893C117.844 52.2665 118.383 51.1217 118.383 49.655C118.383 48.224 117.88 47.115 116.946 46.328ZM112.491 50.9071C112.168 51.1217 111.701 51.3006 111.054 51.3364C110.838 51.3721 110.587 51.3721 110.299 51.3721H109.006V48.1167H110.551C110.731 48.1167 110.946 48.1167 111.09 48.1525C111.808 48.1883 112.311 48.3313 112.635 48.6175C113.03 48.9395 113.174 49.2973 113.174 49.7623C113.174 50.2274 112.922 50.6567 112.491 50.9071Z" fill="white"/>
<path fill-rule="evenodd" clip-rule="evenodd" d="M134.623 46.328C133.617 45.5768 132.18 45.1475 130.204 45.1475H121.186V59.7075H126.611V54.3414H129.593C131.784 54.3414 133.365 53.9121 134.443 53.0893C135.521 52.2665 136.06 51.1217 136.06 49.655C136.096 48.224 135.593 47.115 134.623 46.328ZM130.168 50.9071C129.808 51.1217 129.377 51.3006 128.731 51.3364C128.515 51.3721 128.228 51.3721 127.976 51.3721H126.683V48.1167H128.228C128.407 48.1167 128.587 48.1167 128.766 48.1525C129.485 48.1883 129.988 48.3313 130.311 48.6175C130.671 48.9395 130.85 49.2973 130.85 49.7623C130.85 50.2274 130.599 50.6567 130.168 50.9071Z" fill="white"/>
<path d="M139.114 45.1475H144.539V59.7075H139.114V45.1475Z" fill="white"/>
<path d="M148.491 45.1475H153.521L160.132 53.2324V45.1475H165.198V59.7075H160.132L153.557 51.7657V59.7075H148.491V45.1475Z" fill="white"/>
<path d="M177.629 51.4437H186V57.6326C184.383 58.5627 182.982 59.1709 181.76 59.4928C180.539 59.8148 179.066 59.9937 177.413 59.9937C175.293 59.9937 173.641 59.6717 172.311 59.1351C170.982 58.5269 169.976 57.6326 169.257 56.4878C168.539 55.3073 168.18 53.9836 168.18 52.4454C168.18 50.8713 168.575 49.4761 169.365 48.3314C170.12 47.1508 171.305 46.2207 172.814 45.6125C174 45.1475 175.617 44.9328 177.593 44.9328C179.533 44.9328 181.006 45.0759 181.94 45.3621C182.91 45.6841 183.701 46.1134 184.311 46.7215C184.958 47.3297 185.425 48.0809 185.748 49.0468L180.503 49.7981C180.323 49.2615 179.928 48.8322 179.425 48.546C178.886 48.2956 178.24 48.1167 177.449 48.1167C176.263 48.1167 175.329 48.4744 174.611 49.1542C173.928 49.8339 173.569 50.9071 173.569 52.4096C173.569 53.9836 173.928 55.1284 174.647 55.8081C175.329 56.4521 176.335 56.8098 177.593 56.8098C178.204 56.8098 178.778 56.7382 179.353 56.5951C179.892 56.4878 180.539 56.2016 181.222 55.8797V54.5203H177.629V51.4437Z" fill="white"/>
<path d="M33.2695 44.6466C32.6228 44.4678 32.1916 44.0742 32.2635 43.6807C32.3353 43.323 32.9461 43.1799 33.5928 43.323C34.2395 43.5019 34.6707 43.8954 34.5988 44.2889C34.5269 44.6466 33.9162 44.7897 33.2695 44.6466Z" fill="white"/>
<path d="M36.5389 43.9669C35.8922 43.8238 35.4251 43.3945 35.5329 43.0368C35.6048 42.6791 36.1796 42.536 36.8263 42.6791C37.4731 42.8222 37.9401 43.2514 37.8683 43.6092C37.7964 44.0385 37.1856 44.1816 36.5389 43.9669Z" fill="white"/>
<path d="M28.4551 30.6232C27.8443 30.3728 27.485 29.872 27.6287 29.55C27.7725 29.1923 28.3832 29.1565 28.994 29.4427C29.6048 29.6931 30 30.1939 29.8204 30.5159C29.6766 30.8736 29.0659 30.9094 28.4551 30.6232Z" fill="white"/>
<path d="M47.7126 48.4387L47.4611 46.3638C47.4611 46.3638 43.6886 50.0485 41.8204 51.0144C39.9521 51.9803 38.1198 52.338 37.1497 52.7673C36.1796 53.2324 35.8922 53.8763 35.8922 53.8763L35.7126 53.9479L35.497 53.9121L35.3174 53.9479L35.1377 53.8763C35.1377 53.8763 34.8144 53.2324 33.8802 52.7673C32.9102 52.338 31.0419 51.9803 29.2096 51.0144C27.3772 50.0485 23.5689 46.3638 23.5689 46.3638L23.2455 48.4387C23.2455 48.4387 20.7665 47.1866 20.2275 42.7506C19.7246 38.3146 22.1317 34.5941 22.1317 34.5941C22.1317 34.5941 22.5988 39.2805 24 40.6042C25.3653 41.9278 27.9162 43.9312 27.9162 43.9312L26.2275 44.3247C26.2275 44.3247 28.0599 46.4711 29.8922 47.0435C31.7605 47.6516 33.1257 47.7232 33.1257 47.7232L33.2335 48.0809V29.3354H22.994V25.6149H33.2695V23.8262C32.1198 23.1107 31.3293 21.7513 31.3293 20.213C31.3293 17.8877 33.1976 16.0274 35.497 16.0274C37.8323 16.0274 39.7006 17.8877 39.7006 20.213C39.7006 21.787 38.9102 23.1107 37.6168 23.8262V25.6149H47.4251V29.3354H37.6168V48.0452L37.7964 47.6874C37.7964 47.6874 39.1976 47.6159 41.0299 47.0077C42.8982 46.4353 44.7305 44.2889 44.7305 44.2889L43.0419 43.8954C43.0419 43.8954 45.521 41.9278 46.9581 40.5684C48.3593 39.2448 48.7904 34.5584 48.7904 34.5584C48.7904 34.5584 51.2335 38.2789 50.7305 42.7148C50.2275 47.1866 47.7126 48.4387 47.7126 48.4387Z" fill="white"/>
<path d="M36.4311 14.4176C24.3593 14.4176 14.6228 24.1481 14.6228 36.1324C14.6228 45.6125 20.6946 53.6975 29.2455 56.6309V60.0295C18.8982 56.9529 11.3533 47.4012 11.3533 36.1324C11.3533 22.3594 22.5629 11.1622 36.4311 11.1622C45.9521 11.1622 54.2874 16.4925 58.5269 24.327H54.7904C50.8742 18.3527 44.1557 14.4176 36.4311 14.4176Z" fill="white"/>
<path d="M28.1317 31.6249C27.521 31.3745 27.1617 30.8736 27.3054 30.5517C27.4491 30.1939 28.0599 30.1582 28.6707 30.4443C29.2814 30.6948 29.6766 31.1956 29.497 31.5176C29.3533 31.8753 28.7425 31.9111 28.1317 31.6249Z" fill="white"/>
<path d="M28.3832 32.8054C27.7365 32.6266 27.2695 32.1973 27.3772 31.8395C27.4491 31.4818 28.0599 31.3387 28.6707 31.5176C29.3174 31.6607 29.7844 32.09 29.6766 32.4477C29.6048 32.8054 28.994 32.9485 28.3832 32.8054Z" fill="white"/>
<path d="M28.5988 33.8429C27.9521 33.7356 27.4491 33.3778 27.485 33.0201C27.5569 32.6623 28.1317 32.4477 28.7784 32.555C29.4251 32.6266 29.9281 33.0201 29.8922 33.342C29.8563 33.6998 29.2814 33.9144 28.5988 33.8429Z" fill="white"/>
<path d="M29.1377 34.773C28.491 34.773 27.9521 34.451 27.9521 34.0933C27.9521 33.7356 28.491 33.4494 29.1377 33.4494C29.8204 33.4494 30.3593 33.7713 30.3593 34.0933C30.3593 34.451 29.8204 34.773 29.1377 34.773Z" fill="white"/>
<path d="M30.1437 35.4527C29.497 35.6674 28.8862 35.5243 28.8144 35.2023C28.7066 34.8446 29.1377 34.451 29.7844 34.2364C30.3952 34.0217 31.006 34.1648 31.1138 34.4868C31.1856 34.8446 30.7545 35.2381 30.1437 35.4527Z" fill="white"/>
<path d="M31.5808 35.7031C31.1497 36.204 30.5749 36.3828 30.3234 36.1682C30.0719 35.9535 30.1796 35.3454 30.5748 34.8446C31.0419 34.3437 31.6168 34.1291 31.8683 34.3795C32.1557 34.5941 32.0479 35.1665 31.5808 35.7031Z" fill="white"/>
<path d="M32.6228 35.7747C32.1557 36.2755 31.5808 36.4902 31.3293 36.2397C31.0778 36.0251 31.1856 35.4169 31.6527 34.9161C32.0838 34.4153 32.6587 34.2364 32.9102 34.451C33.1976 34.6657 33.0539 35.2738 32.6228 35.7747Z" fill="white"/>
<path d="M33.5928 35.7747C33.2335 36.3471 32.6946 36.5975 32.4072 36.4186C32.0838 36.2397 32.1557 35.6316 32.479 35.095C32.8383 34.5226 33.3772 34.2006 33.6647 34.4153C33.988 34.5941 33.9521 35.2023 33.5928 35.7747Z" fill="white"/>
<path d="M34.7425 35.8104C34.3473 36.3828 33.8084 36.7048 33.521 36.4902C33.1976 36.3113 33.2695 35.7031 33.6287 35.1307C33.988 34.5584 34.5269 34.2364 34.8144 34.4868C35.1377 34.6657 35.1018 35.2738 34.7425 35.8104Z" fill="white"/>
<path d="M35.7844 35.8462C35.4251 36.4186 34.8862 36.7406 34.5988 36.5259C34.2754 36.3471 34.3473 35.7389 34.6707 35.1665C35.0299 34.5941 35.5689 34.3079 35.8563 34.4868C36.1796 34.6657 36.1437 35.2738 35.7844 35.8462Z" fill="white"/>
<path d="M36.8623 35.8462C36.503 36.4186 35.9641 36.7406 35.6766 36.5259C35.3533 36.3471 35.3533 35.7389 35.7485 35.1665C36.1078 34.5941 36.6467 34.3079 36.9341 34.4868C37.2575 34.6657 37.2216 35.2738 36.8623 35.8462Z" fill="white"/>
<path d="M37.7964 36.1324C37.4371 36.669 36.8982 36.9552 36.6108 36.7763C36.2515 36.5975 36.2874 35.9893 36.6826 35.4169C37.0419 34.8803 37.5808 34.5941 37.8683 34.773C38.1557 34.9519 38.1198 35.56 37.7964 36.1324Z" fill="white"/>
<path d="M38.5509 36.5617C38.0838 37.0625 37.4731 37.2056 37.2575 36.991C37.006 36.7406 37.1497 36.1682 37.6168 35.6674C38.0838 35.2023 38.6587 35.0234 38.9102 35.2738C39.1617 35.4885 39.018 36.0966 38.5509 36.5617Z" fill="white"/>
<path d="M39.521 37.0983C39.018 37.5634 38.4431 37.6707 38.1916 37.4203C37.976 37.1699 38.1916 36.5975 38.6946 36.1682C39.1976 35.7031 39.8084 35.5958 40.024 35.8462C40.2395 36.0966 40.0239 36.669 39.521 37.0983Z" fill="white"/>
<path d="M40.3114 37.8496C39.7725 38.2789 39.1617 38.3504 38.9461 38.0642C38.7305 37.7422 38.982 37.2414 39.485 36.8121C40.024 36.3828 40.6347 36.3113 40.8503 36.5975C41.0659 36.8837 40.8144 37.4203 40.3114 37.8496Z" fill="white"/>
<path d="M40.9222 38.7081C40.3832 39.1374 39.7725 39.209 39.5569 38.887C39.3772 38.565 39.6287 38.0642 40.1677 37.6707C40.7066 37.2414 41.3174 37.1699 41.497 37.4918C41.7126 37.8138 41.4611 38.3504 40.9222 38.7081Z" fill="white"/>
<path d="M41.3174 39.8171C40.7784 40.1749 40.1677 40.2464 39.988 39.9245C39.7725 39.6025 40.0599 39.0301 40.6347 38.7081C41.1736 38.3504 41.7844 38.2789 41.9641 38.6008C42.1796 38.9228 41.8922 39.4594 41.3174 39.8171Z" fill="white"/>
<path d="M41.0299 40.9261C40.4192 41.1408 39.8084 41.0692 39.7006 40.7473C39.5569 40.4253 39.9162 39.9602 40.5269 39.7098C41.1737 39.4594 41.7844 39.5309 41.8922 39.8529C42.0719 40.2107 41.6407 40.6757 41.0299 40.9261Z" fill="white"/>
<path d="M40.024 41.7847C39.3772 41.6416 38.9461 41.2123 39.018 40.8546C39.0898 40.4968 39.7006 40.3537 40.3473 40.4968C40.9581 40.6399 41.4251 41.0692 41.3533 41.427C41.3174 41.7847 40.7066 41.9278 40.024 41.7847Z" fill="white"/>
<path d="M39.2695 42.536C38.6228 42.3929 38.1557 41.9636 38.2275 41.6058C38.2994 41.2481 38.9102 41.105 39.5569 41.2481C40.2036 41.3912 40.6707 41.8205 40.5629 42.1782C40.491 42.536 39.8802 42.6791 39.2695 42.536Z" fill="white"/>
<path d="M38.4072 43.1799C37.7605 43.0368 37.3293 42.6075 37.4012 42.2498C37.4731 41.8563 38.0838 41.7132 38.7305 41.892C39.3413 42.0351 39.8084 42.4644 39.7365 42.8222C39.6647 43.1799 39.0539 43.323 38.4072 43.1799Z" fill="white"/>
<path d="M37.4731 43.4661C36.8263 43.323 36.3593 42.8937 36.4671 42.536C36.5389 42.1782 37.1138 42.0351 37.7605 42.1782C38.4072 42.3213 38.8742 42.7506 38.8024 43.1083C38.7305 43.5019 38.1198 43.645 37.4731 43.4661Z" fill="white"/>
<path d="M32.479 45.1475C31.8323 44.9686 31.4012 44.5751 31.4731 44.1816C31.5449 43.8238 32.1557 43.6807 32.8024 43.8238C33.4491 44.0027 33.8802 44.3962 33.8084 44.7897C33.7365 45.1475 33.1257 45.3263 32.479 45.1475Z" fill="white"/>
<path d="M31.5449 45.7556C30.8982 45.6125 30.4311 45.1832 30.503 44.8255C30.5749 44.4678 31.1856 44.3247 31.8323 44.4678C32.479 44.6109 32.9461 45.0401 32.8383 45.3979C32.7665 45.7914 32.1557 45.9703 31.5449 45.7556Z" fill="white"/>
<path d="M30.7904 46.328C30.1437 46.1849 29.6766 45.7556 29.7485 45.3979C29.8204 45.0044 30.4311 44.8613 31.0778 45.0401C31.7246 45.1832 32.1916 45.6125 32.0838 45.9703C32.012 46.328 31.4371 46.5069 30.7904 46.328Z" fill="white"/>
<path d="M30.1796 46.9362C29.5329 46.7931 29.0659 46.3638 29.1377 46.006C29.2096 45.6125 29.8204 45.4694 30.4671 45.6125C31.1138 45.7914 31.5808 46.2207 31.4731 46.5784C31.4012 46.9362 30.8263 47.115 30.1796 46.9362Z" fill="white"/>
<path d="M29.1018 51.8014C28.4551 51.6583 27.988 51.2291 28.0599 50.8355C28.1677 50.4778 28.7425 50.3347 29.3892 50.4778C30.0359 50.6567 30.503 51.086 30.3952 51.4437C30.3234 51.8014 29.7485 51.9445 29.1018 51.8014Z" fill="white"/>
<path d="M30.1796 53.0177C29.5329 52.8389 29.1018 52.4454 29.1737 52.0519C29.2455 51.6941 29.8563 51.551 30.503 51.6941C31.1497 51.873 31.5808 52.2665 31.509 52.66C31.4371 53.0177 30.8263 53.1608 30.1796 53.0177Z" fill="white"/>
<path fill-rule="evenodd" clip-rule="evenodd" d="M32.3353 9.08726L35.7844 8.76529C36.2515 8.72952 36.6826 9.08726 36.7186 9.51655C36.7545 9.98161 36.3952 10.3751 35.9641 10.4467L32.515 10.7329C32.012 10.7686 31.6168 10.4109 31.5808 9.98161V9.94584C31.5449 9.48077 31.9042 9.12303 32.3353 9.08726Z" fill="white"/>
<path d="M32.8383 7.6563L31.7964 2.1471C31.7605 1.71781 31.976 0.215303 32.4072 0.179529L34.1677 0.00065895C34.5988 -0.0351151 35.1018 1.39585 35.1377 1.82513L35.0659 7.47743C35.1018 7.90672 34.8144 8.26446 34.3832 8.30023L33.7006 8.37178C33.2695 8.40755 32.8743 8.08559 32.8383 7.6563Z" fill="white"/>
<path fill-rule="evenodd" clip-rule="evenodd" d="M52.491 13.8094L55.006 16.1705C55.3653 16.4925 55.3653 16.9933 55.0419 17.3511C54.7186 17.7088 54.2156 17.7088 53.8563 17.3868L51.3054 15.0257C50.982 14.7038 50.9461 14.2029 51.2695 13.8452H51.3054C51.5928 13.4875 52.1317 13.4517 52.491 13.8094Z" fill="white"/>
<path d="M53.9641 13.1655L57.4132 8.69374C57.7365 8.336 58.9581 7.54898 59.2814 7.79939L60.5389 9.01571C60.8982 9.33768 60.1078 10.6255 59.8204 10.9117L55.6168 14.668C55.2934 14.99 54.8263 15.0257 54.503 14.7038L54 14.2387C53.7126 13.9525 53.6766 13.4517 53.9641 13.1655Z" fill="white"/>
<path d="M14.8024 17.9592L17.2814 15.5624C17.6407 15.2404 18.1796 15.2404 18.4671 15.5981H18.503C18.8263 15.9559 18.8263 16.4925 18.4671 16.7787L15.988 19.1755C15.6287 19.5333 15.0898 19.4975 14.8024 19.1755L14.7665 19.1398C14.479 18.8178 14.479 18.2812 14.8024 17.9592Z" fill="white"/>
<path d="M14.3713 16.4925L10.0599 12.8435C9.73653 12.5216 8.98204 11.2337 9.30539 10.9475L10.5629 9.73119C10.8862 9.48077 12.1796 10.2678 12.4671 10.554L15.9521 14.99C16.2754 15.3119 16.2754 15.777 15.9521 16.099L15.4491 16.5283C15.1617 16.8144 14.6587 16.8144 14.3713 16.4925Z" fill="white"/>
<path d="M8.83832 36.7763V33.3063C8.83832 32.8412 9.23353 32.4835 9.66467 32.4835H9.7006C10.1677 32.4835 10.5269 32.877 10.5269 33.3063V36.7763C10.5269 37.2414 10.1317 37.5991 9.7006 37.5991C9.23353 37.5991 8.83832 37.2414 8.83832 36.7763Z" fill="white"/>
<path d="M7.54491 36.0609L1.90419 36.5975C1.43713 36.5975 0 36.2397 0 35.8462V34.0933C0 33.6282 1.43713 33.2705 1.90419 33.2705L7.54491 33.8429C7.97605 33.8429 8.2994 34.2006 8.2994 34.5941V35.2381C8.2994 35.7031 7.97605 36.0609 7.54491 36.0609Z" fill="white"/>
<path fill-rule="evenodd" clip-rule="evenodd" d="M17.2096 55.6293L14.8383 53.0893C14.515 52.7673 14.515 52.2665 14.8743 51.9088C15.2335 51.5868 15.7725 51.5868 16.0599 51.9445L18.4311 54.4845C18.7904 54.8065 18.7545 55.3073 18.3952 55.665C18.0719 55.987 17.5329 55.987 17.2096 55.6293Z" fill="white"/>
<path d="M15.7725 55.987L12.0359 60.2083C11.7126 60.4587 10.3832 61.2458 10.1317 60.9238L8.91018 59.6359C8.65868 59.314 9.4491 58.0619 9.80838 57.7757L14.2994 54.3414C14.6228 54.091 15.0898 54.091 15.4132 54.3772L15.8802 54.878C16.0958 55.1642 16.0958 55.665 15.7725 55.987Z" fill="white"/>
<path d="M37.509 19.9626C37.1497 19.3902 37.1497 18.782 37.4731 18.6389C37.7964 18.4601 38.2994 18.7462 38.6587 19.3186C39.018 19.891 39.018 20.4992 38.6946 20.678C38.3713 20.8569 37.8323 20.5349 37.509 19.9626Z" fill="white"/>
<path d="M38.6228 19.9626C38.479 19.3186 38.6228 18.7105 38.982 18.6389C39.3772 18.5674 39.7365 19.0324 39.9162 19.6764C40.0599 20.3203 39.9162 20.8927 39.521 20.9642C39.1617 21.0358 38.7665 20.5707 38.6228 19.9626Z" fill="white"/>
<path d="M39.6287 20.6423C39.5928 19.9983 39.8443 19.426 40.2036 19.3902C40.5629 19.3544 40.8862 19.891 40.9222 20.5349C40.9581 21.1789 40.7425 21.787 40.3473 21.787C40.024 21.787 39.6647 21.2862 39.6287 20.6423Z" fill="white"/>
<path d="M40.491 21.2862C40.5988 20.6423 41.0299 20.1772 41.3892 20.2488C41.7485 20.3203 41.9281 20.8927 41.7844 21.5366C41.6766 22.1805 41.2455 22.6814 40.8862 22.6098C40.5269 22.5741 40.3473 21.9659 40.491 21.2862Z" fill="white"/>
<path d="M41.3174 22.2163C41.4611 21.5724 41.8922 21.1073 42.2515 21.1789C42.6108 21.2504 42.7545 21.8586 42.6108 22.5025C42.4671 23.1464 42.0359 23.6115 41.6766 23.5042C41.2814 23.4326 41.1018 22.8245 41.3174 22.2163Z" fill="white"/>
<path d="M41.7126 23.4326C42.0359 22.8245 42.503 22.4667 42.8263 22.6456C43.1856 22.7887 43.1856 23.3969 42.8982 24.005C42.5748 24.6132 42.1078 24.9709 41.7844 24.7921C41.4611 24.649 41.4251 24.005 41.7126 23.4326Z" fill="white"/>
<path d="M41.8563 24.5059C42.1796 23.8977 42.6467 23.54 43.006 23.7188C43.3293 23.8977 43.3653 24.5059 43.0419 25.0782C42.7186 25.6864 42.2515 26.0441 41.8922 25.8653C41.5689 25.6864 41.5329 25.0782 41.8563 24.5059Z" fill="white"/>
<path d="M34.0599 20.4276C34.3832 19.9268 36.1437 19.891 36.7186 20.5707C37.2934 21.2147 37.4012 22.6814 37.4012 23.4684C37.4012 24.2554 37.2934 25.6506 36.4671 25.6506C35.7126 25.6506 35.0299 25.4718 35.0299 24.005C35.0299 22.5741 35.2096 21.8944 34.6707 21.5366C34.0958 21.1073 33.7725 20.9285 34.0599 20.4276Z" fill="white"/>
<path d="M33.5928 19.8552C33.5928 19.8552 33.2335 18.6031 34.2395 18.2454C35.2455 17.8877 36 18.317 36 18.317C36 18.317 35.8922 19.7121 35.3892 19.8195C34.9222 19.9268 33.5928 19.8552 33.5928 19.8552Z" fill="white"/>
<path d="M24.9701 26.3303H45.8802C46.1317 26.3303 46.3832 26.545 46.3832 26.8312V27.3678C46.3832 27.6182 46.1677 27.8686 45.8802 27.8686C45.8802 27.8686 39.7725 27.9044 35.497 30.3012C31.2575 28.3695 24.9701 27.8686 24.9701 27.8686C24.6467 27.8686 24.4311 27.654 24.4311 27.3678V26.8312C24.4311 26.545 24.6467 26.3303 24.9701 26.3303Z" fill="white"/>
<path d="M26.3353 24.5416H27.2695C27.521 24.5416 27.7725 24.7563 27.7725 25.0782V30.1582C27.7725 30.4086 27.5569 30.659 27.2695 30.659H26.3353C26.0838 30.659 25.8323 30.4443 25.8323 30.1582V25.0782C25.8323 24.7563 26.0838 24.5416 26.3353 24.5416Z" fill="white"/>
<path d="M30.6467 24.5416H31.5449C31.7964 24.5416 32.0479 24.7563 32.0479 25.0782V30.1582C32.0479 30.4086 31.8323 30.659 31.5449 30.659H30.6467C30.3234 30.659 30.1078 30.4443 30.1078 30.1582V25.0782C30.1437 24.7563 30.3593 24.5416 30.6467 24.5416Z" fill="white"/>
<path d="M39.1257 24.5416H40.024C40.2754 24.5416 40.5269 24.7563 40.5269 25.0782V30.1582C40.5269 30.4086 40.3114 30.659 40.024 30.659H39.1257C38.8024 30.659 38.6228 30.4443 38.6228 30.1582V25.0782C38.6228 24.7563 38.8024 24.5416 39.1257 24.5416Z" fill="white"/>
<path d="M43.4731 24.5416H44.3713C44.6228 24.5416 44.8742 24.7563 44.8742 25.0782V30.1582C44.8742 30.4086 44.6587 30.659 44.3713 30.659H43.4731C43.1497 30.659 42.9701 30.4443 42.9701 30.1582V25.0782C43.006 24.7563 43.1856 24.5416 43.4731 24.5416Z" fill="white"/>
<path d="M29.3533 47.5443C28.7066 47.4012 28.2395 46.9719 28.3114 46.6142C28.3832 46.2207 28.994 46.0776 29.6407 46.2207C30.2874 46.3996 30.7545 46.8288 30.6467 47.1866C30.5749 47.5443 30.0359 47.6874 29.3533 47.5443Z" fill="white"/>
<path d="M28.8862 48.224C28.2395 48.0809 27.7725 47.6516 27.8443 47.2939C27.9162 46.9004 28.5269 46.7573 29.1737 46.9004C29.8204 47.0793 30.2874 47.5086 30.1796 47.8663C30.1437 48.224 29.5689 48.3671 28.8862 48.224Z" fill="white"/>
<path d="M28.6347 49.0111C27.988 48.868 27.521 48.4387 27.5928 48.0809C27.6647 47.6874 28.2754 47.5443 28.9222 47.6874C29.5689 47.8663 30.0359 48.2956 29.9281 48.6533C29.8563 49.0111 29.2814 49.1542 28.6347 49.0111Z" fill="white"/>
<path d="M28.491 49.9412C27.8443 49.7981 27.3772 49.3688 27.4491 49.0111C27.521 48.6175 28.1317 48.4744 28.7784 48.6175C29.4251 48.7964 29.8922 49.2257 29.7844 49.5835C29.7126 49.9412 29.1377 50.0843 28.491 49.9412Z" fill="white"/>
<path d="M28.6347 50.8713C27.988 50.7282 27.521 50.2989 27.5928 49.9412C27.6647 49.5477 28.2754 49.4046 28.9222 49.5477C29.5689 49.7265 30.0359 50.1558 29.9281 50.5136C29.8563 50.8713 29.2814 51.0144 28.6347 50.8713Z" fill="white"/>
<path d="M36.2874 19.891C35.9281 19.3186 35.9281 18.7105 36.2515 18.5674C36.5748 18.3885 37.0778 18.6747 37.4371 19.2471C37.7964 19.8195 37.7964 20.4276 37.4731 20.6065C37.1856 20.7854 36.6467 20.4634 36.2874 19.891Z" fill="white"/>
<path d="M34.9581 40.1749H37.6168V45.1475H34.9581V40.1749Z" fill="white"/>
<path d="M33.2695 41.5343H35.1377V46.8288H33.2695V41.5343Z" fill="white"/>
</svg>
