<svg width="85" height="85" viewBox="0 0 85 85" fill="none" xmlns="http://www.w3.org/2000/svg">
<path d="M32.8409 0C50.9556 0 65.6818 14.7263 65.6818 32.8409C65.6818 41.2004 62.539 48.8322 57.381 54.6342C57.381 54.6342 84.2891 81.5269 84.4869 81.7401C84.8068 82.0848 85 82.5608 85 83.0682C85 84.1351 84.1351 85 83.0682 85C82.591 85 82.1677 84.834 81.8306 84.5472C81.5813 84.3351 54.6342 57.3509 54.6342 57.3509C48.8303 62.5168 41.2076 65.6818 32.8409 65.6818C14.7263 65.6818 0 50.9556 0 32.8409C0 14.7263 14.7263 0 32.8409 0ZM32.8409 3.86364C16.8143 3.86364 3.86364 16.8143 3.86364 32.8409C3.86364 48.8675 16.8143 61.8182 32.8409 61.8182C48.8675 61.8182 61.8182 48.8675 61.8182 32.8409C61.8182 16.8143 48.8675 3.86364 32.8409 3.86364Z" fill="#0045A0"/>
<path d="M32.8409 0C50.9556 0 65.6818 14.7263 65.6818 32.8409C65.6818 41.2004 62.539 48.8322 57.381 54.6342C57.381 54.6342 84.2891 81.5269 84.4869 81.7401C84.8068 82.0848 85 82.5608 85 83.0682C85 84.1351 84.1351 85 83.0682 85C82.591 85 82.1677 84.834 81.8306 84.5472C81.5813 84.3351 54.6342 57.3509 54.6342 57.3509C48.8303 62.5168 41.2076 65.6818 32.8409 65.6818C14.7263 65.6818 0 50.9556 0 32.8409C0 14.7263 14.7263 0 32.8409 0ZM32.8409 3.86364C16.8143 3.86364 3.86364 16.8143 3.86364 32.8409C3.86364 48.8675 16.8143 61.8182 32.8409 61.8182C48.8675 61.8182 61.8182 48.8675 61.8182 32.8409C61.8182 16.8143 48.8675 3.86364 32.8409 3.86364Z" fill="url(#paint0_linear)"/>
<path d="M35.3446 41.7063H29.3594V46.6195H25.947V41.7063H22.2487V38.8835H25.947V36.4358H22.2487V33.6308H25.947V20.6064H35.5411C38.3282 20.6064 40.5377 21.3151 42.1695 22.7325C43.8012 24.1498 44.6171 26.0675 44.6171 28.4854C44.6171 31.0224 43.831 32.9817 42.2588 34.3633C40.6985 35.7331 38.4771 36.4239 35.5947 36.4358H29.3594V38.8835H35.3446V41.7063ZM29.3594 33.6308H35.5411C37.3873 33.6308 38.7928 33.1961 39.7575 32.3266C40.7223 31.4571 41.2047 30.1886 41.2047 28.5211C41.2047 27.0084 40.7044 25.7876 39.7039 24.8585C38.7034 23.9176 37.3516 23.4412 35.6483 23.4292H29.3594V33.6308Z" fill="#0045A0"/>
<path d="M35.3446 41.7063H29.3594V46.6195H25.947V41.7063H22.2487V38.8835H25.947V36.4358H22.2487V33.6308H25.947V20.6064H35.5411C38.3282 20.6064 40.5377 21.3151 42.1695 22.7325C43.8012 24.1498 44.6171 26.0675 44.6171 28.4854C44.6171 31.0224 43.831 32.9817 42.2588 34.3633C40.6985 35.7331 38.4771 36.4239 35.5947 36.4358H29.3594V38.8835H35.3446V41.7063ZM29.3594 33.6308H35.5411C37.3873 33.6308 38.7928 33.1961 39.7575 32.3266C40.7223 31.4571 41.2047 30.1886 41.2047 28.5211C41.2047 27.0084 40.7044 25.7876 39.7039 24.8585C38.7034 23.9176 37.3516 23.4412 35.6483 23.4292H29.3594V33.6308Z" fill="url(#paint1_linear)"/>
<defs>
<linearGradient id="paint0_linear" x1="0" y1="0" x2="102.215" y2="51.1895" gradientUnits="userSpaceOnUse">
<stop stop-color="#FF6262"/>
<stop offset="1" stop-color="#FF6262" stop-opacity="0"/>
</linearGradient>
<linearGradient id="paint1_linear" x1="0" y1="0" x2="102.215" y2="51.1895" gradientUnits="userSpaceOnUse">
<stop stop-color="#FF6262"/>
<stop offset="1" stop-color="#FF6262" stop-opacity="0"/>
</linearGradient>
</defs>
</svg>
