<svg width="21" height="32" viewBox="0 0 21 32" fill="none" xmlns="http://www.w3.org/2000/svg">
<path d="M6 9.5C6 7.0147 8.0147 5 10.5 5C12.9853 5 15 7.0147 15 9.5C15 11.9853 12.9853 14 10.5 14C8.0147 14 6 11.9853 6 9.5ZM21 10.2085C21 4.6667 15.8601 0 10.2377 0C5.0029 0 0 4.0782 0 9.8439C0 10.9689 0.4136 12.9472 0.8277 14.2241C2.2127 17.9294 10.8572 31.6352 11 31.5C15 24.3333 17.6667 20.5 20.1125 14.2703C20.5559 12.9696 21 10.646 21 10.2085Z" fill="#FF6262"/>
<path fill-rule="evenodd" clip-rule="evenodd" d="M5 9.5C5 6.46242 7.46242 4 10.5 4C13.5376 4 16 6.46242 16 9.5C16 12.5376 13.5376 15 10.5 15C7.46242 15 5 12.5376 5 9.5ZM20 10.2085C20 5.28082 15.3717 1 10.2377 1C5.4681 1 1 4.71373 1 9.8439C1 10.8155 1.37607 12.6654 1.77204 13.8943C2.09246 14.7428 2.85143 16.2221 3.85441 18.0181C4.8538 19.8076 6.06193 21.8527 7.23438 23.7831C8.40651 25.713 9.53911 27.5219 10.386 28.8375C10.5738 29.1294 10.747 29.3959 10.9028 29.6333C11.7106 28.2084 12.4586 26.9211 13.1584 25.7167C15.5806 21.5481 17.4255 18.3729 19.1731 13.9266C19.373 13.3346 19.5821 12.4861 19.7436 11.7116C19.8244 11.3241 19.8908 10.967 19.9366 10.6849C19.9595 10.5435 19.9764 10.4259 19.9872 10.3356C19.9964 10.2595 19.999 10.2211 19.9997 10.2104C20 10.2069 20 10.2064 20 10.2085ZM20.1125 14.2703C18.3326 18.8038 16.4358 22.0682 13.9932 26.2717C13.2289 27.5871 12.4112 28.9943 11.5269 30.5612C11.5138 30.5844 11.5008 30.6076 11.4877 30.6308C11.3273 30.9152 11.1648 31.2048 11 31.5C10.9966 31.5032 10.9883 31.4985 10.9753 31.4862C10.9555 31.4674 10.9247 31.4306 10.8837 31.3772C10.7826 31.2453 10.6197 31.0119 10.4066 30.6945C10.3885 30.6674 10.37 30.6398 10.3511 30.6116C8.29321 27.5319 1.99262 17.3406 0.8277 14.2241C0.4136 12.9472 0 10.9689 0 9.8439C0 4.0782 5.0029 0 10.2377 0C15.8601 0 21 4.6667 21 10.2085C21 10.646 20.5559 12.9696 20.1125 14.2703ZM10.5 5C8.0147 5 6 7.0147 6 9.5C6 11.9853 8.0147 14 10.5 14C12.9853 14 15 11.9853 15 9.5C15 7.0147 12.9853 5 10.5 5Z" fill="black"/>
</svg>
