<svg width="60" height="60" viewBox="0 0 60 60" fill="none" xmlns="http://www.w3.org/2000/svg">
<path d="M30 60C46.5685 60 60 46.5685 60 30C60 13.4315 46.5685 0 30 0C13.4315 0 0 13.4315 0 30C0 46.5685 13.4315 60 30 60Z" fill="white"/>
<path d="M44.6677 41.9157C40.6631 38.8936 36.7816 36.92 35.9191 36.4882C35.7959 36.4265 35.7342 36.3032 35.7342 36.1798V29.3955C36.5968 28.8404 37.1513 27.8536 37.1513 26.7434V19.6506C37.1513 16.1351 34.3172 13.298 30.8054 13.298H30.0045H29.2652C25.7534 13.298 22.9193 16.1351 22.9193 19.6506V26.7434C22.9193 27.8536 23.4738 28.8404 24.3363 29.3955V36.1798C24.3363 36.3032 24.2747 36.4265 24.1515 36.4882C23.289 36.92 19.3459 38.8936 15.4028 41.9157C18.6066 45.5546 23.1041 47.96 28.2178 48.4534L29.2652 43.6427C26.3079 39.5104 29.5116 39.2636 30.0661 39.2636C30.6206 39.2636 33.8243 39.4487 30.867 43.6427L31.9144 48.4534C36.9048 47.96 41.464 45.5546 44.6677 41.9157Z" fill="#0045A0"/>
</svg>
