<svg width="60" height="60" viewBox="0 0 60 60" fill="none" xmlns="http://www.w3.org/2000/svg">
<circle cx="30" cy="30" r="30" fill="white"/>
<path d="M24.375 13C22.5052 13 21 14.5895 21 16.5639V42.6995C21 44.6739 22.5052 46.2634 24.375 46.2634H35.625C37.4948 46.2634 39 44.6739 39 42.6995V16.5639C39 14.5895 37.4948 13 35.625 13H24.375ZM22.875 16.9599H37.125V40.7195H22.875V16.9599ZM30 41.9075C30.8284 41.9075 31.5 42.6167 31.5 43.4915C31.5 44.3663 30.8284 45.0754 30 45.0754C29.1716 45.0754 28.5 44.3663 28.5 43.4915C28.5 42.6167 29.1716 41.9075 30 41.9075Z" fill="#0045A0"/>
</svg>
