<svg width="60" height="60" viewBox="0 0 60 60" fill="none" xmlns="http://www.w3.org/2000/svg">
<circle opacity="0.15" cx="30" cy="30" r="30" fill="white"/>
<path d="M24.375 13C22.5052 13 21 14.5769 21 16.5357V42.4643C21 44.4231 22.5052 46 24.375 46H35.625C37.4948 46 39 44.4231 39 42.4643V16.5357C39 14.5769 37.4948 13 35.625 13H24.375ZM22.875 16.9286H37.125V40.5H22.875V16.9286ZM30 41.6786C30.8284 41.6786 31.5 42.3821 31.5 43.25C31.5 44.1179 30.8284 44.8214 30 44.8214C29.1715 44.8214 28.5 44.1179 28.5 43.25C28.5 42.3821 29.1715 41.6786 30 41.6786Z" fill="white"/>
</svg>
