<svg width="240" height="235" viewBox="0 0 240 235" fill="none" xmlns="http://www.w3.org/2000/svg">
<path d="M111 86.8163C110.802 87.4368 110.774 88.0573 110.915 88.7061C111.028 89.1856 111.31 89.5804 111.791 89.7497C112.187 89.8907 112.61 89.9189 113.034 90.0035C113.345 90.0035 113.656 89.9471 113.995 89.9753C114.645 90.0035 115.069 89.6651 115.323 89.1009C115.549 88.5932 115.662 88.0573 115.578 87.5214C115.323 85.7163 114.956 83.9111 114.475 82.1624C114.362 81.7675 114.278 81.2598 113.769 81.2598C113.345 80.8932 113.119 81.4009 112.893 82.0496C112.356 83.6573 111.508 85.1804 111 86.8163Z" fill="white"/>
<path d="M117.951 89.9471C118.347 90.0035 118.771 89.9753 119.223 90.0035C119.505 89.9471 119.816 89.8625 120.155 89.8061C120.805 89.7215 121.144 89.3266 121.314 88.7343C121.455 88.1984 121.455 87.6625 121.286 87.1266C120.721 85.3778 120.042 83.6855 119.279 82.0214C119.11 81.6547 118.912 81.1752 118.403 81.2316C117.923 81.288 117.81 81.7675 117.697 82.1624C117.217 83.8265 116.877 85.4906 116.651 87.2112C116.567 87.8317 116.651 88.4804 116.906 89.0727C117.103 89.524 117.443 89.8625 117.951 89.9471Z" fill="white"/>
<path d="M96.7856 78.8624C97.7181 81.4855 101.222 83.347 104.896 81.9368C106.902 81.147 108.4 79.8778 110.067 78.7778C112.949 76.8598 114.023 74.2367 113.854 71.4443C113.656 68.2007 112.836 67.6648 110.095 67.2417C107.609 66.8469 105.235 66.8469 102.748 66.9879C101.816 67.0443 100.911 67.2135 100.007 67.4956C99.4419 67.693 98.9898 68.0033 98.6224 68.4828C97.4073 70.0341 96.7856 71.7828 96.4747 73.6726C96.3334 74.5469 96.1639 75.4495 96.2487 76.3521C96.3335 77.1982 96.4747 78.0444 96.7856 78.8624Z" fill="white"/>
<path d="M120.918 77.3675C122.84 79.088 125.214 80.5547 127.955 81.5137C131.911 82.8675 135.104 80.8086 135.895 78.2419C136.376 76.8034 136.404 75.3367 136.065 73.8982C135.613 71.67 134.878 69.5546 133.296 67.7776C132.928 67.3828 132.533 67.1289 132.024 66.9597C130.809 66.5648 129.594 66.5648 128.35 66.5648C125.722 66.593 123.207 66.8187 120.579 67.552C119.421 67.8623 118.771 68.5674 118.545 69.6392C117.923 72.4315 118.432 75.1675 120.918 77.3675Z" fill="white"/>
<path d="M240 71.3597C238.898 69.6956 237.457 69.7238 236.016 69.4982C234.094 69.2161 231.748 69.4136 230.364 68.1443C227.453 65.493 224.599 65.9725 221.462 66.5366C218.523 67.0725 215.528 67.2981 212.561 67.552C211.657 67.6366 210.668 67.552 210.47 66.0289C210.328 64.8443 211.035 64.2238 211.713 63.8289C212.646 63.293 213.635 62.5596 214.596 62.5878C223.356 62.8417 230.477 55.5083 239.124 54.8878C234.857 50.3467 229.827 48.88 224.882 47.2441C223.384 46.7364 221.349 46.539 221.123 44.48C220.869 42.1107 223.186 41.5748 224.401 40.3056C224.825 39.8543 225.729 40.1081 226.266 39.7132C229.233 37.626 233.161 39.0081 236.694 35.2004C230.477 34.044 224.882 35.426 219.626 32.8875C213.211 29.8131 205.609 34.0722 199.59 28.0362C199.421 27.867 199.082 27.9516 198.827 27.9516C190.095 27.9234 182.013 23.1567 173.338 22.4797C170.088 22.2259 166.867 21.8592 163.645 22.3951C159.294 23.1002 154.97 23.8618 150.562 23.9464C143.864 24.0874 137.054 20.0541 130.47 24.849C129.989 25.2157 129.198 24.9054 128.548 24.9054C124.649 24.99 120.805 24.9618 116.906 25.8362C112.752 26.7669 108.456 26.5977 104.218 26.9644C93.2533 27.8952 82.5433 24.5105 71.692 23.6361C65.8707 23.1567 60.0212 23.5797 54.2282 22.6772C48.2656 21.7464 42.3878 21.6054 36.4535 23.4387C32.2148 24.7362 27.9195 25.3849 23.3981 24.1156C19.1028 22.9028 15.0053 19.5464 10.3144 21.2951V14.9489H10.4557C10.9078 14.9489 11.2752 14.5822 11.2752 14.1309V12.7489C11.2752 12.354 10.9926 12.0155 10.6252 11.9309C12.236 10.7181 13.2815 8.80009 13.2815 6.62828C13.2815 2.96157 10.3144 0 6.64076 0C2.96715 0 0 2.96157 0 6.62828C0 8.80009 1.04557 10.7181 2.65631 11.9309C2.28894 12.0155 2.00636 12.3258 2.00636 12.7489V14.1309C2.00636 14.5822 2.37372 14.9489 2.82586 14.9489H2.96715V235H10.3426V166.892C14.1858 167.286 18.029 166.779 21.8439 166.694C30.5475 166.497 38.8273 161.448 47.87 163.845C51.2045 164.72 54.8781 165.538 58.6083 165.086C69.177 163.845 79.7457 163.62 90.3426 165.876C95.2596 166.92 100.374 167.174 105.348 166.892C113.147 166.44 120.862 162.802 128.803 166.017C130.385 166.666 132.137 165.82 133.776 165.284C139.682 163.45 146.125 162.661 151.494 164.945C160.876 168.922 169.467 164.889 178.255 163.479C185.263 162.35 192.102 159.953 199.336 160.263C204.875 160.489 210.498 159.953 216.037 159.191C220.558 158.571 225.221 158.627 229.77 156.85C228.64 154.735 227.086 155.243 225.758 155.214C219.908 155.186 214.341 151.971 208.407 152.845C207.22 153.014 205.92 151.999 205.751 150.532C205.525 148.727 207.164 148.53 207.983 148.755C212.646 150.053 216.884 147.402 221.321 146.64C225.701 145.878 230.223 145.173 235.083 142.071C229.827 140.886 225.673 139.617 221.66 136.796C217.93 134.173 212.928 135.922 208.661 134.06C209.876 130.253 213.183 131.183 215.245 129.378C209.113 122.553 201.625 124.358 194.023 123.737C195.549 121.594 196.877 121.199 198.234 120.747C203.914 118.886 209.905 118.435 215.585 117.504C223.893 116.122 230.449 110.706 237.909 107.632C238.417 107.406 239.067 106.588 239.124 105.968C239.209 105.009 238.361 104.699 237.739 104.755C231.07 105.488 224.627 100.609 217.845 103.458C216.602 103.965 215.33 103.26 214.115 102.527C209.905 99.9318 205.553 97.8728 200.692 99.1139C200.127 99.2549 199.392 99.7062 199.138 98.1831C202.162 96.6036 205.072 94.46 208.266 93.5292C215.924 91.301 223.356 87.9445 231.212 86.8445C233.133 86.5907 235.083 86.365 236.976 85.8855C239.378 85.2932 239.407 82.7265 237.683 82.0778C234.8 80.9778 233.614 76.6624 229.968 77.3957C232.455 72.2623 237.457 75.1957 240 71.3597ZM91.8969 49.8108C95.8531 43.0133 101.9 39.2902 110.208 37.7389C111.226 37.5414 112.3 37.4286 113.345 37.344C114.165 37.2876 115.012 37.344 115.86 37.344C122.812 37.3158 128.774 39.2902 133.578 43.2671C138.495 47.3287 141.462 52.6595 142.621 59.5134C143.412 64.1109 142.96 68.7084 141.801 73.1931C141.293 75.1111 140.841 77.029 140.276 78.9188C140.191 79.229 140.106 79.4829 140.389 79.7932C142.028 81.5983 142.084 83.7419 141.66 85.8855C141.349 87.3522 140.643 88.5932 139.626 89.5804C138.156 91.0189 136.545 92.26 134.567 93.0215C134.002 93.2471 133.465 93.3036 132.844 93.1625C131.713 92.9087 130.611 92.9369 129.537 93.1907C127.672 93.6702 126.853 99.0857 126.824 101.004C126.824 101.399 126.853 101.793 126.853 102.188C126.881 102.47 126.74 102.583 126.514 102.781C124.62 104.529 125.609 101.483 125.298 98.6344C125.27 98.3241 125.496 98.2395 124.988 98.2113C124.564 98.1831 124.79 98.2959 124.762 98.578C124.733 98.7472 124.762 102.357 124.762 102.527C124.818 103.063 124.62 103.345 124.055 103.429C123.32 103.514 122.614 103.627 121.907 103.768C121.399 103.852 121.229 103.655 121.229 103.204C121.229 102.611 121.201 99.0857 121.201 98.5216C121.201 98.2959 121.201 98.0139 120.834 98.0421C120.523 98.0703 120.551 98.3241 120.551 98.5216C120.551 99.1703 120.551 102.781 120.579 103.429C120.579 103.796 120.438 103.993 120.042 103.993C119.279 104.022 118.516 104.05 117.753 104.106C117.188 104.134 116.934 103.937 116.962 103.401C116.99 102.781 116.962 99.1985 116.962 98.578C116.962 98.3241 117.019 97.9857 116.623 98.0139C116.227 98.0139 116.341 98.3805 116.312 98.6062C116.312 99.2831 116.312 102.893 116.312 103.57C116.312 103.881 116.227 104.106 115.804 104.106C114.956 104.078 114.136 104.078 113.289 104.078C112.836 104.078 112.639 103.852 112.639 103.429C112.667 102.781 112.667 99.1703 112.667 98.5216C112.667 98.2959 112.695 98.0139 112.328 98.0421C112.017 98.0703 112.045 98.3241 112.045 98.5216C112.017 99.1703 112.017 102.781 112.017 103.429C112.017 103.796 111.876 103.937 111.48 103.909C110.576 103.852 109.671 103.711 108.795 103.542C108.428 103.486 108.372 103.232 108.372 102.922C108.4 102.442 108.4 99.0011 108.4 98.4934C108.4 98.2959 108.343 98.1267 108.061 98.1549C107.835 98.1831 107.778 98.3241 107.778 98.5216C107.75 98.9446 107.75 102.301 107.722 102.724C107.722 102.893 107.722 103.119 107.467 103.204C106.846 103.429 105.602 102.668 105.602 102.019C105.546 99.3959 104.105 93.6702 101.392 93.6984C101.081 93.6984 100.77 93.6702 100.459 93.7548C99.2723 94.0087 98.255 93.6984 97.3225 93.1343C95.4574 92.0061 93.6206 90.8497 92.462 88.9035C91.0491 86.5061 90.7383 83.8829 92.349 81.1188C92.6033 80.6957 92.4055 80.3573 92.2925 80.0188C91.2187 76.8316 90.2861 73.5598 89.4384 70.1751C87.6581 62.7853 88.3928 55.8185 91.8969 49.8108ZM172.264 134.878C171.699 136.571 170.258 137.727 168.562 138.066C169.862 139.56 170.427 141.478 169.834 143.171C168.901 145.907 165.454 147.091 162.148 145.822C158.983 144.609 157.061 141.619 157.683 138.996C157.711 138.912 157.655 138.827 157.598 138.799L117.103 123.399L77.1176 143.368C77.0328 143.396 77.0046 143.481 77.0329 143.566C77.9089 146.104 76.5807 149.122 73.9244 150.476C71.1268 151.886 67.9053 150.899 66.7185 148.276C65.9837 146.64 66.2381 144.75 67.1989 143.227C65.2773 143.143 63.61 142.212 62.8753 140.576C61.7167 137.953 63.3557 134.54 66.5489 132.932C69.7421 131.324 73.2745 132.171 74.4331 134.794C74.4613 134.878 74.5461 134.907 74.6874 134.963L106.167 119.224L72.0593 106.25C71.9746 106.222 71.8898 106.25 71.8615 106.334C70.7877 108.788 67.8206 109.945 65.0512 108.873C62.1406 107.773 60.5016 104.642 61.4341 101.934C61.9993 100.242 63.4405 99.0857 65.136 98.7472C63.8361 97.2523 63.2709 95.3344 63.8644 93.642C64.7969 90.9061 68.2444 89.7215 71.5507 90.9907C74.8852 92.2599 76.835 95.5036 75.9025 98.2113C75.8742 98.2959 75.9025 98.3805 75.959 98.5216L116.623 114.006L156.779 93.9523C156.807 93.8112 156.835 93.7266 156.807 93.642C155.648 91.0189 156.976 87.7753 159.774 86.365C162.572 84.9548 165.793 85.9419 166.98 88.565C167.715 90.201 167.46 92.0907 166.499 93.6138C168.421 93.6984 170.088 94.6292 170.823 96.2651C171.982 98.8882 170.343 102.301 167.149 103.909C164.097 105.432 160.763 104.755 159.435 102.414C159.407 102.329 159.322 102.301 159.237 102.358L127.531 118.181L161.441 131.071C161.554 130.986 161.639 130.958 161.667 130.873C162.6 128.137 165.708 126.84 168.619 127.94C171.558 129.04 173.168 132.142 172.264 134.878Z" fill="white"/>
</svg>
