<svg width="105" height="26" viewBox="0 0 105 26" fill="none" xmlns="http://www.w3.org/2000/svg">
<path d="M36.33 25.6517C36.015 25.5467 35.7 25.5467 35.385 25.4417C35.28 24.9167 35.28 24.3917 35.28 23.9717C35.28 23.4467 35.385 23.0267 35.385 22.5017C35.805 22.6067 36.225 22.7117 36.645 22.8167C37.38 22.9217 38.22 23.0267 39.06 23.0267C40.11 23.1317 41.16 22.8167 41.895 22.1867C42.525 21.5567 42.84 20.6117 42.735 19.6667V19.4567C42.315 19.5617 41.895 19.6667 41.475 19.7717C40.95 19.8767 40.53 19.8767 40.005 19.8767C39.06 19.8767 38.01 19.7717 37.065 19.3517C36.33 19.0367 35.7 18.6167 35.175 17.9867C34.65 17.3567 34.335 16.6217 34.23 15.8867C34.02 14.9417 33.915 14.1017 33.915 13.1567V5.07166C34.44 4.96666 35.07 4.96666 35.595 4.96666C36.12 4.96666 36.75 5.07166 37.275 5.07166V12.7367C37.275 13.3667 37.275 14.1017 37.38 14.7317C37.485 15.2567 37.59 15.6767 37.905 16.0967C38.115 16.4117 38.43 16.7267 38.85 16.8317C39.27 17.0417 39.795 17.0417 40.32 17.0417C40.74 17.0417 41.265 17.0417 41.685 16.9367C42 16.8317 42.42 16.8317 42.735 16.7267V5.17666C43.26 5.07166 43.89 5.07166 44.415 5.07166C44.94 5.07166 45.57 5.17666 46.095 5.17666V17.5667V19.2467C46.095 21.5567 45.465 23.2367 44.31 24.2867C42.735 25.4417 40.845 26.0717 38.955 25.8617C38.01 25.8617 37.17 25.7567 36.33 25.6517ZM71.82 19.9817C70.665 19.9817 69.51 19.7717 68.46 19.4567C67.62 19.1417 66.78 18.6167 66.15 17.8817C65.52 17.1467 65.1 16.4117 64.785 15.4667C64.47 14.5217 64.365 13.4717 64.365 12.4217C64.365 11.2667 64.575 10.1117 64.89 9.06166C65.205 8.11666 65.73 7.38166 66.36 6.64666C66.99 6.01666 67.725 5.49166 68.565 5.17666C69.405 4.86166 70.245 4.65166 71.085 4.65166C72.87 4.54666 74.55 5.28166 75.81 6.54166C77.07 8.11666 77.595 10.1117 77.49 12.1067C77.49 12.3167 77.49 12.5267 77.49 12.7367C77.49 12.9467 77.49 13.1567 77.49 13.3667H67.935C67.935 14.4167 68.46 15.3617 69.195 16.0967C70.14 16.8317 71.19 17.1467 72.345 17.0417C73.08 17.0417 73.815 16.9367 74.55 16.8317C75.075 16.7267 75.6 16.5167 76.125 16.4117C76.23 16.9367 76.23 17.3567 76.23 17.8817C76.23 18.4067 76.125 18.8267 76.125 19.3517C76.125 19.3517 75.39 19.5617 74.655 19.7717C74.235 19.8767 73.71 19.9817 73.29 19.9817C72.765 19.9817 72.345 20.0867 71.82 19.9817ZM69.72 7.80166C69.3 8.01166 68.985 8.22166 68.775 8.53666C68.46 8.85166 68.25 9.27166 68.145 9.58666C68.04 10.0067 67.935 10.4267 67.83 10.8467H74.13C74.13 10.4267 74.025 9.90166 73.92 9.48166C73.815 9.06166 73.605 8.74666 73.395 8.43166C73.185 8.11666 72.87 7.90666 72.45 7.69666C72.03 7.48666 71.61 7.38166 71.19 7.38166C70.56 7.59166 70.14 7.69666 69.72 7.80166ZM96.81 19.9817C95.97 19.9817 95.025 19.8767 94.185 19.5617C93.555 19.3517 92.925 18.9317 92.505 18.3017C92.085 17.7767 91.77 17.0417 91.665 16.4117C91.455 15.5717 91.35 14.7317 91.455 13.7867V1.60666C91.98 1.50166 92.61 1.50166 93.135 1.50166C93.66 1.50166 94.29 1.60666 94.815 1.60666V5.07166H98.07C98.175 5.49166 98.175 5.91166 98.175 6.33166C98.175 6.75166 98.07 7.17166 98.07 7.59166H94.815V13.8917C94.71 14.7317 94.92 15.6767 95.34 16.4117C95.76 16.9367 96.495 17.2517 97.23 17.1467C97.755 17.1467 98.28 17.0417 98.91 16.9367C99.33 16.8317 99.645 16.7267 100.065 16.5167C100.17 17.0417 100.17 17.4617 100.17 17.9867C100.17 18.4067 100.065 18.9317 100.065 19.3517C99.75 19.4567 99.435 19.5617 99.12 19.6667C98.49 19.8767 97.755 19.9817 97.02 19.9817H96.81ZM23.835 19.7717C23.205 19.6667 22.575 19.3517 21.945 18.9317C21.42 18.5117 21 18.0917 20.79 17.4617C20.475 16.7267 20.37 15.9917 20.37 15.2567C20.37 14.5217 20.475 13.7867 20.895 13.1567C21.21 12.6317 21.63 12.1067 22.26 11.7917C22.89 11.3717 23.52 11.1617 24.15 11.0567C24.885 10.8467 25.725 10.8467 26.46 10.8467C27.615 10.8467 28.98 10.8467 28.98 10.8467C28.98 10.4267 28.875 9.90166 28.875 9.48166C28.665 8.74666 28.14 8.22166 27.51 7.90666C27.09 7.69666 26.565 7.69666 26.04 7.69666C25.305 7.69666 24.57 7.80166 23.94 7.90666C23.31 8.01166 22.575 8.11666 21.945 8.32666C21.84 7.90666 21.84 7.38166 21.84 6.96166C21.84 6.54166 21.945 6.01666 21.945 5.59666C22.575 5.38666 23.205 5.28166 23.835 5.17666C24.675 5.07166 25.62 4.96666 26.46 4.96666C27.405 4.96666 28.35 5.07166 29.295 5.38666C30.03 5.59666 30.66 6.01666 31.08 6.54166C31.5 7.06666 31.92 7.69666 32.025 8.32666C32.235 9.06166 32.34 9.90166 32.34 10.6367V19.7717C32.34 19.7717 30.975 19.8767 29.4 19.9817C28.245 20.0867 26.985 20.0867 26.355 20.0867H26.25C25.41 19.9817 24.57 19.8767 23.835 19.7717ZM26.25 13.2617C25.725 13.2617 25.305 13.3667 24.78 13.5767C24.465 13.6817 24.255 13.8917 24.045 14.2067C23.835 14.5217 23.73 14.8367 23.73 15.2567C23.625 15.8867 23.94 16.5167 24.465 16.9367C25.095 17.2517 25.83 17.4617 26.46 17.3567C27.3 17.3567 28.035 17.2517 28.875 17.1467V13.2617C28.875 13.2617 28.035 13.1567 27.09 13.1567H26.985C26.775 13.1567 26.46 13.1567 26.25 13.2617ZM87.36 19.6667L83.895 14.7317C83.895 14.7317 80.85 18.9317 80.43 19.6667C79.905 19.7717 79.38 19.7717 78.855 19.7717C78.225 19.7717 77.595 19.6667 76.965 19.6667L82.11 12.2117L77.175 5.07166C77.805 4.96666 78.435 4.96666 79.17 4.96666C79.8 4.96666 80.325 5.07166 80.955 5.07166L84 9.58666L87.15 5.07166C88.305 4.86166 89.565 4.86166 90.72 5.07166L85.785 12.0017L91.035 19.5617C90.405 19.6667 89.775 19.6667 89.145 19.6667C88.515 19.7717 87.885 19.7717 87.36 19.6667ZM47.775 19.6667V0.34666C48.3 0.24166 48.93 0.24166 49.56 0.24166C50.085 0.24166 50.715 0.34666 51.24 0.34666L59.43 13.9967V0.34666C60.06 0.24166 60.585 0.24166 61.215 0.24166C61.74 0.24166 62.37 0.34666 62.895 0.34666V19.6667C62.265 19.7717 61.74 19.7717 61.11 19.7717C60.48 19.7717 59.955 19.6667 59.325 19.6667L51.24 6.12166V19.6667C50.715 19.7717 50.085 19.7717 49.56 19.7717C48.93 19.7717 48.3 19.7717 47.775 19.6667ZM15.54 19.6667V0.24166C16.17 0.24166 16.695 0.13666 17.325 0.13666C17.85 0.13666 18.48 0.24166 19.005 0.24166V19.6667C18.48 19.7717 17.955 19.7717 17.325 19.7717C16.695 19.7717 16.17 19.7717 15.54 19.6667ZM0 19.6667V0.66166C0.945 0.45166 1.785 0.34666 2.73 0.24166C3.675 0.24166 4.62 0.13666 5.46 0.13666C7.665 0.0316603 9.975 0.55666 11.865 1.71166C13.44 2.76166 14.28 4.65166 14.07 6.54166C14.07 7.59166 13.86 8.53666 13.44 9.48166C13.02 10.3217 12.495 10.9517 11.655 11.4767C10.815 12.0017 9.87 12.4217 8.82 12.6317C7.77 12.7367 6.51 12.8417 5.25 12.8417H3.465V19.6667C2.835 19.7717 2.31 19.7717 1.68 19.7717C1.155 19.7717 0.525 19.7717 0 19.6667ZM5.67 3.18166C4.83 3.18166 4.095 3.28666 3.465 3.28666V9.90166H5.25C6.615 10.0067 7.875 9.69166 9.135 9.16666C10.08 8.64166 10.605 7.59166 10.5 6.43666C10.5 5.91166 10.395 5.38666 10.185 4.86166C9.975 4.44166 9.555 4.12666 9.135 3.81166C8.61 3.60166 8.085 3.39166 7.56 3.39166C7.035 3.28666 6.405 3.18166 5.67 3.18166ZM100.17 6.33166C100.17 5.70166 100.38 5.07166 100.905 4.65166C101.325 4.23166 101.955 3.91666 102.585 3.91666C103.95 3.91666 105 4.96666 105 6.33166C105 7.69666 103.95 8.74666 102.585 8.74666C101.22 8.74666 100.17 7.69666 100.17 6.33166ZM102.48 6.54166C102.585 6.54166 102.9 7.17166 103.005 7.17166C103.11 7.17166 103.11 7.17166 103.215 7.17166C103.32 7.17166 103.32 7.17166 103.425 7.17166C103.32 7.06666 102.9 6.43666 102.9 6.43666C103.11 6.33166 103.215 6.22666 103.215 6.01666C103.215 5.80666 103.215 5.70166 103.005 5.49166C102.9 5.49166 102.69 5.38666 102.48 5.38666C102.375 5.38666 102.375 5.38666 102.27 5.38666C102.165 5.38666 102.06 5.38666 102.06 5.38666V7.06666H102.165H102.27V6.54166H102.48ZM102.48 6.22666H102.375V5.70166C102.48 5.70166 102.48 5.70166 102.585 5.70166C102.69 5.70166 102.69 5.70166 102.795 5.70166H102.9C102.9 5.70166 103.005 5.70166 103.005 5.80666C103.005 5.91166 103.005 6.01666 103.005 6.12166C103.005 6.12166 103.005 6.22666 102.9 6.22666H102.795C102.585 6.22666 102.48 6.22666 102.48 6.22666Z" fill="white"/>
</svg>
