<svg width="111" height="68" viewBox="0 0 111 68" fill="none" xmlns="http://www.w3.org/2000/svg">
<path d="M33.1162 0.00186259H6.90055C3.10315 0.00186259 0 3.10501 0 6.90241V60.7202C0 64.5138 3.10315 67.6208 6.90055 67.6208H33.1162C36.9116 67.6208 40.0167 64.5157 40.0167 60.7202V6.90241C40.0167 3.10501 36.9116 0.00186259 33.1162 0.00186259ZM34.4951 54.5082H5.51777V8.97182H34.4951V54.5082ZM23.389 61.1036C23.389 62.9708 21.8765 64.4833 20.0093 64.4833C18.1421 64.4833 16.6296 62.9708 16.6296 61.1036C16.6296 59.2363 18.1421 57.7239 20.0093 57.7239C21.8765 57.7239 23.389 59.2363 23.389 61.1036Z" fill="white"/>
<path d="M111 61.0232V34.8095C111 31.0121 107.897 27.907 104.099 27.907H50.2836C46.49 27.907 43.383 31.0121 43.383 34.8095V61.0232C43.383 64.8206 46.4881 67.9257 50.2836 67.9257H104.099C107.897 67.9257 111 64.8206 111 61.0232ZM56.4937 62.4041V33.4267H102.032V62.4041H56.4937ZM49.8964 51.298C48.0291 51.298 46.5167 49.7836 46.5167 47.9183C46.5167 46.0529 48.0291 44.5386 49.8964 44.5386C51.7636 44.5386 53.278 46.0529 53.278 47.9183C53.278 49.7836 51.7636 51.298 49.8964 51.298Z" fill="white"/>
<path d="M44.0924 3.68296C74.5746 3.68296 77.1342 11.5524 77.3287 17.4802H72.2L78.8069 24.8424L85.4137 17.4802H81.0002C80.8057 9.51734 77.2467 0 44.0943 0" fill="white"/>
</svg>
