<svg width="350" height="417" viewBox="0 0 350 417" fill="none" xmlns="http://www.w3.org/2000/svg">
<path d="M28.9928 402.484C26.1109 404.396 22.727 405.415 19.2658 405.415C15.8047 405.415 12.4207 404.396 9.53882 402.484C8.94628 401.999 8.26377 401.636 7.53028 401.414C6.79679 401.192 6.02667 401.116 5.2639 401.191C4.50112 401.266 3.76063 401.49 3.0847 401.851C2.40877 402.211 1.81064 402.701 1.32446 403.292C0.838273 403.883 0.473561 404.563 0.251143 405.295C0.0287254 406.026 -0.0470425 406.794 0.0281658 407.555C0.103374 408.316 0.328086 409.054 0.68947 409.728C1.05085 410.402 1.54183 410.999 2.13438 411.484C2.26142 411.587 2.39641 411.686 2.5314 411.781C7.43402 415.171 13.258 416.988 19.2241 416.988C25.1903 416.988 31.0143 415.171 35.9169 411.781L40.6375 408.292C43.5224 406.377 46.9108 405.356 50.3764 405.356C53.842 405.356 57.2303 406.377 60.1153 408.292L64.8637 411.793C69.7663 415.183 75.5902 417 81.5564 417C87.5226 417 93.3465 415.183 98.2492 411.793L102.97 408.304C105.855 406.389 109.243 405.368 112.709 405.368C116.174 405.368 119.563 406.389 122.448 408.304L127.168 411.793C132.071 415.183 137.895 417 143.861 417C149.827 417 155.651 415.183 160.554 411.793L165.266 408.304C168.152 406.389 171.541 405.368 175.007 405.368C178.473 405.368 181.862 406.389 184.748 408.304L189.461 411.793C194.363 415.183 200.187 417 206.154 417C212.12 417 217.944 415.183 222.846 411.793L227.567 408.304C230.452 406.389 233.84 405.368 237.306 405.368C240.771 405.368 244.16 406.389 247.045 408.304L251.765 411.793C256.668 415.183 262.492 417 268.458 417C274.424 417 280.248 415.183 285.151 411.793L289.871 408.304C292.756 406.389 296.145 405.368 299.61 405.368C303.076 405.368 306.464 406.389 309.349 408.304L314.07 411.793C318.972 415.183 324.796 417 330.763 417C336.729 417 342.553 415.183 347.455 411.793C348.718 410.934 349.592 409.615 349.889 408.121C350.186 406.626 349.882 405.075 349.044 403.801C348.205 402.527 346.899 401.632 345.405 401.31C343.912 400.987 342.351 401.263 341.059 402.076C340.865 402.206 340.678 402.346 340.499 402.496C337.618 404.408 334.234 405.427 330.772 405.427C327.311 405.427 323.927 404.408 321.045 402.496L316.321 399.008C313.474 396.964 310.244 395.51 306.824 394.732L332.059 314.163C332.287 313.434 332.369 312.668 332.3 311.908C332.231 311.147 332.013 310.408 331.658 309.732C331.302 309.056 330.817 308.456 330.229 307.967C329.641 307.478 328.962 307.109 328.232 306.882C328.023 306.818 327.811 306.765 327.596 306.724L320.676 305.381V248.505C320.676 246.964 320.062 245.486 318.969 244.396C317.876 243.306 316.394 242.693 314.848 242.693H274.058V190.398C274.058 188.857 273.444 187.378 272.351 186.288C271.258 185.198 269.775 184.586 268.23 184.586H227.448V132.295C227.448 130.753 226.834 129.275 225.741 128.185C224.648 127.095 223.165 126.483 221.619 126.483H192.49V33.4841L268.234 29.889V66.4826C268.234 68.0241 268.848 69.5025 269.941 70.5925C271.034 71.6826 272.516 72.2949 274.062 72.2949C275.215 72.2949 276.342 72.6358 277.3 73.2745C278.258 73.9132 279.005 74.8209 279.447 75.883C279.888 76.945 280.003 78.1137 279.778 79.2412C279.553 80.3686 278.998 81.4043 278.183 82.2172C277.368 83.03 276.33 83.5836 275.199 83.8079C274.068 84.0321 272.897 83.917 271.832 83.4771C270.767 83.0372 269.856 82.2922 269.216 81.3364C268.576 80.3806 268.234 79.2568 268.234 78.1072H256.581C256.585 81.2997 257.468 84.4298 259.134 87.1557C260.8 89.8816 263.185 92.0985 266.029 93.5643C268.873 95.0301 272.066 95.6885 275.26 95.4674C278.453 95.2464 281.524 94.1545 284.138 92.3109C286.751 90.4674 288.807 87.9432 290.079 85.0138C291.352 82.0845 291.793 78.8627 291.354 75.7004C290.915 72.5381 289.614 69.5568 287.591 67.0822C285.569 64.6075 282.904 62.7346 279.886 61.6681V29.3387L286.004 29.0536C287.503 28.9843 288.917 28.3415 289.952 27.2589C290.987 26.1763 291.564 24.7373 291.563 23.2413V17.4211C291.563 12.8007 289.722 8.36961 286.446 5.10252C283.17 1.83543 278.727 0 274.094 0H175.009C170.376 0 165.933 1.83543 162.657 5.10252C159.381 8.36961 157.54 12.8007 157.54 17.4211V126.483H128.387C127.622 126.483 126.864 126.633 126.157 126.925C125.45 127.217 124.807 127.645 124.266 128.185C123.725 128.725 123.295 129.365 123.002 130.071C122.71 130.776 122.559 131.532 122.559 132.295V184.59H81.7847C80.239 184.59 78.7565 185.202 77.6635 186.292C76.5705 187.382 75.9565 188.861 75.9565 190.402V242.693H35.1745C33.6287 242.693 32.1463 243.306 31.0533 244.396C29.9602 245.486 29.3462 246.964 29.3462 248.505V305.385L22.4261 306.716C21.6743 306.859 20.9583 307.15 20.3191 307.57C19.6798 307.99 19.1299 308.531 18.7007 309.163C18.2715 309.795 17.9714 310.506 17.8177 311.254C17.664 312.001 17.6596 312.772 17.8048 313.522C17.846 313.736 17.8991 313.947 17.9636 314.155L43.2141 394.7C39.7938 395.478 36.5647 396.932 33.7174 398.976L28.9928 402.484ZM282.923 398.996L278.203 402.484C275.317 404.399 271.928 405.421 268.462 405.421C264.996 405.421 261.607 404.399 258.721 402.484L254.008 398.996C249.106 395.605 243.282 393.788 237.316 393.788C231.35 393.788 225.526 395.605 220.623 398.996L215.902 402.484C213.017 404.399 209.629 405.421 206.163 405.421C202.698 405.421 199.31 404.399 196.425 402.484L191.704 398.996C186.801 395.605 180.977 393.788 175.011 393.788C169.045 393.788 163.221 395.605 158.318 398.996L153.598 402.484C150.713 404.399 147.325 405.421 143.859 405.421C140.393 405.421 137.005 404.399 134.12 402.484L129.399 398.996C124.497 395.605 118.673 393.788 112.707 393.788C106.741 393.788 100.917 395.605 96.014 398.996L91.3013 402.484C88.4155 404.399 85.0266 405.421 81.5604 405.421C78.0942 405.421 74.7053 404.399 71.8195 402.484L67.0989 398.996C63.594 396.475 59.5341 394.83 55.2598 394.197L49.6657 376.337H300.357L294.763 394.173C290.484 394.809 286.423 396.465 282.923 399V398.996ZM309.032 303.152L227.448 287.513V254.318H309.032V303.152ZM157.528 254.318V280.81L134.223 285.28V254.318H157.528ZM192.486 254.318H215.791V285.276L192.486 280.806V254.318ZM262.405 242.697H192.49V196.211H262.405V242.697ZM215.795 138.107V184.59H192.49V138.107H215.795ZM180.837 277.571H169.185V34.5967L180.837 34.0147V277.571ZM169.185 17.4211C169.185 15.8796 169.799 14.4012 170.892 13.3112C171.985 12.2211 173.467 11.6088 175.013 11.6088H274.058C274.823 11.6088 275.581 11.7591 276.288 12.0512C276.996 12.3433 277.638 12.7714 278.179 13.3112C278.72 13.8509 279.15 14.4916 279.443 15.1968C279.736 15.902 279.886 16.6578 279.886 17.4211L169.185 22.9642V17.4211ZM134.223 138.107H157.528V184.59H134.223V138.107ZM87.613 196.211H157.528V242.693H87.613V196.211ZM40.9988 254.318H122.571V287.513L40.9988 303.152V254.318ZM175.009 289.291L318.989 316.903L303.997 364.716H46.0211L31.0296 316.903L175.009 289.291Z" fill="#0045A0"/>
</svg>
