<svg width="60" height="60" viewBox="0 0 60 60" fill="none" xmlns="http://www.w3.org/2000/svg">
<path d="M30 60C46.5685 60 60 46.5685 60 30C60 13.4315 46.5685 0 30 0C13.4315 0 0 13.4315 0 30C0 46.5685 13.4315 60 30 60Z" fill="white"/>
<path d="M36.8651 16H23.1349V18.9055H36.8651V16Z" fill="#0045A0"/>
<path d="M29.7046 23.8408C29.7955 23.801 29.8965 23.7811 30.0025 23.7811C30.1086 23.7811 30.2096 23.801 30.3005 23.8408C30.3005 23.8408 30.3005 23.8408 30.3055 23.8408L41.117 28.4925V20.398H18.883V28.4975L29.7046 23.8408C29.6995 23.8408 29.6995 23.8408 29.7046 23.8408Z" fill="#0045A0"/>
<path d="M30.76 25.6667V37.6915C30.76 38.1045 30.4217 38.4378 30.0025 38.4378C29.5834 38.4378 29.2451 38.1045 29.2451 37.6915V25.6667L13 32.6567L17.4943 45H42.5057L47 32.6567L30.76 25.6667Z" fill="#0045A0"/>
</svg>
