<svg width="140" height="136" viewBox="0 0 140 136" fill="none" xmlns="http://www.w3.org/2000/svg">
<path d="M11.5971 129.348C10.4444 130.115 9.09078 130.524 7.70633 130.524C6.32188 130.524 4.96829 130.115 3.81553 129.348C3.57851 129.153 3.30551 129.007 3.01211 128.919C2.71872 128.83 2.41067 128.799 2.10556 128.829C1.80045 128.859 1.50425 128.949 1.23388 129.094C0.963508 129.238 0.724255 129.435 0.529782 129.672C0.335309 129.909 0.189424 130.182 0.100457 130.475C0.0114902 130.769 -0.018817 131.077 0.0112663 131.382C0.0413496 131.687 0.131234 131.983 0.275788 132.253C0.420342 132.524 0.616734 132.763 0.853751 132.958C0.90457 132.999 0.958564 133.039 1.01256 133.077C2.97361 134.437 5.30318 135.165 7.68966 135.165C10.0761 135.165 12.4057 134.437 14.3668 133.077L16.255 131.678C17.409 130.909 18.7643 130.5 20.1506 130.5C21.5368 130.5 22.8921 130.909 24.0461 131.678L25.9455 133.081C27.9065 134.441 30.2361 135.17 32.6226 135.17C35.009 135.17 37.3386 134.441 39.2997 133.081L41.1879 131.682C42.3419 130.914 43.6972 130.504 45.0835 130.504C46.4697 130.504 47.8251 130.914 48.979 131.682L50.8673 133.081C52.8283 134.441 55.1579 135.17 57.5444 135.17C59.9308 135.17 62.2604 134.441 64.2215 133.081L66.1065 131.682C67.2608 130.914 68.6164 130.504 70.0029 130.504C71.3894 130.504 72.7449 130.914 73.8993 131.682L75.7843 133.081C77.7454 134.441 80.0749 135.17 82.4614 135.17C84.8479 135.17 87.1775 134.441 89.1385 133.081L91.0267 131.682C92.1807 130.914 93.5361 130.504 94.9223 130.504C96.3086 130.504 97.6639 130.914 98.8179 131.682L100.706 133.081C102.667 134.441 104.997 135.17 107.383 135.17C109.77 135.17 112.099 134.441 114.06 133.081L115.949 131.682C117.103 130.914 118.458 130.504 119.844 130.504C121.23 130.504 122.586 130.914 123.74 131.682L125.628 133.081C127.589 134.441 129.919 135.17 132.305 135.17C134.691 135.17 137.021 134.441 138.982 133.081C139.487 132.737 139.837 132.208 139.955 131.609C140.074 131.009 139.953 130.387 139.618 129.876C139.282 129.365 138.759 129.006 138.162 128.877C137.565 128.747 136.94 128.858 136.424 129.184C136.346 129.236 136.271 129.292 136.2 129.353C135.047 130.119 133.693 130.528 132.309 130.528C130.925 130.528 129.571 130.119 128.418 129.353L126.528 127.953C125.389 127.134 124.098 126.55 122.73 126.238L132.824 93.9224C132.915 93.6302 132.948 93.3228 132.92 93.0178C132.893 92.7128 132.805 92.4163 132.663 92.1451C132.521 91.8739 132.327 91.6333 132.092 91.4372C131.856 91.2411 131.585 91.0932 131.293 91.002C131.209 90.9762 131.124 90.9549 131.039 90.9384L128.27 90.4001V67.5872C128.27 66.9689 128.025 66.376 127.588 65.9388C127.15 65.5016 126.557 65.256 125.939 65.256H109.623V44.2805C109.623 43.6622 109.378 43.0693 108.94 42.6321C108.503 42.1949 107.91 41.9492 107.292 41.9492H90.9791V20.9754C90.9791 20.3571 90.7335 19.7641 90.2963 19.3269C89.8591 18.8897 89.2661 18.6441 88.6478 18.6441H76.996V13.4304L107.293 11.9884V18.6441C107.293 19.2624 107.539 19.8554 107.976 20.2926C108.414 20.7298 109.006 20.9754 109.625 20.9754C110.086 20.9754 110.537 21.1121 110.92 21.3683C111.303 21.6245 111.602 21.9886 111.779 22.4146C111.955 22.8406 112.001 23.3093 111.911 23.7615C111.821 24.2138 111.599 24.6292 111.273 24.9552C110.947 25.2812 110.532 25.5033 110.08 25.5932C109.627 25.6832 109.159 25.637 108.733 25.4606C108.307 25.2841 107.943 24.9853 107.686 24.6019C107.43 24.2185 107.293 23.7678 107.293 23.3067H102.632C102.634 24.5872 102.987 25.8427 103.654 26.936C104.32 28.0294 105.274 28.9186 106.412 29.5065C107.549 30.0945 108.826 30.3585 110.104 30.2699C111.381 30.1812 112.61 29.7432 113.655 29.0038C114.701 28.2644 115.523 27.2519 116.032 26.0769C116.541 24.902 116.717 23.6097 116.542 22.3413C116.366 21.073 115.845 19.8772 115.037 18.8846C114.228 17.892 113.161 17.1408 111.955 16.713V11.7677L114.402 11.6534C115.001 11.6256 115.567 11.3677 115.981 10.9335C116.395 10.4993 116.626 9.92209 116.625 9.32205V6.98757C116.625 5.13435 115.889 3.35703 114.578 2.04661C113.268 0.736188 111.491 0 109.637 0H70.0037C68.1505 0 66.3731 0.736188 65.0627 2.04661C63.7523 3.35703 63.0161 5.13435 63.0161 6.98757V18.6441H51.3548C51.0487 18.6441 50.7455 18.7044 50.4627 18.8216C50.1798 18.9387 49.9228 19.1104 49.7063 19.3269C49.4899 19.5434 49.3181 19.8004 49.201 20.0833C49.0838 20.3661 49.0235 20.6693 49.0235 20.9754V41.9508H32.7139C32.0956 41.9508 31.5026 42.1964 31.0654 42.6336C30.6282 43.0708 30.3826 43.6638 30.3826 44.2821V65.256H14.0698C13.4515 65.256 12.8585 65.5016 12.4213 65.9388C11.9841 66.376 11.7385 66.9689 11.7385 67.5872V90.4017L8.97045 90.9353C8.66973 90.993 8.38333 91.1093 8.12763 91.2778C7.87194 91.4463 7.65195 91.6635 7.48027 91.917C7.30859 92.1706 7.18857 92.4555 7.12708 92.7554C7.06559 93.0554 7.06384 93.3645 7.12192 93.6652C7.13842 93.751 7.15962 93.8358 7.18544 93.9193L17.2857 126.226C15.9175 126.538 14.6259 127.121 13.487 127.941L11.5971 129.348ZM113.169 127.949L111.281 129.348C110.127 130.116 108.771 130.526 107.385 130.526C105.998 130.526 104.643 130.116 103.488 129.348L101.603 127.949C99.6423 126.589 97.3128 125.86 94.9263 125.86C92.5398 125.86 90.2102 126.589 88.2492 127.949L86.3609 129.348C85.207 130.116 83.8516 130.526 82.4654 130.526C81.0791 130.526 79.7238 130.116 78.5698 129.348L76.6816 127.949C74.7205 126.589 72.391 125.86 70.0045 125.86C67.618 125.86 65.2884 126.589 63.3274 127.949L61.4392 129.348C60.2852 130.116 58.9298 130.526 57.5436 130.526C56.1573 130.526 54.802 130.116 53.648 129.348L51.7598 127.949C49.7987 126.589 47.4692 125.86 45.0827 125.86C42.6962 125.86 40.3666 126.589 38.4056 127.949L36.5205 129.348C35.3662 130.116 34.0107 130.526 32.6242 130.526C31.2377 130.526 29.8821 130.116 28.7278 129.348L26.8396 127.949C25.4376 126.938 23.8137 126.278 22.1039 126.024L19.8663 118.86H120.143L117.905 126.014C116.194 126.27 114.569 126.934 113.169 127.95V127.949ZM123.613 89.506L90.9791 83.2331V69.9186H123.613V89.506ZM63.0114 69.9186V80.5444L53.6893 82.3374V69.9186H63.0114ZM76.9944 69.9186H86.3165V82.3358L76.9944 80.5428V69.9186ZM104.962 65.2575H76.996V46.6118H104.962V65.2575ZM86.3181 23.3067V41.9508H76.996V23.3067H86.3181ZM72.335 79.2454H67.674V13.8767L72.335 13.6432V79.2454ZM67.674 6.98757C67.674 6.36927 67.9196 5.77629 68.3568 5.33909C68.794 4.90188 69.387 4.65626 70.0053 4.65626H109.623C109.929 4.65626 110.233 4.71656 110.515 4.83372C110.798 4.95088 111.055 5.1226 111.272 5.33909C111.488 5.55557 111.66 5.81257 111.777 6.09542C111.894 6.37826 111.955 6.68142 111.955 6.98757L67.674 9.21089V6.98757ZM53.6893 23.3067H63.0114V41.9508H53.6893V23.3067ZM35.0452 46.6118H63.0114V65.256H35.0452V46.6118ZM16.3995 69.9186H49.0283V83.2331L16.3995 89.506V69.9186ZM70.0037 83.9461L127.596 95.0214L121.599 114.199H18.4084L12.4118 95.0214L70.0037 83.9461Z" fill="#0062CC" fill-opacity="0.03"/>
</svg>
