<svg width="85" height="82" viewBox="0 0 85 82" fill="none" xmlns="http://www.w3.org/2000/svg">
<path d="M7.04112 78.4679C6.34123 78.9331 5.5194 79.1812 4.67884 79.1812C3.83829 79.1812 3.01646 78.9331 2.31657 78.4679C2.17267 78.35 2.00692 78.2615 1.82878 78.2075C1.65065 78.1535 1.46362 78.1351 1.27837 78.1534C1.09313 78.1716 0.913296 78.2262 0.749141 78.3139C0.584987 78.4016 0.439726 78.5207 0.321653 78.6645C0.20358 78.8083 0.115008 78.9739 0.0609919 79.1519C0.00697617 79.3299 -0.0114246 79.5167 0.00684026 79.7018C0.0251051 79.8869 0.0796779 80.0666 0.167443 80.2306C0.255208 80.3946 0.374446 80.5398 0.518349 80.6578C0.549203 80.6828 0.581986 80.7069 0.614768 80.73C1.80541 81.555 3.21979 81.9971 4.66872 81.9971C6.11765 81.9971 7.53204 81.555 8.72267 80.73L9.8691 79.8813C10.5697 79.4153 11.3926 79.1667 12.2343 79.1667C13.0759 79.1667 13.8988 79.4153 14.5994 79.8813L15.7526 80.7329C16.9432 81.5579 18.3576 82 19.8066 82C21.2555 82 22.6699 81.5579 23.8605 80.7329L25.0069 79.8841C25.7076 79.4182 26.5305 79.1695 27.3721 79.1695C28.2138 79.1695 29.0366 79.4182 29.7373 79.8841L30.8837 80.7329C32.0743 81.5579 33.4887 82 34.9377 82C36.3866 82 37.801 81.5579 38.9916 80.7329L40.1361 79.8841C40.8369 79.4182 41.66 79.1696 42.5018 79.1696C43.3436 79.1696 44.1666 79.4182 44.8674 79.8841L46.0119 80.7329C47.2025 81.5579 48.6169 82 50.0659 82C51.5148 82 52.9292 81.5579 54.1198 80.7329L55.2662 79.8841C55.9669 79.4182 56.7897 79.1695 57.6314 79.1695C58.4731 79.1695 59.2959 79.4182 59.9966 79.8841L61.143 80.7329C62.3336 81.5579 63.748 82 65.1969 82C66.6459 82 68.0603 81.5579 69.2509 80.7329L70.3973 79.8841C71.098 79.4182 71.9208 79.1695 72.7625 79.1695C73.6042 79.1695 74.427 79.4182 75.1277 79.8841L76.2741 80.7329C77.4647 81.5579 78.8791 82 80.328 82C81.777 82 83.1914 81.5579 84.382 80.7329C84.6886 80.524 84.9008 80.2032 84.973 79.8394C85.0451 79.4757 84.9715 79.0983 84.7678 78.7883C84.5642 78.4783 84.2468 78.2607 83.8841 78.1822C83.5214 78.1037 83.1424 78.1707 82.8287 78.3687C82.7815 78.4002 82.7361 78.4343 82.6927 78.4708C81.9928 78.936 81.171 79.1841 80.3305 79.1841C79.4899 79.1841 78.6681 78.936 77.9682 78.4708L76.8208 77.6221C76.1293 77.1248 75.3451 76.771 74.5144 76.5816L80.6428 56.9774C80.6983 56.8001 80.7182 56.6136 80.7015 56.4286C80.6848 56.2436 80.6317 56.0637 80.5454 55.8992C80.4591 55.7346 80.3412 55.5887 80.1984 55.4697C80.0557 55.3507 79.8908 55.261 79.7134 55.2057C79.6627 55.19 79.6112 55.1772 79.5591 55.1672L77.8785 54.8406V41.0013C77.8785 40.6262 77.7294 40.2665 77.4639 40.0013C77.1985 39.7361 76.8385 39.5871 76.4631 39.5871H66.5569V26.8625C66.5569 26.4874 66.4078 26.1277 66.1424 25.8624C65.8769 25.5972 65.5169 25.4482 65.1415 25.4482H55.2373V12.7246C55.2373 12.3495 55.0882 11.9898 54.8227 11.7245C54.5573 11.4593 54.1973 11.3103 53.8219 11.3103H46.7476V8.14747L65.1425 7.2727V11.3103C65.1425 11.6854 65.2916 12.0451 65.557 12.3104C65.8225 12.5756 66.1825 12.7246 66.5579 12.7246C66.8379 12.7246 67.1115 12.8075 67.3443 12.9629C67.5771 13.1183 67.7585 13.3392 67.8656 13.5976C67.9727 13.8561 68.0008 14.1404 67.9461 14.4148C67.8915 14.6891 67.7567 14.9411 67.5588 15.1389C67.3608 15.3367 67.1086 15.4714 66.834 15.526C66.5595 15.5805 66.2749 15.5525 66.0162 15.4455C65.7576 15.3384 65.5365 15.1572 65.381 14.9246C65.2255 14.692 65.1425 14.4186 65.1425 14.1389H62.3126C62.3134 14.9156 62.5279 15.6773 62.9325 16.3406C63.3372 17.0038 63.9165 17.5433 64.6071 17.8999C65.2977 18.2566 66.0732 18.4168 66.8488 18.363C67.6243 18.3092 68.3702 18.0435 69.0049 17.5949C69.6396 17.1464 70.1387 16.5322 70.4478 15.8194C70.7569 15.1066 70.864 14.3227 70.7574 13.5532C70.6509 12.7838 70.3348 12.0583 69.8436 11.4562C69.3524 10.8541 68.7051 10.3983 67.9724 10.1388V7.13879L69.4582 7.06943C69.8221 7.05257 70.1655 6.89615 70.4169 6.63273C70.6684 6.36931 70.8085 6.01916 70.8081 5.65516V4.23896C70.8081 3.11472 70.3611 2.03652 69.5655 1.24156C68.7699 0.446603 67.6908 0 66.5656 0H42.5022C41.3771 0 40.298 0.446603 39.5024 1.24156C38.7068 2.03652 38.2598 3.11472 38.2598 4.23896V11.3103H31.1797C30.9938 11.3103 30.8098 11.3469 30.638 11.418C30.4663 11.489 30.3103 11.5932 30.1788 11.7245C30.0474 11.8559 29.9431 12.0118 29.872 12.1834C29.8009 12.355 29.7643 12.5389 29.7643 12.7246V25.4492H19.862C19.4866 25.4492 19.1266 25.5982 18.8611 25.8634C18.5957 26.1286 18.4466 26.4884 18.4466 26.8634V39.5871H8.54237C8.16697 39.5871 7.80695 39.7361 7.5415 40.0013C7.27606 40.2665 7.12693 40.6262 7.12693 41.0013V54.8415L5.44634 55.1652C5.26376 55.2002 5.08988 55.2708 4.93463 55.373C4.77939 55.4752 4.64583 55.607 4.54159 55.7608C4.43736 55.9146 4.36449 56.0874 4.32716 56.2694C4.28982 56.4514 4.28876 56.6389 4.32402 56.8213C4.33404 56.8734 4.34691 56.9248 4.36259 56.9755L10.4949 76.5739C9.66422 76.7633 8.87999 77.1171 8.18851 77.6144L7.04112 78.4679ZM68.71 77.6192L67.5636 78.4679C66.8627 78.9339 66.0397 79.1825 65.1979 79.1825C64.3561 79.1825 63.5331 78.9339 62.8323 78.4679L61.6878 77.6192C60.4971 76.7942 59.0827 76.3521 57.6338 76.3521C56.1849 76.3521 54.7705 76.7942 53.5799 77.6192L52.4334 78.4679C51.7328 78.9339 50.9099 79.1825 50.0683 79.1825C49.2266 79.1825 48.4037 78.9339 47.7031 78.4679L46.5567 77.6192C45.366 76.7942 43.9516 76.3521 42.5027 76.3521C41.0538 76.3521 39.6394 76.7942 38.4488 77.6192L37.3023 78.4679C36.6017 78.9339 35.7788 79.1825 34.9372 79.1825C34.0955 79.1825 33.2726 78.9339 32.572 78.4679L31.4256 77.6192C30.2349 76.7942 28.8206 76.3521 27.3716 76.3521C25.9227 76.3521 24.5083 76.7942 23.3177 77.6192L22.1732 78.4679C21.4723 78.9339 20.6493 79.1825 19.8075 79.1825C18.9657 79.1825 18.1427 78.9339 17.4419 78.4679L16.2955 77.6192C15.4443 77.0059 14.4583 76.6055 13.4202 76.4515L12.0617 72.1057H72.9438L71.5852 76.4458C70.5462 76.6005 69.5599 77.0034 68.71 77.6202V77.6192ZM75.0505 54.2982L55.2373 50.4927V42.4156H75.0505V54.2982ZM38.2569 42.4156V48.8617L32.5971 49.9494V42.4156H38.2569ZM46.7466 42.4156H52.4064V49.9484L46.7466 48.8607V42.4156ZM63.727 39.588H46.7476V28.2767H63.727V39.588ZM52.4074 14.1389V25.4492H46.7476V14.1389H52.4074ZM43.9177 48.0736H41.0878V8.41819L43.9177 8.27657V48.0736ZM41.0878 4.23896C41.0878 3.86387 41.2369 3.50415 41.5023 3.23892C41.7678 2.97369 42.1278 2.82469 42.5032 2.82469H66.5569C66.7428 2.82469 66.9269 2.86127 67.0986 2.93234C67.2703 3.00342 67.4264 3.10759 67.5578 3.23892C67.6892 3.37025 67.7935 3.52615 67.8646 3.69774C67.9358 3.86933 67.9724 4.05323 67.9724 4.23896L41.0878 5.58772V4.23896ZM32.5971 14.1389H38.2569V25.4492H32.5971V14.1389ZM21.2774 28.2767H38.2569V39.5871H21.2774V28.2767ZM9.95684 42.4156H29.7672V50.4927L9.95684 54.2982V42.4156ZM42.5022 50.9253L77.4687 57.6441L73.8279 69.2781H11.1765L7.53575 57.6441L42.5022 50.9253Z" fill="#0045A0"/>
<path d="M7.04112 78.4679C6.34123 78.9331 5.5194 79.1812 4.67884 79.1812C3.83829 79.1812 3.01646 78.9331 2.31657 78.4679C2.17267 78.35 2.00692 78.2615 1.82878 78.2075C1.65065 78.1535 1.46362 78.1351 1.27837 78.1534C1.09313 78.1716 0.913296 78.2262 0.749141 78.3139C0.584987 78.4016 0.439726 78.5207 0.321653 78.6645C0.20358 78.8083 0.115008 78.9739 0.0609919 79.1519C0.00697617 79.3299 -0.0114246 79.5167 0.00684026 79.7018C0.0251051 79.8869 0.0796779 80.0666 0.167443 80.2306C0.255208 80.3946 0.374446 80.5398 0.518349 80.6578C0.549203 80.6828 0.581986 80.7069 0.614768 80.73C1.80541 81.555 3.21979 81.9971 4.66872 81.9971C6.11765 81.9971 7.53204 81.555 8.72267 80.73L9.8691 79.8813C10.5697 79.4153 11.3926 79.1667 12.2343 79.1667C13.0759 79.1667 13.8988 79.4153 14.5994 79.8813L15.7526 80.7329C16.9432 81.5579 18.3576 82 19.8066 82C21.2555 82 22.6699 81.5579 23.8605 80.7329L25.0069 79.8841C25.7076 79.4182 26.5305 79.1695 27.3721 79.1695C28.2138 79.1695 29.0366 79.4182 29.7373 79.8841L30.8837 80.7329C32.0743 81.5579 33.4887 82 34.9377 82C36.3866 82 37.801 81.5579 38.9916 80.7329L40.1361 79.8841C40.8369 79.4182 41.66 79.1696 42.5018 79.1696C43.3436 79.1696 44.1666 79.4182 44.8674 79.8841L46.0119 80.7329C47.2025 81.5579 48.6169 82 50.0659 82C51.5148 82 52.9292 81.5579 54.1198 80.7329L55.2662 79.8841C55.9669 79.4182 56.7897 79.1695 57.6314 79.1695C58.4731 79.1695 59.2959 79.4182 59.9966 79.8841L61.143 80.7329C62.3336 81.5579 63.748 82 65.1969 82C66.6459 82 68.0603 81.5579 69.2509 80.7329L70.3973 79.8841C71.098 79.4182 71.9208 79.1695 72.7625 79.1695C73.6042 79.1695 74.427 79.4182 75.1277 79.8841L76.2741 80.7329C77.4647 81.5579 78.8791 82 80.328 82C81.777 82 83.1914 81.5579 84.382 80.7329C84.6886 80.524 84.9008 80.2032 84.973 79.8394C85.0451 79.4757 84.9715 79.0983 84.7678 78.7883C84.5642 78.4783 84.2468 78.2607 83.8841 78.1822C83.5214 78.1037 83.1424 78.1707 82.8287 78.3687C82.7815 78.4002 82.7361 78.4343 82.6927 78.4708C81.9928 78.936 81.171 79.1841 80.3305 79.1841C79.4899 79.1841 78.6681 78.936 77.9682 78.4708L76.8208 77.6221C76.1293 77.1248 75.3451 76.771 74.5144 76.5816L80.6428 56.9774C80.6983 56.8001 80.7182 56.6136 80.7015 56.4286C80.6848 56.2436 80.6317 56.0637 80.5454 55.8992C80.4591 55.7346 80.3412 55.5887 80.1984 55.4697C80.0557 55.3507 79.8908 55.261 79.7134 55.2057C79.6627 55.19 79.6112 55.1772 79.5591 55.1672L77.8785 54.8406V41.0013C77.8785 40.6262 77.7294 40.2665 77.4639 40.0013C77.1985 39.7361 76.8385 39.5871 76.4631 39.5871H66.5569V26.8625C66.5569 26.4874 66.4078 26.1277 66.1424 25.8624C65.8769 25.5972 65.5169 25.4482 65.1415 25.4482H55.2373V12.7246C55.2373 12.3495 55.0882 11.9898 54.8227 11.7245C54.5573 11.4593 54.1973 11.3103 53.8219 11.3103H46.7476V8.14747L65.1425 7.2727V11.3103C65.1425 11.6854 65.2916 12.0451 65.557 12.3104C65.8225 12.5756 66.1825 12.7246 66.5579 12.7246C66.8379 12.7246 67.1115 12.8075 67.3443 12.9629C67.5771 13.1183 67.7585 13.3392 67.8656 13.5976C67.9727 13.8561 68.0008 14.1404 67.9461 14.4148C67.8915 14.6891 67.7567 14.9411 67.5588 15.1389C67.3608 15.3367 67.1086 15.4714 66.834 15.526C66.5595 15.5805 66.2749 15.5525 66.0162 15.4455C65.7576 15.3384 65.5365 15.1572 65.381 14.9246C65.2255 14.692 65.1425 14.4186 65.1425 14.1389H62.3126C62.3134 14.9156 62.5279 15.6773 62.9325 16.3406C63.3372 17.0038 63.9165 17.5433 64.6071 17.8999C65.2977 18.2566 66.0732 18.4168 66.8488 18.363C67.6243 18.3092 68.3702 18.0435 69.0049 17.5949C69.6396 17.1464 70.1387 16.5322 70.4478 15.8194C70.7569 15.1066 70.864 14.3227 70.7574 13.5532C70.6509 12.7838 70.3348 12.0583 69.8436 11.4562C69.3524 10.8541 68.7051 10.3983 67.9724 10.1388V7.13879L69.4582 7.06943C69.8221 7.05257 70.1655 6.89615 70.4169 6.63273C70.6684 6.36931 70.8085 6.01916 70.8081 5.65516V4.23896C70.8081 3.11472 70.3611 2.03652 69.5655 1.24156C68.7699 0.446603 67.6908 0 66.5656 0H42.5022C41.3771 0 40.298 0.446603 39.5024 1.24156C38.7068 2.03652 38.2598 3.11472 38.2598 4.23896V11.3103H31.1797C30.9938 11.3103 30.8098 11.3469 30.638 11.418C30.4663 11.489 30.3103 11.5932 30.1788 11.7245C30.0474 11.8559 29.9431 12.0118 29.872 12.1834C29.8009 12.355 29.7643 12.5389 29.7643 12.7246V25.4492H19.862C19.4866 25.4492 19.1266 25.5982 18.8611 25.8634C18.5957 26.1286 18.4466 26.4884 18.4466 26.8634V39.5871H8.54237C8.16697 39.5871 7.80695 39.7361 7.5415 40.0013C7.27606 40.2665 7.12693 40.6262 7.12693 41.0013V54.8415L5.44634 55.1652C5.26376 55.2002 5.08988 55.2708 4.93463 55.373C4.77939 55.4752 4.64583 55.607 4.54159 55.7608C4.43736 55.9146 4.36449 56.0874 4.32716 56.2694C4.28982 56.4514 4.28876 56.6389 4.32402 56.8213C4.33404 56.8734 4.34691 56.9248 4.36259 56.9755L10.4949 76.5739C9.66422 76.7633 8.87999 77.1171 8.18851 77.6144L7.04112 78.4679ZM68.71 77.6192L67.5636 78.4679C66.8627 78.9339 66.0397 79.1825 65.1979 79.1825C64.3561 79.1825 63.5331 78.9339 62.8323 78.4679L61.6878 77.6192C60.4971 76.7942 59.0827 76.3521 57.6338 76.3521C56.1849 76.3521 54.7705 76.7942 53.5799 77.6192L52.4334 78.4679C51.7328 78.9339 50.9099 79.1825 50.0683 79.1825C49.2266 79.1825 48.4037 78.9339 47.7031 78.4679L46.5567 77.6192C45.366 76.7942 43.9516 76.3521 42.5027 76.3521C41.0538 76.3521 39.6394 76.7942 38.4488 77.6192L37.3023 78.4679C36.6017 78.9339 35.7788 79.1825 34.9372 79.1825C34.0955 79.1825 33.2726 78.9339 32.572 78.4679L31.4256 77.6192C30.2349 76.7942 28.8206 76.3521 27.3716 76.3521C25.9227 76.3521 24.5083 76.7942 23.3177 77.6192L22.1732 78.4679C21.4723 78.9339 20.6493 79.1825 19.8075 79.1825C18.9657 79.1825 18.1427 78.9339 17.4419 78.4679L16.2955 77.6192C15.4443 77.0059 14.4583 76.6055 13.4202 76.4515L12.0617 72.1057H72.9438L71.5852 76.4458C70.5462 76.6005 69.5599 77.0034 68.71 77.6202V77.6192ZM75.0505 54.2982L55.2373 50.4927V42.4156H75.0505V54.2982ZM38.2569 42.4156V48.8617L32.5971 49.9494V42.4156H38.2569ZM46.7466 42.4156H52.4064V49.9484L46.7466 48.8607V42.4156ZM63.727 39.588H46.7476V28.2767H63.727V39.588ZM52.4074 14.1389V25.4492H46.7476V14.1389H52.4074ZM43.9177 48.0736H41.0878V8.41819L43.9177 8.27657V48.0736ZM41.0878 4.23896C41.0878 3.86387 41.2369 3.50415 41.5023 3.23892C41.7678 2.97369 42.1278 2.82469 42.5032 2.82469H66.5569C66.7428 2.82469 66.9269 2.86127 67.0986 2.93234C67.2703 3.00342 67.4264 3.10759 67.5578 3.23892C67.6892 3.37025 67.7935 3.52615 67.8646 3.69774C67.9358 3.86933 67.9724 4.05323 67.9724 4.23896L41.0878 5.58772V4.23896ZM32.5971 14.1389H38.2569V25.4492H32.5971V14.1389ZM21.2774 28.2767H38.2569V39.5871H21.2774V28.2767ZM9.95684 42.4156H29.7672V50.4927L9.95684 54.2982V42.4156ZM42.5022 50.9253L77.4687 57.6441L73.8279 69.2781H11.1765L7.53575 57.6441L42.5022 50.9253Z" fill="url(#paint0_linear)"/>
<defs>
<linearGradient id="paint0_linear" x1="0" y1="0" x2="100.71" y2="52.2812" gradientUnits="userSpaceOnUse">
<stop stop-color="#FF6262"/>
<stop offset="1" stop-color="#FF6262" stop-opacity="0"/>
</linearGradient>
</defs>
</svg>
