<svg width="100" height="86" viewBox="0 0 100 86" fill="none" xmlns="http://www.w3.org/2000/svg">
<path d="M34.1209 85.4931H31.91C25.9212 85.4865 20.1797 83.1045 15.9449 78.8699C11.7101 74.6353 9.328 68.8938 9.32112 62.9051V50.452C6.70946 49.9728 4.34773 48.5949 2.64534 46.5572C0.94294 44.5194 0.00712129 41.9503 7.32783e-05 39.2951C-0.00945701 36.6548 0.910892 34.0954 2.59993 32.0661C0.908535 29.6053 0.00222503 26.69 7.32783e-05 23.704C-0.00299244 21.5192 0.480979 19.3611 1.41682 17.3869C2.35266 15.4126 3.71675 13.6718 5.40999 12.291C5.54464 12.1808 5.69967 12.0981 5.86628 12.0478C6.0329 11.9974 6.20798 11.9804 6.38118 11.9977C6.55437 12.015 6.72242 12.0662 6.87581 12.1485C7.0292 12.2307 7.16475 12.3424 7.27498 12.4771C7.28898 12.4941 7.29809 12.5141 7.31209 12.5331C7.51391 12.8057 7.60334 13.1454 7.56184 13.4821C7.52034 13.8187 7.35093 14.1266 7.08894 14.3421C5.69965 15.4745 4.58046 16.9024 3.81257 18.5219C3.04468 20.1414 2.64744 21.9117 2.64998 23.704C2.63896 26.4785 3.59347 29.1703 5.34993 31.318C5.55747 31.5741 5.66236 31.8982 5.64387 32.2273C5.62538 32.5564 5.48499 32.8668 5.25007 33.098C4.42336 33.9045 3.76703 34.869 3.32039 35.9341C2.87374 36.9992 2.6458 38.1431 2.64998 39.298C2.65541 41.4964 3.49184 43.6115 4.99153 45.2189C6.49122 46.8263 8.54319 47.8073 10.7359 47.965C11.0709 47.9876 11.3848 48.1366 11.6141 48.3819C11.8434 48.6271 11.971 48.9503 11.971 49.286V62.9081C11.9768 67.3378 13.4551 71.6399 16.1732 75.1377C18.8913 78.6355 22.6948 81.1304 26.9859 82.23C21.3429 76.471 20.7641 67.499 20.7381 67.042C20.728 66.8681 20.7521 66.694 20.8094 66.5294C20.8667 66.3649 20.9557 66.2133 21.0716 66.0833C21.1875 65.9532 21.328 65.8473 21.4849 65.7716C21.6418 65.6959 21.812 65.6518 21.9859 65.642C22.16 65.6312 22.3345 65.6551 22.4993 65.7121C22.6641 65.7691 22.8159 65.8581 22.9461 65.9741C23.0763 66.0902 23.1824 66.2309 23.2579 66.3881C23.3334 66.5453 23.3769 66.7159 23.3861 66.89C23.3921 67 24.0641 77.155 30.6461 81.881L31.1141 63.9251C31.1235 63.5738 31.2719 63.2406 31.5267 62.9986C31.7815 62.7565 32.1217 62.6255 32.473 62.6341C32.8243 62.6435 33.1576 62.792 33.3995 63.047C33.6414 63.302 33.7722 63.6427 33.763 63.994L33.272 82.843H33.867C42.711 79.195 43.0091 65.706 43.0101 65.569C43.0112 65.3945 43.0471 65.222 43.1156 65.0615C43.184 64.9011 43.2838 64.7559 43.409 64.6343C43.5342 64.5127 43.6821 64.4173 43.8446 64.3535C44.007 64.2898 44.1806 64.2591 44.3551 64.2631C44.7064 64.2683 45.0413 64.4128 45.2862 64.6648C45.5311 64.9168 45.6658 65.2557 45.661 65.6071C45.654 66.1241 45.4301 76.1071 39.6251 82.0661C43.7836 80.8683 47.4403 78.352 50.045 74.896C52.6497 71.4401 54.0611 67.2316 54.067 62.9041V58.616C54.067 58.2643 54.2067 57.927 54.4554 57.6784C54.7041 57.4297 55.0415 57.2901 55.3931 57.2901C55.5672 57.2901 55.7394 57.3244 55.9002 57.391C56.061 57.4577 56.2073 57.5553 56.3304 57.6785C56.4534 57.8016 56.551 57.9478 56.6175 58.1087C56.684 58.2695 56.7182 58.4419 56.7181 58.616V62.9041C56.7112 68.8918 54.3298 74.6324 50.0963 78.8668C45.8628 83.1013 40.1228 85.4839 34.1351 85.4921H34.13L34.1209 85.4931ZM85.567 82.959C80.405 81.469 76.4551 73.217 73.5191 57.767C73.5191 57.759 73.5191 57.752 73.5191 57.744C73.3621 56.917 73.207 56.0751 73.055 55.2071C73.0251 55.0356 73.0292 54.8599 73.0672 54.6901C73.1052 54.5203 73.1763 54.3595 73.2764 54.2172C73.3765 54.0748 73.5037 53.9537 73.6507 53.8605C73.7977 53.7673 73.9617 53.7039 74.1331 53.6741H74.138C74.4833 53.6146 74.838 53.6946 75.1243 53.8965C75.4107 54.0984 75.6053 54.4058 75.6651 54.751C75.7501 55.235 75.834 55.708 75.92 56.173L85.192 56.2061C85.5433 56.2077 85.8798 56.3486 86.1273 56.5979C86.3748 56.8473 86.5131 57.1847 86.512 57.536C86.5107 57.8866 86.3705 58.2223 86.1221 58.4697C85.8738 58.7172 85.5376 58.8561 85.1871 58.8561H85.181L76.43 58.824C79.723 75.137 83.624 79.3401 85.942 80.2851C87.998 79.4611 90.806 76.2271 93.169 65.9621C93.169 65.9451 93.177 65.9271 93.181 65.9101L85.158 65.8821C84.984 65.8814 84.812 65.8465 84.6514 65.7793C84.4909 65.7121 84.3451 65.6139 84.2225 65.4904C84.0999 65.3669 84.0031 65.2205 83.9371 65.0595C83.8711 64.8985 83.8373 64.726 83.838 64.552C83.8393 64.2015 83.9795 63.8657 84.2279 63.6183C84.4762 63.3709 84.8124 63.2321 85.1629 63.2321L93.7449 63.2631C94.8069 57.9631 95.5681 52.131 96.1861 46.718L82.857 46.6701C82.683 46.6694 82.5109 46.6345 82.3504 46.5673C82.1899 46.5001 82.044 46.402 81.9215 46.2785C81.7989 46.155 81.702 46.0084 81.6361 45.8474C81.5701 45.6864 81.5363 45.514 81.5369 45.34C81.5383 44.9894 81.6785 44.6538 81.9268 44.4064C82.1752 44.159 82.5116 44.02 82.8621 44.02L96.4762 44.069C96.5982 42.957 96.715 41.8691 96.827 40.8151C96.966 39.5211 97.0991 38.2791 97.2271 37.1071C97.6411 33.3731 96.9511 30.4071 95.1751 28.2941C92.6171 25.2511 88.363 24.5541 86.055 24.4101C85.9898 24.4065 85.9248 24.3978 85.8609 24.3841C85.7339 24.3841 85.547 24.3761 85.315 24.3791H85.2782C85.0422 24.3791 84.8571 24.3791 84.7301 24.3791C84.6665 24.3929 84.6019 24.4012 84.5369 24.4041C82.2279 24.5331 77.9699 25.199 75.3909 28.224C73.706 30.3848 72.9182 33.1116 73.191 35.838L82.8909 35.8731C83.0648 35.8737 83.2369 35.9086 83.3973 35.9757C83.5577 36.0429 83.7033 36.141 83.8258 36.2644C83.9482 36.3878 84.0452 36.5341 84.1112 36.695C84.1771 36.8559 84.2107 37.0282 84.21 37.202C84.2087 37.5526 84.0685 37.8884 83.8201 38.1358C83.5718 38.3832 83.2356 38.522 82.8851 38.522L73.439 38.489C73.825 41.957 74.439 46.758 74.9491 50.359C74.9995 50.7051 74.9111 51.0571 74.703 51.3382C74.4948 51.6192 74.1837 51.8064 73.838 51.859C73.838 51.859 73.83 51.859 73.825 51.859C73.6527 51.8838 73.4773 51.8743 73.3087 51.8312C73.14 51.7881 72.9814 51.7122 72.8421 51.6078C72.7028 51.5034 72.5854 51.3727 72.4967 51.2229C72.4079 51.0732 72.3497 50.9073 72.325 50.735C71.725 46.565 71.0071 40.787 70.6451 37.296C70.1791 32.81 71.099 29.179 73.378 26.505C74.5401 25.1679 75.9782 24.0983 77.5931 23.37C77.5482 23.2903 77.5115 23.2063 77.484 23.119C75.7336 16.8129 74.9968 10.2686 75.3011 3.7311C75.3217 3.39426 75.47 3.07788 75.7159 2.8467C75.9618 2.61553 76.2866 2.48696 76.6241 2.48708L83.1241 2.51003C83.4414 2.51103 83.7479 2.62593 83.9876 2.83388C84.2273 3.04184 84.3842 3.32907 84.43 3.64309L85.398 10.235L86.4119 3.65005C86.4598 3.33517 86.6194 3.04811 86.8616 2.84133C87.1039 2.63455 87.4126 2.5219 87.731 2.52407H87.7371L94.2371 2.54702C94.5755 2.54807 94.9006 2.67859 95.1458 2.91177C95.3911 3.14494 95.5378 3.46312 95.556 3.80105C95.7114 7.01576 95.5869 10.2379 95.1839 13.4311C95.1409 13.7796 94.9616 14.097 94.6851 14.3136C94.4087 14.5303 94.0578 14.6286 93.7091 14.5871H93.6951C93.3494 14.5414 93.0355 14.3612 92.8219 14.0856C92.6082 13.81 92.512 13.4612 92.554 13.115C92.8823 10.4894 93.018 7.84339 92.96 5.19802L88.8651 5.18301L86.682 19.343C86.682 19.366 86.6701 19.3871 86.6661 19.4101C86.6581 19.4501 86.649 19.487 86.637 19.526C86.6234 19.5695 86.6073 19.6123 86.5889 19.6541C86.5759 19.6861 86.562 19.7191 86.546 19.7541C86.53 19.7891 86.497 19.8391 86.47 19.8791C86.443 19.9191 86.4341 19.933 86.4141 19.959C86.383 19.9979 86.3495 20.035 86.314 20.0701C86.293 20.0931 86.2711 20.1171 86.2481 20.1381C86.2072 20.174 86.164 20.2074 86.119 20.2381C86.097 20.2541 86.0751 20.272 86.0511 20.287C85.9813 20.3289 85.9076 20.3641 85.8311 20.392C85.8171 20.397 85.8009 20.4001 85.7879 20.4051C85.7227 20.427 85.6559 20.4438 85.588 20.4551C85.581 20.4551 85.5749 20.4551 85.5689 20.4601C85.5459 20.4601 85.524 20.4601 85.502 20.4601C85.46 20.4601 85.42 20.4711 85.379 20.4711C85.364 20.4711 85.3481 20.4711 85.3341 20.4711C85.3201 20.4711 85.279 20.4711 85.253 20.4661C85.227 20.4611 85.2011 20.4661 85.1751 20.4601C85.1491 20.4541 85.136 20.4481 85.116 20.4451C85.0695 20.4355 85.0235 20.4234 84.9781 20.4091C84.9384 20.3968 84.8991 20.3824 84.8609 20.366C84.822 20.3497 84.7841 20.3314 84.7471 20.3111C84.7082 20.2902 84.6705 20.2672 84.6341 20.2421C84.5994 20.2197 84.5659 20.1953 84.534 20.1691C84.4992 20.1415 84.4657 20.1121 84.4339 20.0811C84.4049 20.0511 84.3772 20.0201 84.3512 19.9871C84.3239 19.9552 84.2984 19.9217 84.275 19.887C84.2514 19.8519 84.2297 19.8156 84.21 19.7781C84.189 19.7391 84.1702 19.7011 84.1532 19.6601C84.1362 19.6191 84.1241 19.5841 84.1121 19.5451C84.0977 19.4991 84.0859 19.4524 84.077 19.4051C84.077 19.3841 84.0651 19.366 84.0621 19.345L81.981 5.17007L77.8861 5.15603C77.7684 10.9657 78.4871 16.7621 80.0201 22.3671C80.0321 22.4061 80.0341 22.4441 80.0421 22.4831C81.3896 22.1108 82.7719 21.8778 84.1671 21.788C84.239 21.7709 84.3123 21.7602 84.3861 21.756C84.4231 21.756 84.7569 21.735 85.3089 21.744C85.8609 21.753 86.194 21.7601 86.231 21.7631C86.3052 21.7676 86.3788 21.7786 86.451 21.796C87.8811 21.8979 89.2962 22.151 90.6729 22.551C90.6799 22.5022 90.6897 22.4538 90.702 22.406C90.707 22.387 91.2759 20.531 91.8389 17.646C91.9056 17.3036 92.105 17.0014 92.3934 16.8051C92.6818 16.6088 93.036 16.5344 93.379 16.598H93.3919C93.5628 16.6312 93.7255 16.6978 93.8707 16.7938C94.0158 16.8899 94.1408 17.0135 94.2381 17.1579C94.3354 17.3022 94.4032 17.4643 94.4378 17.6349C94.4725 17.8055 94.4733 17.9811 94.44 18.152C93.848 21.189 93.258 23.108 93.234 23.188C93.2011 23.2899 93.1558 23.3873 93.099 23.4781C94.6747 24.216 96.0751 25.2817 97.2061 26.604C99.4671 29.294 100.361 32.9311 99.8631 37.4141C99.7341 38.5831 99.601 39.82 99.463 41.114C97.684 57.72 95.2479 80.4631 86.2879 82.9781C86.1717 83.0107 86.0517 83.0276 85.931 83.0281C85.807 83.0218 85.6845 82.9982 85.567 82.958V82.959ZM54.067 53.923V49.2831C54.067 48.9475 54.1943 48.6244 54.4234 48.3792C54.6525 48.1339 54.9663 47.9849 55.3011 47.9621C57.494 47.8046 59.5461 46.8237 61.046 45.2162C62.5459 43.6087 63.3826 41.4936 63.388 39.2951C63.3918 38.1402 63.1637 36.9963 62.7171 35.9313C62.2705 34.8663 61.6143 33.9017 60.7879 33.095C60.553 32.8638 60.4128 32.5535 60.3944 32.2244C60.3759 31.8953 60.4805 31.5711 60.6881 31.3151C62.4445 29.1678 63.399 26.4762 63.388 23.702C63.3843 20.4963 62.109 17.4229 59.8421 15.1562C57.5752 12.8894 54.5017 11.6145 51.296 11.6111C50.0921 11.6101 48.8949 11.789 47.744 12.142C47.4295 12.2384 47.0906 12.2145 46.7928 12.0747C46.495 11.935 46.2599 11.6895 46.1331 11.386C45.056 8.7965 43.235 6.58457 40.9007 5.02993C38.5664 3.47529 35.8237 2.64775 33.0191 2.652C30.2144 2.64768 27.4712 3.47517 25.1368 5.02981C22.8023 6.58445 20.9814 8.79642 19.9041 11.386C19.7771 11.6894 19.5419 11.9348 19.2442 12.0745C18.9465 12.2142 18.6075 12.2382 18.293 12.142C15.9327 11.4242 13.4102 11.4382 11.0579 12.182C10.7344 12.2849 10.3837 12.2592 10.0787 12.1103C9.77365 11.9613 9.53777 11.7005 9.42 11.3821C9.41199 11.3601 9.39914 11.3411 9.39314 11.3201C9.34011 11.1544 9.32007 10.9798 9.33455 10.8064C9.34902 10.633 9.39759 10.4641 9.47737 10.3095C9.55715 10.1548 9.66672 10.0175 9.79963 9.90517C9.93255 9.79288 10.0862 9.70789 10.252 9.65505C12.7408 8.86618 15.3933 8.74645 17.9429 9.30801C19.3409 6.50739 21.4927 4.15248 24.1561 2.50808C26.8195 0.863683 29.889 -0.00493894 33.0191 2.27515e-05C36.1494 -0.00512517 39.219 0.863428 41.8826 2.50784C44.5462 4.15224 46.698 6.50723 48.096 9.30801C49.1468 9.07553 50.2198 8.9585 51.296 8.95901C55.2041 8.96351 58.9509 10.518 61.7144 13.2815C64.4779 16.045 66.0324 19.7919 66.0369 23.7001C66.0349 26.6861 65.1286 29.6014 63.4371 32.062C65.1262 34.0914 66.0466 36.6507 66.0369 39.291C66.0299 41.9463 65.0941 44.5154 63.3917 46.5531C61.6893 48.5909 59.3278 49.9688 56.7161 50.448V53.9191C56.7161 54.2705 56.5764 54.6075 56.328 54.856C56.0795 55.1045 55.7424 55.244 55.3909 55.244C55.0402 55.2443 54.7037 55.1055 54.4552 54.8581C54.2066 54.6106 54.0663 54.2748 54.065 53.9241L54.067 53.923ZM33.7911 49.349H32.5391C31.6831 49.4157 30.8531 49.449 30.0491 49.449C24.1698 49.5692 18.4286 47.6601 13.7921 44.043C11.5274 42.2914 9.63182 40.1088 8.21492 37.621C8.05588 37.3078 8.02784 36.9442 8.13679 36.6103C8.24574 36.2763 8.48281 35.9992 8.79597 35.84C9.10886 35.6811 9.47203 35.653 9.80574 35.7615C10.1394 35.87 10.4165 36.1065 10.576 36.4191C11.8496 38.5987 13.5348 40.5098 15.5379 42.046C20.0239 45.494 25.6195 47.1756 31.263 46.772V38.1581C15.45 33.2921 12.517 20.158 12.399 19.598C12.3631 19.4278 12.3611 19.2521 12.3931 19.0811C12.4252 18.91 12.4907 18.7471 12.5858 18.6013C12.6809 18.4556 12.8037 18.33 12.9473 18.2318C13.091 18.1336 13.2526 18.0648 13.4229 18.0291C13.7663 17.9568 14.1246 18.0237 14.4188 18.2151C14.7129 18.4065 14.919 18.7068 14.992 19.0501C15.6485 21.4732 16.7321 23.7596 18.192 25.802C21.3792 30.3442 25.9753 33.7089 31.2681 35.375V24.5661C28.9612 23.2994 26.9542 21.5505 25.3839 19.4385C23.8135 17.3265 22.7167 14.901 22.168 12.327C22.1073 11.9809 22.1865 11.6249 22.3883 11.3372C22.59 11.0495 22.8979 10.8537 23.244 10.793C23.5898 10.7325 23.9456 10.8119 24.233 11.0135C24.5204 11.215 24.7159 11.5224 24.7769 11.8681C25.6745 15.7698 27.988 19.1998 31.2691 21.494V9.65408C31.269 9.47999 31.3032 9.3075 31.3697 9.14663C31.4362 8.98576 31.5338 8.8396 31.6568 8.71645C31.7799 8.59331 31.9259 8.49563 32.0867 8.42898C32.2476 8.36233 32.42 8.32803 32.5941 8.32803C32.7682 8.32803 32.9406 8.36233 33.1014 8.42898C33.2622 8.49563 33.4083 8.59331 33.5313 8.71645C33.6544 8.8396 33.7519 8.98576 33.8184 9.14663C33.885 9.3075 33.9191 9.47999 33.919 9.65408V22.1811C40.247 18.8181 41.553 11.9391 41.565 11.8681C41.6267 11.5225 41.8229 11.2155 42.1107 11.0145C42.3985 10.8136 42.7543 10.7349 43.0999 10.796C43.4452 10.8571 43.7524 11.0524 43.9539 11.3394C44.1554 11.6264 44.235 11.9815 44.1751 12.327C44.1131 12.681 42.5689 21.0361 34.4649 24.8731C34.2941 24.9538 34.108 24.9967 33.919 24.999V35.74C37.8508 34.6336 41.4792 32.6468 44.5291 29.9301C44.6579 29.8131 44.8083 29.7225 44.972 29.6637C45.1357 29.6049 45.3095 29.5789 45.4832 29.5873C45.657 29.5957 45.8274 29.6382 45.9847 29.7124C46.142 29.7867 46.2831 29.8912 46.4 30.02C46.5169 30.1489 46.6074 30.2996 46.6661 30.4634C46.7248 30.6272 46.7507 30.801 46.7423 30.9749C46.7338 31.1487 46.6914 31.3192 46.617 31.4766C46.5427 31.634 46.4378 31.7751 46.3089 31.892C42.9549 34.8858 38.962 37.0747 34.6341 38.292C34.5127 38.328 34.3867 38.3463 34.2601 38.3461C34.1444 38.3448 34.0294 38.3282 33.918 38.297V46.7111H33.952C33.9673 46.7097 33.9828 46.7097 33.9981 46.7111C49.7331 47.9111 55.6981 36.537 55.7581 36.422C55.8369 36.2669 55.9453 36.1288 56.0775 36.0156C56.2096 35.9025 56.3627 35.8164 56.5281 35.7625C56.6936 35.7085 56.8679 35.6876 57.0413 35.7011C57.2148 35.7146 57.3841 35.7622 57.5391 35.8411C57.8523 36.0003 58.0894 36.2773 58.1983 36.6112C58.3073 36.9452 58.279 37.3089 58.1199 37.6221C56.703 40.1098 54.8076 42.2924 52.543 44.0441C47.9067 47.6609 42.1659 49.57 36.2869 49.4501C35.4776 49.4474 34.6451 49.4137 33.7891 49.349H33.7911ZM47.6361 28.6751C47.4984 28.5686 47.3831 28.436 47.2967 28.2849C47.2103 28.1339 47.1544 27.9672 47.1324 27.7946C47.1104 27.6219 47.1225 27.4467 47.1683 27.2788C47.214 27.1109 47.2925 26.9537 47.399 26.8161C49.2243 24.5192 50.5646 21.8758 51.3389 19.046C51.4025 18.7487 51.5663 18.4823 51.8031 18.2915C52.0398 18.1007 52.335 17.9971 52.639 17.9981C52.8365 17.998 53.0316 18.0421 53.2098 18.1272C53.388 18.2124 53.5449 18.3363 53.669 18.49C53.7932 18.6437 53.8815 18.8233 53.9273 19.0155C53.9732 19.2078 53.9753 19.4079 53.9339 19.6011C53.0797 22.8206 51.5697 25.8287 49.4981 28.437C49.3742 28.5972 49.2151 28.7268 49.0333 28.8159C48.8514 28.9051 48.6516 28.9513 48.449 28.9511C48.1532 28.9533 47.865 28.8561 47.6309 28.6751H47.6361Z" fill="url(#paint0_linear)"/>
<defs>
<linearGradient id="paint0_linear" x1="0" y1="0" x2="111.984" y2="65.5962" gradientUnits="userSpaceOnUse">
<stop stop-color="#FF6262"/>
<stop offset="1" stop-color="#0045A0"/>
</linearGradient>
</defs>
</svg>
