<svg width="398" height="420" viewBox="0 0 398 420" fill="none" xmlns="http://www.w3.org/2000/svg">
<path d="M6.0303 420H391.97C395.347 420 398 417.36 398 414V186.002C398 182.642 395.347 180.002 391.97 180.002H345.778L212.628 80.6433C222.398 75.7234 229.152 65.6435 229.152 54.0036C229.152 39.4837 218.659 27.2438 204.789 24.6039L203.945 5.76406C203.824 2.40409 200.93 -0.115887 197.673 0.00411225C194.296 0.124111 191.764 2.88408 191.884 6.24405L192.849 30.2438C193.09 33.4838 195.744 36.0038 199 36.0038C209.01 36.0038 217.091 44.0437 217.091 54.0036C217.091 63.9635 209.01 72.0034 199 72.0034C188.99 72.0034 180.909 63.9635 180.909 54.0036C180.909 50.6436 178.256 48.0036 174.879 48.0036C171.502 48.0036 168.848 50.6436 168.848 54.0036C168.848 65.6435 175.602 75.7234 185.372 80.6433L52.2224 180.002H6.0303C2.65333 180.002 0 182.642 0 186.002V414C0 417.36 2.65333 420 6.0303 420ZM349.758 192.002H385.939V216.002H349.758V192.002ZM60.303 189.002L199 85.4433L337.697 188.882V215.882H60.303V189.002ZM12.0606 192.002H48.2424V216.002H12.0606V192.002ZM12.0606 228.002H385.939V408H12.0606V228.002Z" fill="#0045A0"/>
<path d="M54.2727 240.002C50.8958 240.002 48.2424 242.642 48.2424 246.002V390C48.2424 393.36 50.8958 396 54.2727 396C57.6497 396 60.303 393.36 60.303 390V246.002C60.303 242.642 57.6497 240.002 54.2727 240.002Z" fill="#0045A0"/>
<path d="M102.515 240.002C99.1382 240.002 96.4848 242.642 96.4848 246.002V390C96.4848 393.36 99.1382 396 102.515 396C105.892 396 108.545 393.36 108.545 390V246.002C108.545 242.642 105.892 240.002 102.515 240.002Z" fill="#0045A0"/>
<path d="M150.758 240.002C147.381 240.002 144.727 242.642 144.727 246.002V390C144.727 393.36 147.381 396 150.758 396C154.135 396 156.788 393.36 156.788 390V246.002C156.788 242.642 154.135 240.002 150.758 240.002Z" fill="#0045A0"/>
<path d="M199 240.002C195.623 240.002 192.97 242.642 192.97 246.002V390C192.97 393.36 195.623 396 199 396C202.377 396 205.03 393.36 205.03 390V246.002C205.03 242.642 202.377 240.002 199 240.002Z" fill="#0045A0"/>
<path d="M247.242 240.002C243.865 240.002 241.212 242.642 241.212 246.002V390C241.212 393.36 243.865 396 247.242 396C250.619 396 253.273 393.36 253.273 390V246.002C253.273 242.642 250.619 240.002 247.242 240.002Z" fill="#0045A0"/>
<path d="M295.485 240.002C292.108 240.002 289.455 242.642 289.455 246.002V390C289.455 393.36 292.108 396 295.485 396C298.862 396 301.515 393.36 301.515 390V246.002C301.515 242.642 298.862 240.002 295.485 240.002Z" fill="#0045A0"/>
<path d="M343.727 240.002C340.35 240.002 337.697 242.642 337.697 246.002V390C337.697 393.36 340.35 396 343.727 396C347.104 396 349.758 393.36 349.758 390V246.002C349.758 242.642 347.104 240.002 343.727 240.002Z" fill="#0045A0"/>
</svg>
