<svg width="140" height="140" viewBox="0 0 140 140" fill="none" xmlns="http://www.w3.org/2000/svg">
<path d="M136.515 66.9439H121.701C121.12 54.7193 116.183 43.659 108.34 34.9272L118.797 24.4491C119.959 23.2848 119.959 21.5385 118.797 20.3742C117.635 19.21 115.892 19.21 114.73 20.3742L104.274 30.8524C95.5602 23.2848 84.5228 18.3368 72.3237 17.4636V2.9106C72.3237 1.16424 71.1618 0 69.4191 0C67.6763 0 66.5145 1.16424 66.5145 2.9106V17.7547C54.3154 18.3368 43.278 23.2848 34.5643 31.1435L24.3983 20.3742C23.2365 19.21 21.4938 19.21 20.332 20.3742C19.1701 21.5385 19.1701 23.2848 20.332 24.4491L30.7884 34.9272C23.2365 43.659 18.2988 54.7193 17.4274 66.9439H2.90456C1.16183 66.9439 0 68.1081 0 69.8545C0 71.6008 1.16183 72.7651 2.90456 72.7651H17.7178C18.2988 84.9896 23.2365 96.0499 31.0788 104.782L20.6224 115.26C19.4606 116.424 19.4606 118.17 20.6224 119.335C21.2033 119.917 22.0747 120.208 22.6556 120.208C23.527 120.208 24.1079 119.917 24.6888 119.335L35.1452 108.857C43.8589 116.424 54.8963 121.372 67.0954 122.245V137.089C67.0954 138.836 68.2573 140 70 140C71.7427 140 72.9046 138.836 72.9046 137.089V122.245C85.1037 121.663 96.1411 116.715 104.855 108.857L115.311 119.335C115.892 119.917 116.763 120.208 117.344 120.208C118.216 120.208 118.797 119.917 119.378 119.335C120.539 118.17 120.539 116.424 119.378 115.26L108.921 104.782C116.473 96.0499 121.411 84.9896 122.282 72.7651H137.095C138.838 72.7651 140 71.6008 140 69.8545C139.419 68.1081 138.257 66.9439 136.515 66.9439ZM115.892 66.9439H92.6556C92.0747 62.578 90.3319 58.7942 88.0083 55.5925L104.564 39.0021C111.245 46.5696 115.311 56.1746 115.892 66.9439ZM69.7095 87.3181C60.1245 87.3181 52.2822 79.4595 52.2822 69.8545C52.2822 60.2495 60.1245 52.3909 69.7095 52.3909C79.2946 52.3909 87.1369 60.2495 87.1369 69.8545C87.1369 79.4595 79.2946 87.3181 69.7095 87.3181ZM100.498 34.9272L83.9419 51.5177C80.7469 48.8981 76.971 47.4428 72.6141 46.8607V23.5759C83.361 24.158 92.9461 28.2328 100.498 34.9272ZM66.805 23.5759V46.8607C62.4481 47.4428 58.6722 49.1892 55.4772 51.5177L38.9212 34.9272C46.473 28.2328 56.0581 24.158 66.805 23.5759ZM34.8548 39.0021L51.4108 55.5925C48.7967 58.7942 47.3444 62.578 46.7635 66.9439H23.527C24.1079 56.1746 28.1743 46.5696 34.8548 39.0021ZM23.527 72.7651H46.7635C47.3444 77.131 49.0871 80.9148 51.4108 84.1164L34.8548 100.707C28.1743 93.1393 24.1079 83.5343 23.527 72.7651ZM38.9212 104.782L55.4772 88.1913C58.6722 90.8108 62.4481 92.2661 66.805 92.8482V116.133C56.0581 115.551 46.473 111.476 38.9212 104.782ZM72.6141 116.133V92.8482C76.971 92.2661 80.7469 90.5198 83.9419 88.1913L100.498 104.782C92.9461 111.476 83.361 115.551 72.6141 116.133ZM104.564 100.707L88.0083 84.1164C90.6224 80.9148 92.0747 77.131 92.6556 72.7651H115.892C115.311 83.5343 111.245 93.1393 104.564 100.707Z" fill="#0062CC" fill-opacity="0.03"/>
</svg>
