<svg width="85" height="85" viewBox="0 0 85 85" fill="none" xmlns="http://www.w3.org/2000/svg">
<path d="M82.8838 40.6445H73.89C73.5373 33.2225 70.5394 26.5073 65.778 21.2058L72.1266 14.8441C72.8319 14.1372 72.8319 13.0769 72.1266 12.3701C71.4212 11.6632 70.3631 11.6632 69.6577 12.3701L63.3091 18.7318C58.0187 14.1372 51.3174 11.1331 43.9108 10.6029V1.76715C43.9108 0.706861 43.2054 0 42.1473 0C41.0892 0 40.3838 0.706861 40.3838 1.76715V10.7796C32.9772 11.1331 26.2759 14.1372 20.9855 18.9085L14.8133 12.3701C14.1079 11.6632 13.0498 11.6632 12.3444 12.3701C11.639 13.0769 11.639 14.1372 12.3444 14.8441L18.6929 21.2058C14.1079 26.5073 11.11 33.2225 10.5809 40.6445H1.76349C0.705394 40.6445 0 41.3514 0 42.4116C0 43.4719 0.705394 44.1788 1.76349 44.1788H10.7573C11.11 51.6008 14.1079 58.316 18.8693 63.6175L12.5207 69.9792C11.8154 70.6861 11.8154 71.7464 12.5207 72.4532C12.8734 72.8067 13.4025 72.9834 13.7552 72.9834C14.2842 72.9834 14.6369 72.8067 14.9896 72.4532L21.3382 66.0915C26.6286 70.6861 33.3299 73.6902 40.7365 74.2204V83.2328C40.7365 84.2931 41.4419 85 42.5 85C43.5581 85 44.2635 84.2931 44.2635 83.2328V74.2204C51.6701 73.8669 58.3714 70.8628 63.6618 66.0915L70.0104 72.4532C70.3631 72.8067 70.8921 72.9834 71.2448 72.9834C71.7739 72.9834 72.1265 72.8067 72.4792 72.4532C73.1846 71.7464 73.1846 70.6861 72.4792 69.9792L66.1307 63.6175C70.7158 58.316 73.7137 51.6008 74.2427 44.1788H83.2365C84.2946 44.1788 85 43.4719 85 42.4116C84.6473 41.3514 83.9419 40.6445 82.8838 40.6445ZM70.3631 40.6445H56.2552C55.9025 37.9938 54.8444 35.6965 53.4336 33.7526L63.4855 23.6798C67.5415 28.2744 70.0104 34.106 70.3631 40.6445ZM42.3237 53.0146C36.5042 53.0146 31.7427 48.2432 31.7427 42.4116C31.7427 36.58 36.5042 31.8087 42.3237 31.8087C48.1432 31.8087 52.9046 36.58 52.9046 42.4116C52.9046 48.2432 48.1432 53.0146 42.3237 53.0146ZM61.0166 21.2058L50.9647 31.2786C49.0249 29.6882 46.7324 28.8046 44.0871 28.4511V14.3139C50.612 14.6674 56.4315 17.1414 61.0166 21.2058ZM40.5602 14.3139V28.4511C37.9149 28.8046 35.6224 29.8649 33.6826 31.2786L23.6307 21.2058C28.2158 17.1414 34.0353 14.6674 40.5602 14.3139ZM21.1618 23.6798L31.2137 33.7526C29.6266 35.6965 28.7448 37.9938 28.3921 40.6445H14.2842C14.6369 34.106 17.1058 28.2744 21.1618 23.6798ZM14.2842 44.1788H28.3921C28.7448 46.8295 29.8029 49.1268 31.2137 51.0707L21.1618 61.1435C17.1058 56.5489 14.6369 50.7173 14.2842 44.1788ZM23.6307 63.6175L33.6826 53.5447C35.6224 55.1351 37.9149 56.0187 40.5602 56.3721V70.5094C34.0353 70.1559 28.2158 67.6819 23.6307 63.6175ZM44.0871 70.5094V56.3721C46.7324 56.0187 49.0249 54.9584 50.9647 53.5447L61.0166 63.6175C56.4315 67.6819 50.612 70.1559 44.0871 70.5094ZM63.4855 61.1435L53.4336 51.0707C55.0207 49.1268 55.9025 46.8295 56.2552 44.1788H70.3631C70.0104 50.7173 67.5415 56.5489 63.4855 61.1435Z" fill="url(#paint0_linear)"/>
<defs>
<linearGradient id="paint0_linear" x1="0" y1="0" x2="102.215" y2="51.1895" gradientUnits="userSpaceOnUse">
<stop stop-color="#FF6262"/>
<stop offset="1" stop-color="#0045A0"/>
</linearGradient>
</defs>
</svg>
