<svg width="42" height="42" viewBox="0 0 42 42" fill="none" xmlns="http://www.w3.org/2000/svg">
<path d="M39.0324 41.6153L21.0004 23.4393L2.96811 41.6153C2.57811 42.0084 1.78529 41.8481 1.20029 41.2585C0.615287 40.6688 0.457259 39.8695 0.84726 39.4763L18.8783 21.3004L0.84726 3.12543C0.457259 2.73231 0.616287 1.93297 1.20029 1.3433C1.78429 0.753634 2.57833 0.594376 2.96933 0.986482L21.0004 19.1614L39.0314 0.986482C39.4214 0.593368 40.2142 0.753634 40.7992 1.3433C41.3842 1.93297 41.5422 2.73231 41.1532 3.12543L23.1222 21.3004L41.1532 39.4763C41.5442 39.8695 41.3842 40.6688 40.7992 41.2585C40.4869 41.5974 40.0573 41.802 39.5993 41.83C39.4953 41.834 39.3917 41.817 39.2943 41.7801C39.197 41.7433 39.108 41.6872 39.0324 41.6153Z" fill="white"/>
</svg>
