<?xml version="1.0" standalone="no"?>
<!DOCTYPE svg PUBLIC "-//W3C//DTD SVG 20010904//EN"
 "http://www.w3.org/TR/2001/REC-SVG-20010904/DTD/svg10.dtd">
<svg version="1.0" xmlns="http://www.w3.org/2000/svg"
 width="700.000000pt" height="700.000000pt" viewBox="0 0 700.000000 700.000000"
 preserveAspectRatio="xMidYMid meet">
<metadata>
Created by potrace 1.11, written by Peter Selinger 2001-2013
</metadata>
<g transform="translate(0.000000,700.000000) scale(0.100000,-0.100000)"
fill="#000000" stroke="none">
<path d="M0 3500 l0 -3500 3500 0 3500 0 0 3500 0 3500 -3500 0 -3500 0 0
-3500z m3880 2658 c46 -75 50 -114 43 -395 -4 -175 -10 -269 -18 -280 -16 -21
-109 -35 -140 -21 -32 14 -36 29 -90 316 -41 215 -45 248 -36 297 17 92 25 99
111 108 100 11 109 9 130 -25z m2247 -710 c35 -34 63 -71 63 -81 0 -10 -11
-39 -25 -66 -24 -49 -86 -110 -325 -320 -139 -122 -155 -126 -219 -56 -44 48
-47 58 -28 91 30 52 322 417 351 439 32 24 92 54 111 55 5 0 38 -28 72 -62z
m-2098 -43 c48 -24 48 -93 1 -123 -10 -6 -98 -17 -196 -24 l-176 -12 -25 28
c-18 21 -23 36 -18 55 8 34 40 61 74 62 14 0 82 6 151 13 69 8 133 14 143 15
10 0 31 -6 46 -14z m-2176 -103 c40 -22 79 -64 218 -240 192 -242 195 -249
132 -307 -63 -58 -76 -53 -248 91 -246 207 -274 233 -300 285 -37 71 -33 84
38 150 70 65 76 65 160 21z m2496 -118 c670 -89 1284 -499 1625 -1086 l28 -48
-165 0 -165 0 -60 83 c-131 180 -338 371 -533 492 -489 303 -1096 377 -1639
199 -665 -218 -1147 -753 -1297 -1442 -34 -160 -44 -470 -19 -642 91 -628 471
-1156 1042 -1446 56 -28 131 -62 168 -75 l66 -24 0 -147 c0 -93 -4 -148 -10
-148 -6 0 -61 18 -123 41 -684 250 -1212 836 -1386 1541 -55 223 -75 512 -52
741 79 762 542 1420 1236 1757 401 195 834 264 1284 204z m1227 -311 c69 -65
130 -128 135 -140 11 -29 -3 -68 -30 -82 -46 -25 -67 -14 -195 105 -158 145
-165 157 -125 208 15 19 30 26 55 26 30 0 50 -15 160 -117z m-3131 -58 c51
-51 36 -78 -136 -235 -86 -80 -114 -100 -138 -100 -51 0 -86 63 -62 109 6 10
66 70 135 134 137 127 157 137 201 92z m1580 -46 c124 -23 212 -91 281 -219
36 -66 43 -74 69 -75 25 0 34 -7 50 -40 17 -33 25 -39 45 -37 29 5 50 -20 50
-59 0 -22 4 -26 23 -22 32 6 49 -18 51 -72 1 -28 7 -49 18 -57 9 -7 19 -33 22
-58 12 -107 11 -105 77 -105 67 -1 79 -10 79 -62 l0 -33 115 0 115 0 0 -165 0
-165 -115 0 -115 0 0 -43 c0 -24 -5 -48 -12 -55 -7 -7 -39 -12 -75 -12 -59 0
-64 2 -73 26 -6 14 -10 39 -10 55 l0 29 -105 0 -105 0 0 -36 c0 -63 -13 -74
-83 -74 -36 0 -68 5 -75 12 -7 7 -12 31 -12 55 l0 43 -45 0 -45 0 0 -235 c0
-198 2 -237 15 -241 8 -3 17 -15 21 -26 4 -15 11 -18 31 -13 30 7 53 -10 53
-40 0 -22 2 -22 35 -13 44 14 69 -3 60 -40 -5 -22 -3 -24 18 -18 34 8 61 -15
55 -47 -4 -22 -1 -26 20 -29 38 -5 51 -32 30 -68 -17 -29 -17 -30 5 -30 47 0
61 -41 28 -81 -17 -21 -17 -25 -3 -35 22 -16 8 -59 -27 -80 -26 -15 -27 -19
-17 -46 9 -25 8 -32 -8 -44 -11 -8 -28 -14 -37 -14 -11 0 -19 -9 -21 -22 -2
-14 -15 -29 -33 -37 -16 -8 -38 -25 -48 -38 -11 -13 -29 -23 -45 -23 -15 0
-36 -7 -46 -15 -11 -8 -29 -15 -39 -15 -41 0 -46 -25 -47 -215 0 -99 4 -174 8
-167 5 7 49 19 99 27 139 23 243 59 325 115 79 53 188 150 188 167 0 6 -27 16
-60 23 -33 7 -62 16 -64 19 -2 3 63 62 146 131 83 69 169 146 193 173 53 58
96 170 125 325 11 59 24 125 28 147 l8 40 36 -70 c45 -88 92 -220 114 -322 26
-118 24 -323 -5 -438 -32 -133 -89 -243 -165 -320 -35 -36 -68 -65 -74 -65 -5
0 -13 38 -17 85 -4 47 -11 85 -16 85 -5 0 -42 -31 -81 -68 -183 -170 -316
-276 -418 -331 -41 -22 -149 -65 -239 -96 -181 -61 -239 -90 -271 -135 -27
-38 -70 -41 -94 -6 -31 48 -87 79 -233 127 -81 27 -150 49 -153 49 -3 0 9 -9
27 -20 47 -28 58 -55 33 -80 -26 -26 -88 -26 -140 0 -38 19 -60 56 -46 78 3 5
-13 14 -34 21 -43 13 -76 51 -66 76 3 9 -1 18 -10 22 -9 3 -22 19 -28 34 -7
16 -48 58 -92 95 -43 36 -122 106 -175 155 -108 99 -101 100 -115 -11 -11 -91
-14 -92 -86 -19 -200 202 -252 559 -133 916 37 112 90 223 105 223 6 0 10 -13
10 -30 0 -47 49 -267 75 -335 44 -118 70 -147 319 -350 l109 -89 -34 -9 c-19
-4 -51 -13 -73 -18 l-39 -11 49 -49 c27 -28 72 -68 100 -90 47 -36 53 -38 82
-28 18 6 32 17 32 25 0 8 11 19 24 25 13 6 27 20 29 30 3 12 18 22 36 25 17 4
31 13 31 20 0 16 31 34 58 34 10 0 24 11 30 25 6 14 18 25 26 25 8 0 28 11 44
25 17 14 42 25 56 25 l26 0 0 310 c0 171 -2 310 -4 310 -3 0 -16 -4 -29 -9
-18 -7 -30 -6 -43 3 -11 8 -33 12 -55 9 -20 -3 -39 -1 -43 5 -4 8 -15 8 -36 0
-37 -12 -60 2 -60 38 0 22 -4 24 -44 24 -61 0 -76 8 -76 39 0 22 -7 29 -34 39
-38 14 -54 45 -36 67 9 10 6 15 -10 20 -33 10 -47 51 -27 73 16 18 16 20 -3
37 -25 23 -26 50 -1 67 19 13 19 14 -5 37 -13 13 -24 29 -24 37 0 10 -15 14
-55 14 -62 0 -75 13 -75 74 l0 36 -125 0 -125 0 0 165 0 165 125 0 125 0 0 28
c0 49 22 67 82 67 77 0 88 -7 88 -55 l0 -40 105 0 105 0 0 28 c0 49 22 67 82
67 77 0 88 -7 88 -55 l0 -40 55 0 55 0 0 85 c0 47 -4 85 -8 85 -20 0 -96 90
-125 149 -29 59 -32 74 -32 156 0 80 3 97 31 155 53 108 144 183 254 206 71
16 76 16 145 3z m-2305 -1469 c19 -19 20 -33 20 -199 0 -159 -2 -181 -18 -202
-27 -33 -78 -30 -109 6 -24 27 -24 30 -21 200 3 153 5 175 22 194 25 27 79 28
106 1z m-452 -75 c274 -28 272 -27 272 -117 0 -62 -21 -98 -57 -98 -10 0 -131
-11 -268 -25 -261 -25 -294 -24 -370 12 l-35 17 0 93 0 92 32 17 c79 41 115
41 426 9z m1065 -1725 c69 -72 127 -139 130 -149 14 -54 -46 -106 -98 -85 -13
5 -75 65 -139 134 -126 136 -138 161 -94 207 43 46 65 34 201 -107z m-142
-129 c68 -67 74 -55 -170 -329 -129 -145 -163 -178 -212 -203 -32 -16 -66 -29
-76 -29 -10 0 -43 26 -75 57 -68 67 -71 85 -29 159 24 42 62 76 212 190 295
225 285 220 350 155z"/>
<path d="M4320 4314 c0 -39 -54 -126 -111 -177 l-59 -54 0 -76 0 -77 45 0 45
0 0 40 c0 48 11 55 88 55 60 0 82 -18 82 -67 0 -27 2 -28 50 -28 l51 0 -3 92
c-2 72 -7 97 -20 110 -10 10 -18 29 -18 42 0 19 -6 25 -27 28 -21 2 -29 10
-37 36 -5 17 -15 32 -23 32 -8 0 -22 13 -31 30 -19 33 -32 39 -32 14z"/>
<path d="M4606 3945 c-3 -8 -1 -15 4 -15 6 0 10 7 10 15 0 8 -2 15 -4 15 -2 0
-6 -7 -10 -15z"/>
<path d="M3412 3575 c50 -34 58 -63 25 -89 -21 -17 -24 -24 -15 -40 8 -14 8
-24 -1 -39 -10 -15 -9 -22 3 -36 19 -21 21 -61 4 -61 -6 0 -2 -10 10 -23 12
-13 22 -31 22 -40 0 -39 95 -96 140 -84 11 3 27 -1 37 -8 11 -9 25 -10 40 -4
13 5 36 6 53 3 l30 -6 0 226 0 226 -55 0 -55 0 0 -43 c0 -24 -5 -48 -12 -55
-7 -7 -39 -12 -75 -12 -70 0 -83 11 -83 74 l0 36 -52 0 -53 0 37 -25z"/>
<path d="M4163 2923 c-10 -3 -13 -57 -13 -217 l0 -213 25 4 c13 3 27 14 30 24
4 10 21 22 38 27 21 5 32 14 32 26 0 10 18 30 40 45 34 23 40 33 41 63 1 19 4
40 7 45 4 6 -5 15 -19 22 -22 9 -25 17 -22 41 4 25 1 30 -17 30 -25 0 -45 18
-45 41 0 12 -9 19 -27 21 -17 2 -32 12 -38 26 -10 23 -12 24 -32 15z"/>
<path d="M3715 2178 c-6 -13 -19 -25 -29 -27 -11 -2 -28 -14 -39 -27 -10 -13
-24 -24 -32 -24 -7 0 -15 -9 -18 -20 -3 -11 -19 -25 -36 -31 -31 -11 -39 -23
-22 -33 5 -3 53 -13 107 -22 55 -9 102 -22 106 -28 4 -6 8 44 8 112 0 110 -2
122 -18 122 -9 0 -22 -10 -27 -22z"/>
</g>
</svg>
